{
.appVersion = "3151";
.formatVersion = 3;
customParameters = (
{
name = "Use Typo Metrics";
value = 1;
},
{
name = fsType;
value = (
);
}
);
date = "2022-07-30 15:19:26 +0000";
familyName = "Instrument Serif";
featurePrefixes = (
{
automatic = 1;
code = "languagesystem DFLT dflt;

languagesystem latn dflt;
languagesystem latn AZE;
languagesystem latn CRT;
languagesystem latn KAZ;
languagesystem latn TAT;
languagesystem latn TRK;
languagesystem latn ROM;
languagesystem latn MOL;
languagesystem latn CAT;
";
name = Languagesystems;
}
);
features = (
{
automatic = 1;
code = "feature locl;
feature ordn;
feature case;
feature ss01;
";
tag = aalt;
},
{
code = "lookup ccmp_Other_1 {
	@CombiningTopAccents = [acutecomb brevecomb caroncomb circumflexcomb commaturnedabovecomb dieresiscomb dotaccentcomb gravecomb hungarumlautcomb macroncomb ringcomb tildecomb];
	@CombiningNonTopAccents = [cedillacomb ogonekcomb];
	sub [i j]' @CombiningTopAccents by [idotless jdotless];
	sub [i j]' @CombiningNonTopAccents @CombiningTopAccents by [idotless jdotless];
	sub iogonek' @CombiningTopAccents by idotless ogonekcomb;
} ccmp_Other_1;
";
tag = ccmp;
},
{
automatic = 1;
code = "lookup locl_latn_0 {
	script latn;
	language AZE;
	sub i by idotaccent;
	language CRT;
	sub i by idotaccent;
	language KAZ;
	sub i by idotaccent;
	language TAT;
	sub i by idotaccent;
	language TRK;
	sub i by idotaccent;
} locl_latn_0;

lookup locl_latn_1 {
	script latn;
	language ROM;
	sub Scedilla by Scommaaccent;
	sub scedilla by scommaaccent;
	language MOL;
	sub Scedilla by Scommaaccent;
	sub scedilla by scommaaccent;
} locl_latn_1;

lookup locl_latn_2 {
	script latn;
	language CAT;
	sub l periodcentered' l by periodcentered.loclCAT;
	sub L periodcentered' L by periodcentered.loclCAT.case;
} locl_latn_2;
";
tag = locl;
},
{
automatic = 1;
code = "sub [zero one two three four five six seven eight nine] [A a]' by ordfeminine;
sub [zero one two three four five six seven eight nine] [O o]' by ordmasculine;
";

glyphs = (
{
glyphname = A;
kernLeft = A;
kernRight = A;
lastChange = "2022-09-01 21:01:03 +0000";
layers = (
{
anchors = (
{
name = bottom;
pos = (170,0);
},
{
name = ogonek;
pos = (354,0);
},
{
name = top;
pos = (336,720);
}
);
layerId = m002;
shapes = (
{
closed = 1;
nodes = (
(83,0,ls),
(94,0,o),
(100,5,o),
(100,11,cs),
(100,17,o),
(97,21,o),
(85,23,cs),
(71,25,ls),
(41,29,o),
(35,50,o),
(53,88,cs),
(118,222,ls),
(127,240,o),
(139,248,o),
(157,248,cs),
(264,248,ls),
(282,248,o),
(291,239,o),
(291,222,cs),
(293,67,ls),
(293,38,o),
(286,27,o),
(263,25,cs),
(243,23,ls),
(231,22,o),
(223,18,o),
(223,10,cs),
(223,4,o),
(227,0,o),
(236,0,cs),
(401,0,ls),
(412,0,o),
(418,4,o),
(418,11,cs),
(418,17,o),
(414,21,o),
(406,23,cs),
(393,26,ls),
(368,32,o),
(362,43,o),
(361,80,cs),
(350,714,ls),
(350,727,o),
(344,730,o),
(338,730,cs),
(333,730,o),
(325,727,o),
(319,714,cs),
(20,89,ls),
(2,52,o),
(-15,31,o),
(-42,26,cs),
(-58,23,ls),
(-67,21,o),
(-74,18,o),
(-74,10,cs),
(-74,4,o),
(-70,0,o),
(-62,0,cs)
);
},
{
closed = 1;
nodes = (
(151,278,o),
(147,285,o),
(152,295,cs),
(283,568,l),
(288,568,l),
(290,295,ls),
(290,285,o),
(283,278,o),
(273,278,cs),
(161,278,ls)
);
}
);
width = 457;
}
);
unicode = 65;
},
{
glyphname = AE;
kernRight = E;
lastChange = "2022-08-23 19:51:09 +0000";
layers = (
{
layerId = m002;
shapes = (
{
closed = 1;
nodes = (
(92,0,ls),
(105,0,o),
(111,4,o),
(111,11,cs),
(111,17,o),
(106,22,o),
(96,23,cs),
(81,25,ls),
(51,29,o),
(49,51,o),
(76,88,cs),
(266,348,ls),
(271,355,o),
(278,358,o),
(285,358,cs),
(428,358,ls),
(437,358,o),
(440,353,o),
(438,344,cs),
(374,66,ls),
(368,38,o),
(360,32,o),
(331,27,cs),
(307,23,ls),
(298,21,o),
(291,17,o),
(291,10,cs),
(291,4,o),
(295,0,o),
(305,0,cs),
(655,0,ls),
(670,0,o),
(681,8,o),
(685,23,cs),
(736,201,ls),
(739,212,o),
(734,218,o),
(726,218,cs),
(718,218,o),
(713,213,o),
(710,205,cs),
(685,146,ls),
(645,52,o),
(589,25,o),
(522,25,cs),
(457,25,o),
(440,45,o),
(451,93,cs),
(509,344,ls),
(511,353,o),
(518,358,o),
(527,358,cs),
(576,358,ls),
(606,358,o),
(618,347,o),
(617,301,cs),
(616,252,ls),
(616,244,o),
(622,238,o),
(630,239,cs),
(637,240,o),
(642,245,o),
(645,256,cs),
(697,481,ls),
(700,492,o),
(693,498,o),
(686,498,cs),
(678,498,o),
(674,493,o),
(670,485,cs),
(648,435,ls),
(634,402,o),
(614,388,o),
(584,388,cs),
(534,388,ls),
(525,388,o),
(521,393,o),
(523,402,cs),
(578,643,ls),
(587,681,o),
(607,695,o),
(661,695,cs),
(741,695,o),
(775,654,o),
(770,564,cs),
(768,527,ls),
(768,519,o),
(772,514,o),
(780,514,cs),
(788,514,o),
(794,520,o),
(796,531,cs),
(826,697,ls),
(829,712,o),
(821,720,o),
(806,720,cs),
(423,720,ls),
(413,720,o),
(406,716,o),
(406,708,cs),
(406,703,o),
(409,699,o),
(416,697,cs),
(438,692,ls),
(464,686,o),
(473,682,o),
(453,654,cs),
(41,89,ls),
(15,54,o),
(-14,31,o),
(-41,26,cs),
(-57,23,ls),
(-66,21,o),
(-74,18,o),
(-74,10,cs),
(-74,4,o),
(-70,0,o),
(-61,0,cs)
);
},
{
closed = 1;
nodes = (
(499,667,ls),
(507,678,o),
(515,676,o),
(512,664,cs),
(452,402,ls),
(450,393,o),
(444,388,o),
(435,388,cs),
(314,388,ls),
(304,388,o),
(301,396,o),
(308,405,cs)
);
}
);
width = 783;
}
);
metricLeft = A;
metricRight = E;
unicode = 198;
},
{
glyphname = B;
kernLeft = H;
lastChange = "2022-09-01 21:00:59 +0000";
layers = (
{
background = {
shapes = (
{
closed = 1;
nodes = (
(182,0,ls),
(328,0,o),
(444,106,o),
(444,239,cs),
(444,320,o),
(401,380,o),
(328,401,c),
(329,406,l),
(419,431,o),
(485,507,o),
(485,587,cs),
(485,665,o),
(423,720,o),
(334,720,cs),
(143,720,ls),
(132,720,o),
(125,716,o),
(125,708,cs),
(125,702,o),
(129,699,o),
(138,697,cs),
(158,693,ls),
(184,688,o),
(189,680,o),
(183,654,cs),
(47,66,ls),
(40,38,o),
(33,32,o),
(4,27,cs),
(-16,24,ls),
(-29,22,o),
(-36,17,o),
(-36,10,cs),
(-36,3,o),
(-31,0,o),
(-22,0,cs)
);
},
{
closed = 1;
nodes = (
(133,25,o),
(113,47,o),
(123,94,cs),
(178,333,ls),
(186,370,o),
(209,386,o),
(251,386,cs),
(327,386,o),
(371,334,o),
(371,244,cs),
(371,119,o),
(291,25,o),
(185,25,cs)
);
},
{
closed = 1;
nodes = (
(212,411,o),
(200,426,o),
(209,466,cs),
(252,655,ls),
(258,682,o),
(278,695,o),
(313,695,cs),
(375,695,o),
(413,653,o),
(413,583,cs),
(413,488,o),
(340,411,o),
(252,411,cs)
);
}
);
};
layerId = m002;
shapes = (
{
closed = 1;
nodes = (
(182,0,ls),
(328,0,o),
(444,106,o),
(444,239,cs),
(444,314,o),
(407,373,o),
(338,398,cs),
(331,400,o),
(331,406,o),
(338,408,cs),
(427,439,o),
(485,512,o),
(485,587,cs),
(485,665,o),
(423,720,o),
(334,720,cs),
(143,720,ls),
(132,720,o),
(125,716,o),
(125,708,cs),
(125,702,o),
(129,699,o),
(138,697,cs),
(158,693,ls),
(184,688,o),
(189,680,o),
(183,654,cs),
(47,66,ls),
(40,38,o),
(33,31,o),
(4,27,cs),
(-16,24,ls),
(-29,22,o),
(-36,17,o),
(-36,10,cs),
(-36,3,o),
(-31,0,o),
(-22,0,cs)
);
},
{
closed = 1;
nodes = (
(133,25,o),
(112,47,o),
(123,94,cs),
(178,333,ls),
(186,370,o),
(209,386,o),
(251,386,cs),
(327,386,o),
(371,334,o),
(371,244,cs),
(371,119,o),
(291,25,o),
(185,25,cs)
);
},
{
closed = 1;
nodes = (
(212,411,o),
(200,426,o),
(209,466,cs),
(252,655,ls),
(258,682,o),
(278,695,o),
(313,695,cs),
(375,695,o),
(413,653,o),
(413,583,cs),
(413,488,o),
(340,411,o),
(252,411,cs)
);
}
);
width = 479;
}
);
unicode = 66;
},
{
glyphname = C;
kernLeft = O;
kernRight = C;
lastChange = "2022-09-01 20:50:49 +0000";
layers = (
{
anchors = (
{
name = bottom;
pos = (229,0);
},
{
name = top;
pos = (375,720);
}
);
background = {
shapes = (
{
closed = 1;
nodes = (
(292,-9,o),
(336,0,o),
(359,8,cs),
(369,11,o),
(372,16,o),
(375,26,cs),
(419,182,ls),
(422,193,o),
(419,201,o),
(409,201,cs),
(402,201,o),
(397,196,o),
(394,189,cs),
(374,142,ls),
(335,51,o),
(294,17,o),
(244,17,cs),
(159,17,o),
(125,114,o),
(125,234,cs),
(125,406,o),
(239,704,o),
(378,704,cs),
(430,704,o),
(462,669,o),
(459,549,cs),
(458,510,ls),
(458,500,o),
(463,495,o),
(471,494,cs),
(478,494,o),
(484,499,o),
(486,510,cs),
(515,661,ls),
(517,672,o),
(516,677,o),
(509,683,cs),
(470,715,o),
(429,730,o),
(382,730,cs),
(185,730,o),
(55,454,o),
(55,262,cs),
(55,93,o),
(114,-9,o),
(256,-9,cs)
);
}
);
};
layerId = m002;
shapes = (
{
closed = 1;
nodes = (
(292,-9,o),
(341,0,o),
(364,8,cs),
(374,11,o),
(377,16,o),
(380,26,cs),
(420,182,ls),
(423,193,o),
(419,201,o),
(409,201,cs),
(402,201,o),
(397,196,o),
(394,189,cs),
(372,142,ls),
(330,53,o),
(294,20,o),
(244,20,cs),
(159,20,o),
(125,104,o),
(125,224,cs),
(125,406,o),
(242,702,o),
(371,702,cs),
(426,702,o),
(455,659,o),
(458,549,cs),
(459,510,ls),
(459,500,o),
(464,494,o),
(471,494,cs),
(479,494,o),
(484,499,o),
(486,510,cs),
(516,661,ls),
(518,672,o),
(516,677,o),
(509,683,cs),
(470,715,o),
(429,730,o),
(382,730,cs),
(185,730,o),
(55,454,o),
(55,252,cs),
(55,83,o),
(114,-9,o),
(256,-9,cs)
);
}
);
width = 475;
}
);
unicode = 67;
},
{
glyphname = D;
kernLeft = H;
kernRight = O;
lastChange = "2022-09-01 20:50:56 +0000";
layers = (
{
anchors = (
{
name = bottom;
pos = (209,0);
},
{
name = center;
pos = (292,360);
},
{
name = top;
pos = (365,720);
}
);
background = {
shapes = (
{
closed = 1;
nodes = (
(169,0,ls),
(330,0,o),
(465,139,o),
(515,357,cs),
(565,573,o),
(501,720,o),
(345,720,cs),
(143,720,ls),
(133,720,o),
(127,716,o),
(126,709,cs),
(124,702,o),
(127,699,o),
(136,697,cs),
(158,693,ls),
(185,688,o),
(189,682,o),
(183,654,cs),
(47,66,ls),
(42,42,o),
(29,31,o),
(4,27,cs),
(-20,23,ls),
(-29,21,o),
(-34,18,o),
(-35,11,cs),
(-37,4,o),
(-33,0,o),
(-23,0,cs)
);
},
{
closed = 1;
nodes = (
(129,26,o),
(114,46,o),
(126,99,cs),
(246,621,ls),
(257,669,o),
(290,694,o),
(339,694,cs),
(455,694,o),
(487,570,o),
(437,357,cs),
(388,142,o),
(297,26,o),
(179,26,cs)
);
}
);
};
layerId = m002;
shapes = (
{
closed = 1;
nodes = (
(182,0,ls),
(362,0,o),
(531,222,o),
(531,468,cs),
(531,634,o),
(458,720,o),
(344,720,cs),
(143,720,ls),
(132,720,o),
(125,716,o),
(125,708,cs),
(125,703,o),
(128,699,o),
(138,697,cs),
(158,693,ls),
(185,688,o),
(189,682,o),
(183,654,cs),
(47,66,ls),
(41,38,o),
(33,31,o),
(4,27,cs),
(-16,24,ls),
(-30,22,o),
(-36,17,o),
(-36,10,cs),
(-36,4,o),
(-32,0,o),
(-22,0,cs)
);
},
{
closed = 1;
nodes = (
(137,26,o),
(114,46,o),
(126,99,cs),
(246,621,ls),
(257,669,o),
(290,694,o),
(338,694,cs),
(416,694,o),
(463,640,o),
(463,534,cs),
(463,274,o),
(340,26,o),
(187,26,cs)
);
}
);
width = 536;
}
);
unicode = 68;
},
{
glyphname = Eth;
kernLeft = H;
kernRight = O;
lastChange = "2022-08-23 19:52:33 +0000";
layers = (
{
layerId = m002;
shapes = (
{
ref = D;
},
{
closed = 1;
nodes = (
(309,358,ls),
(315,358,o),
(320,362,o),
(321,368,cs),
(323,376,ls),
(324,382,o),
(321,386,o),
(315,386,cs),
(60,386,ls),
(54,386,o),
(49,382,o),
(48,376,cs),
(46,368,ls),
(45,362,o),
(48,358,o),
(54,358,cs)
);
}
);
width = 536;
}
);
unicode = 208;
},
{
glyphname = E;
kernLeft = H;
kernRight = E;
lastChange = "2022-09-01 20:51:22 +0000";
layers = (
{
anchors = (
{
name = bottom;
pos = (168,0);
},
{
name = ogonek;
pos = (326,0);
},
{
name = top;
pos = (334,720);
},
{
name = topleft;
pos = (127,720);
}
);
background = {
shapes = (
{
closed = 1;
nodes = (
(326,0,ls),
(341,0,o),
(352,8,o),
(356,23,cs),
(407,201,ls),
(410,212,o),
(405,218,o),
(397,218,cs),
(389,218,o),
(384,213,o),
(381,205,cs),
(349,128,ls),
(314,44,o),
(263,25,o),
(193,25,cs),
(128,25,o),
(111,45,o),
(122,93,cs),
(180,344,ls),
(182,353,o),
(189,358,o),
(198,358,cs),
(250,358,ls),
(280,358,o),
(294,347,o),
(291,301,cs),
(288,252,ls),
(288,244,o),
(292,239,o),
(300,239,cs),
(308,239,o),
(313,245,o),
(316,256,cs),
(368,481,ls),
(371,492,o),
(366,498,o),
(358,498,cs),
(350,498,o),
(345,493,o),
(342,485,cs),
(322,435,ls),
(309,402,o),
(288,388,o),
(258,388,cs),
(205,388,ls),
(196,388,o),
(192,393,o),
(194,402,cs),
(249,643,ls),
(258,681,o),
(278,695,o),
(332,695,cs),
(402,695,o),
(452,674,o),
(444,582,cs),
(439,527,ls),
(438,519,o),
(443,514,o),
(451,514,cs),
(459,514,o),
(465,520,o),
(467,531,cs),
(497,697,ls),
(500,712,o),
(492,720,o),
(477,720,cs),
(143,720,ls),
(132,720,o),
(125,716,o),
(125,708,cs),
(125,703,o),
(128,699,o),
(138,697,cs),
(158,693,ls),
(185,688,o),
(189,682,o),
(183,654,cs),
(47,66,ls),
(41,38,o),
(33,31,o),
(4,27,cs),
(-16,24,ls),
(-30,22,o),
(-36,17,o),
(-36,10,cs),
(-36,4,o),
(-32,0,o),
(-22,0,cs)
);
}
);
};
layerId = m002;
shapes = (
{
closed = 1;
nodes = (
(326,0,ls),
(341,0,o),
(352,8,o),
(356,23,cs),
(407,201,ls),
(410,212,o),
(405,218,o),
(397,218,cs),
(389,218,o),
(384,213,o),
(381,205,cs),
(357,149,ls),
(313,46,o),
(253,25,o),
(193,25,cs),
(128,25,o),
(111,45,o),
(122,93,cs),
(180,344,ls),
(182,353,o),
(189,358,o),
(198,358,cs),
(248,358,ls),
(278,358,o),
(290,347,o),
(289,301,cs),
(288,252,ls),
(288,244,o),
(292,239,o),
(300,239,cs),
(308,239,o),
(314,245,o),
(317,256,cs),
(369,481,ls),
(372,492,o),
(366,498,o),
(358,498,cs),
(350,498,o),
(345,493,o),
(342,485,cs),
(320,435,ls),
(306,402,o),
(286,388,o),
(256,388,cs),
(205,388,ls),
(196,388,o),
(192,393,o),
(194,402,cs),
(249,643,ls),
(258,681,o),
(278,695,o),
(332,695,cs),
(402,695,o),
(451,664,o),
(442,562,cs),
(439,527,ls),
(438,519,o),
(443,514,o),
(451,514,cs),
(459,514,o),
(465,520,o),
(467,531,cs),
(498,697,ls),
(501,712,o),
(492,720,o),
(477,720,cs),
(143,720,ls),
(132,720,o),
(125,716,o),
(125,708,cs),
(125,703,o),
(128,699,o),
(138,697,cs),
(158,693,ls),
(185,688,o),
(189,682,o),
(183,654,cs),
(47,66,ls),
(41,38,o),
(33,31,o),
(4,27,cs),
(-16,24,ls),
(-30,22,o),
(-36,17,o),
(-36,10,cs),
(-36,4,o),
(-32,0,o),
(-22,0,cs)
);
}
);
width = 454;
}
);
unicode = 69;
},
{
glyphname = F;
kernLeft = H;
lastChange = "2022-09-01 20:52:39 +0000";
layers = (
{
background = {
shapes = (
{
closed = 1;
nodes = (
(189,0,ls),
(200,0,o),
(206,4,o),
(206,12,cs),
(206,18,o),
(203,22,o),
(194,23,cs),
(141,30,ls),
(114,34,o),
(109,43,o),
(116,71,cs),
(180,344,ls),
(182,353,o),
(189,358,o),
(198,358,cs),
(237,358,ls),
(267,358,o),
(281,347,o),
(278,301,cs),
(275,253,ls),
(275,245,o),
(279,240,o),
(287,240,cs),
(295,240,o),
(300,246,o),
(303,257,cs),
(355,480,ls),
(358,491,o),
(351,497,o),
(344,497,cs),
(336,497,o),
(332,492,o),
(329,484,cs),
(309,435,ls),
(296,402,o),
(275,388,o),
(245,388,cs),
(205,388,ls),
(196,388,o),
(192,393,o),
(194,402,cs),
(248,638,ls),
(257,676,o),
(280,695,o),
(339,695,cs),
(395,695,o),
(440,674,o),
(432,582,cs),
(427,527,ls),
(426,519,o),
(431,514,o),
(439,514,cs),
(447,514,o),
(453,520,o),
(455,531,cs),
(485,697,ls),
(488,712,o),
(480,720,o),
(465,720,cs),
(143,720,ls),
(132,720,o),
(125,716,o),
(125,708,cs),
(125,703,o),
(128,699,o),
(138,697,cs),
(158,693,ls),
(185,688,o),
(189,682,o),
(183,654,cs),
(47,66,ls),
(41,38,o),
(33,31,o),
(4,27,cs),
(-16,24,ls),
(-30,22,o),
(-36,17,o),
(-36,10,cs),
(-36,4,o),
(-32,0,o),
(-22,0,cs)
);
}
);
};
layerId = m002;
shapes = (
{
closed = 1;
nodes = (
(189,0,ls),
(200,0,o),
(206,4,o),
(206,12,cs),
(206,18,o),
(203,22,o),
(194,23,cs),
(141,30,ls),
(114,34,o),
(109,43,o),
(116,71,cs),
(180,344,ls),
(182,353,o),
(189,358,o),
(198,358,cs),
(234,358,ls),
(264,358,o),
(275,347,o),
(275,301,cs),
(275,253,ls),
(275,245,o),
(279,240,o),
(287,240,cs),
(295,240,o),
(300,246,o),
(303,257,cs),
(355,480,ls),
(358,491,o),
(351,497,o),
(344,497,cs),
(336,497,o),
(333,492,o),
(329,484,cs),
(306,435,ls),
(291,402,o),
(272,388,o),
(242,388,cs),
(205,388,ls),
(196,388,o),
(192,393,o),
(194,402,cs),
(248,638,ls),
(257,676,o),
(280,695,o),
(338,695,cs),
(394,695,o),
(436,654,o),
(429,562,cs),
(427,527,ls),
(426,519,o),
(431,514,o),
(439,514,cs),
(447,514,o),
(453,520,o),
(455,531,cs),
(485,697,ls),
(488,712,o),
(480,720,o),
(465,720,cs),
(143,720,ls),
(132,720,o),
(125,716,o),
(125,708,cs),
(125,703,o),
(128,699,o),
(138,697,cs),
(158,693,ls),
(185,688,o),
(189,682,o),
(183,654,cs),
(47,66,ls),
(41,38,o),
(33,31,o),
(4,27,cs),
(-16,24,ls),
(-30,22,o),
(-36,17,o),
(-36,10,cs),
(-36,4,o),
(-32,0,o),
(-22,0,cs)
);
}
);
width = 411;
}
);
unicode = 70;
},
{
glyphname = G;
kernLeft = O;
kernRight = G;
lastChange = "2022-09-01 20:53:01 +0000";
layers = (
{
anchors = (
{
name = bottom;
pos = (228,0);
},
{
name = top;
pos = (394,720);
}
);
background = {
shapes = (
{
closed = 1;
nodes = (
(285,-9,o),
(323,8,o),
(356,28,cs),
(380,43,o),
(390,55,o),
(393,70,cs),
(451,321,ls),
(457,349,o),
(461,359,o),
(491,363,cs),
(506,365,ls),
(515,366,o),
(521,370,o),
(521,378,cs),
(521,385,o),
(516,388,o),
(508,388,cs),
(327,388,ls),
(316,388,o),
(309,384,o),
(309,376,cs),
(309,371,o),
(313,366,o),
(322,365,cs),
(357,361,ls),
(387,358,o),
(388,349,o),
(382,322,cs),
(332,103,ls),
(317,38,o),
(282,17,o),
(239,17,cs),
(170,17,o),
(122,89,o),
(122,235,cs),
(122,367,o),
(210,704,o),
(393,704,cs),
(445,704,o),
(477,671,o),
(474,565,cs),
(473,526,ls),
(473,518,o),
(477,513,o),
(485,513,cs),
(494,513,o),
(499,520,o),
(501,530,cs),
(531,682,ls),
(533,694,o),
(532,699,o),
(525,703,cs),
(497,719,o),
(457,730,o),
(398,730,cs),
(164,730,o),
(52,430,o),
(52,253,cs),
(52,84,o),
(121,-9,o),
(236,-9,cs)
);
}
);
};
layerId = m002;
shapes = (
{
closed = 1;
nodes = (
(285,-9,o),
(323,8,o),
(356,28,cs),
(380,43,o),
(390,55,o),
(393,70,cs),
(451,321,ls),
(457,349,o),
(461,359,o),
(491,363,cs),
(506,365,ls),
(515,366,o),
(521,370,o),
(521,378,cs),
(521,385,o),
(516,388,o),
(508,388,cs),
(327,388,ls),
(316,388,o),
(309,384,o),
(309,376,cs),
(309,371,o),
(313,366,o),
(322,365,cs),
(357,361,ls),
(387,358,o),
(388,349,o),
(382,322,cs),
(332,103,ls),
(317,38,o),
(282,17,o),
(239,17,cs),
(170,17,o),
(122,89,o),
(122,235,cs),
(122,367,o),
(210,704,o),
(393,704,cs),
(445,704,o),
(468,669,o),
(472,555,cs),
(473,526,ls),
(473,518,o),
(477,513,o),
(485,513,cs),
(494,513,o),
(499,520,o),
(501,530,cs),
(531,682,ls),
(533,694,o),
(532,699,o),
(525,703,cs),
(497,719,o),
(457,730,o),
(398,730,cs),
(164,730,o),
(52,430,o),
(52,253,cs),
(52,84,o),
(121,-9,o),
(236,-9,cs)
);
}
);
width = 514;
}
);
unicode = 71;
},
{
glyphname = H;
kernLeft = H;
kernRight = H;
lastChange = "2022-09-01 20:53:06 +0000";
layers = (
{
background = {
shapes = (
{
closed = 1;
nodes = (
(158,0,ls),
(168,0,o),
(174,4,o),
(176,12,cs),
(177,18,o),
(174,22,o),
(167,23,cs),
(141,27,ls),
(114,31,o),
(110,39,o),
(116,67,cs),
(180,344,ls),
(182,353,o),
(189,358,o),
(198,358,cs),
(396,358,ls),
(405,358,o),
(408,353,o),
(406,344,cs),
(342,67,ls),
(336,39,o),
(328,31,o),
(299,27,cs),
(271,23,ls),
(264,22,o),
(259,18,o),
(258,12,cs),
(256,4,o),
(260,0,o),
(270,0,cs),
(451,0,ls),
(461,0,o),
(467,4,o),
(469,11,cs),
(470,17,o),
(467,21,o),
(458,23,cs),
(436,27,ls),
(409,32,o),
(405,38,o),
(411,66,cs),
(547,654,ls),
(553,682,o),
(561,688,o),
(590,693,cs),
(614,697,ls),
(623,699,o),
(628,703,o),
(630,709,cs),
(631,716,o),
(627,720,o),
(617,720,cs),
(436,720,ls),
(426,720,o),
(420,716,o),
(418,708,cs),
(417,702,o),
(420,698,o),
(427,697,cs),
(453,693,ls),
(480,689,o),
(484,681,o),
(478,653,cs),
(420,402,ls),
(418,393,o),
(412,388,o),
(403,388,cs),
(205,388,ls),
(196,388,o),
(192,393,o),
(194,402,cs),
(252,653,ls),
(258,681,o),
(266,689,o),
(295,693,cs),
(323,697,ls),
(330,698,o),
(335,702,o),
(336,708,cs),
(338,716,o),
(334,720,o),
(324,720,cs),
(143,720,ls),
(133,720,o),
(127,716,o),
(126,709,cs),
(124,703,o),
(127,699,o),
(136,697,cs),
(158,693,ls),
(185,688,o),
(189,682,o),
(183,654,cs),
(47,66,ls),
(41,38,o),
(33,32,o),
(4,27,cs),
(-20,23,ls),
(-29,21,o),
(-34,17,o),
(-35,11,cs),
(-37,4,o),
(-33,0,o),
(-23,0,cs)
);
}
);
};
layerId = m002;
shapes = (
{
closed = 1;
nodes = (
(158,0,ls),
(170,0,o),
(177,4,o),
(177,12,cs),
(177,18,o),
(173,23,o),
(163,24,cs),
(141,27,ls),
(114,31,o),
(110,39,o),
(116,67,cs),
(180,344,ls),
(182,353,o),
(189,358,o),
(198,358,cs),
(396,358,ls),
(405,358,o),
(408,353,o),
(406,344,cs),
(342,67,ls),
(336,39,o),
(328,31,o),
(299,27,cs),
(275,24,ls),
(265,23,o),
(257,19,o),
(257,11,cs),
(257,5,o),
(261,0,o),
(271,0,cs),
(451,0,ls),
(462,0,o),
(469,4,o),
(469,12,cs),
(469,17,o),
(466,21,o),
(456,23,cs),
(436,27,ls),
(409,32,o),
(405,38,o),
(411,66,cs),
(547,654,ls),
(553,682,o),
(561,689,o),
(590,693,cs),
(610,696,ls),
(624,698,o),
(630,703,o),
(630,710,cs),
(630,716,o),
(626,720,o),
(616,720,cs),
(436,720,ls),
(424,720,o),
(417,716,o),
(417,708,cs),
(417,702,o),
(421,697,o),
(431,696,cs),
(453,693,ls),
(480,689,o),
(484,681,o),
(478,653,cs),
(420,402,ls),
(418,393,o),
(412,388,o),
(403,388,cs),
(205,388,ls),
(196,388,o),
(192,393,o),
(194,402,cs),
(252,653,ls),
(258,681,o),
(266,689,o),
(295,693,cs),
(319,696,ls),
(329,697,o),
(337,701,o),
(337,709,cs),
(337,715,o),
(333,720,o),
(323,720,cs),
(143,720,ls),
(132,720,o),
(125,716,o),
(125,708,cs),
(125,703,o),
(128,699,o),
(138,697,cs),
(158,693,ls),
(185,688,o),
(189,682,o),
(183,654,cs),
(47,66,ls),
(41,38,o),
(33,31,o),
(4,27,cs),
(-16,24,ls),
(-30,22,o),
(-36,17,o),
(-36,10,cs),
(-36,4,o),
(-32,0,o),
(-22,0,cs)
);
}
);
width = 545;
}
);
unicode = 72;
},
{
glyphname = Hbar;
kernLeft = H;
kernRight = H;
lastChange = "2022-08-23 19:52:53 +0000";
layers = (
{
layerId = m002;
shapes = (
{
ref = H;
},
{
closed = 1;
nodes = (
(579,532,ls),
(585,532,o),
(590,536,o),
(591,542,cs),
(593,550,ls),
(594,556,o),
(591,560,o),
(585,560,cs),
(100,560,ls),
(94,560,o),
(89,556,o),
(88,550,cs),
(86,542,ls),
(85,536,o),
(88,532,o),
(94,532,cs)
);
}
);
width = 545;
}
);
unicode = 294;
},
{
glyphname = I;
kernLeft = H;
kernRight = H;
lastChange = "2022-08-25 19:54:44 +0000";
layers = (
{
anchors = (
{
name = bottom;
pos = (66,0);
},
{
name = ogonek;
pos = (100,0);
},
{
name = top;
pos = (232,720);
},
{
name = topleft;
pos = (127,720);
}
);
background = {
shapes = (
{
closed = 1;
nodes = (
(158,0,ls),
(170,0,o),
(177,4,o),
(177,12,cs),
(177,18,o),
(173,23,o),
(163,24,cs),
(141,27,ls),
(114,30,o),
(110,39,o),
(116,67,cs),
(252,653,ls),
(258,681,o),
(266,689,o),
(293,693,cs),
(317,696,ls),
(327,697,o),
(335,701,o),
(335,709,cs),
(335,715,o),
(331,720,o),
(321,720,cs),
(143,720,ls),
(132,720,o),
(125,716,o),
(125,708,cs),
(125,703,o),
(128,699,o),
(138,697,cs),
(158,693,ls),
(185,688,o),
(189,682,o),
(183,654,cs),
(47,66,ls),
(41,38,o),
(33,31,o),
(4,27,cs),
(-16,24,ls),
(-30,22,o),
(-36,17,o),
(-36,10,cs),
(-36,4,o),
(-32,0,o),
(-22,0,cs)
);
}
);
};
layerId = m002;
shapes = (
{
closed = 1;
nodes = (
(156,0,ls),
(167,0,o),
(174,4,o),
(174,12,cs),
(174,17,o),
(171,21,o),
(161,23,cs),
(141,27,ls),
(114,32,o),
(110,38,o),
(116,66,cs),
(252,654,ls),
(258,682,o),
(266,689,o),
(295,693,cs),
(315,696,ls),
(329,698,o),
(335,703,o),
(335,710,cs),
(335,716,o),
(331,720,o),
(321,720,cs),
(143,720,ls),
(132,720,o),
(125,716,o),
(125,708,cs),
(125,703,o),
(128,699,o),
(138,697,cs),
(158,693,ls),
(185,688,o),
(189,682,o),
(183,654,cs),
(47,66,ls),
(41,38,o),
(33,31,o),
(4,27,cs),
(-16,24,ls),
(-30,22,o),
(-36,17,o),
(-36,10,cs),
(-36,4,o),
(-32,0,o),
(-22,0,cs)
);
}
);
width = 250;
}
);
unicode = 73;
},
{
glyphname = J;
kernRight = J;
lastChange = "2022-09-01 21:01:27 +0000";
layers = (
{
background = {
shapes = (
{
closed = 1;
nodes = (
(-4,-215,o),
(74,-116,o),
(111,44,cs),
(252,654,ls),
(258,682,o),
(266,689,o),
(295,693,cs),
(315,696,ls),
(329,698,o),
(335,703,o),
(335,710,cs),
(335,716,o),
(331,720,o),
(321,720,cs),
(143,720,ls),
(132,720,o),
(125,716,o),
(125,708,cs),
(125,703,o),
(128,699,o),
(138,697,cs),
(158,693,ls),
(185,688,o),
(189,682,o),
(183,654,cs),
(11,-91,ls),
(-1,-144,o),
(-23,-175,o),
(-48,-175,cs),
(-84,-175,o),
(-54,-109,o),
(-98,-109,cs),
(-122,-109,o),
(-144,-128,o),
(-150,-155,cs),
(-158,-191,o),
(-136,-215,o),
(-94,-215,cs)
);
}
);
};
layerId = m002;
shapes = (
{
closed = 1;
nodes = (
(-2,-215,o),
(74,-116,o),
(111,44,cs),
(252,654,ls),
(258,682,o),
(266,689,o),
(295,693,cs),
(315,696,ls),
(329,698,o),
(335,703,o),
(335,710,cs),
(335,716,o),
(331,720,o),
(321,720,cs),
(143,720,ls),
(132,720,o),
(125,716,o),
(125,708,cs),
(125,703,o),
(128,699,o),
(138,697,cs),
(158,693,ls),
(185,688,o),
(189,682,o),
(183,654,cs),
(11,-91,ls),
(-1,-144,o),
(-23,-175,o),
(-48,-175,cs),
(-84,-175,o),
(-58,-109,o),
(-107,-109,cs),
(-135,-109,o),
(-152,-134,o),
(-152,-161,cs),
(-152,-193,o),
(-127,-215,o),
(-89,-215,cs)
);
}
);
width = 251;
}
);
unicode = 74;
},
{
glyphname = K;
kernLeft = H;
kernRight = K;
lastChange = "2022-09-01 20:53:20 +0000";
layers = (
{
anchors = (
{
name = bottom;
pos = (221,0);
},
{
name = top;
pos = (357,720);
}
);
background = {
shapes = (
{
closed = 1;
nodes = (
(158,0,ls),
(170,0,o),
(176,4,o),
(176,12,cs),
(176,18,o),
(173,22,o),
(165,23,cs),
(141,27,ls),
(114,31,o),
(110,39,o),
(116,67,cs),
(252,653,ls),
(258,681,o),
(266,690,o),
(295,693,cs),
(321,696,ls),
(330,697,o),
(337,702,o),
(337,709,cs),
(337,716,o),
(332,720,o),
(322,720,cs),
(143,720,ls),
(132,720,o),
(125,716,o),
(125,708,cs),
(125,703,o),
(128,699,o),
(138,697,cs),
(158,693,ls),
(185,688,o),
(189,682,o),
(183,654,cs),
(47,66,ls),
(41,38,o),
(33,31,o),
(4,27,cs),
(-16,24,ls),
(-30,22,o),
(-36,17,o),
(-36,10,cs),
(-36,4,o),
(-32,0,o),
(-22,0,cs)
);
},
{
closed = 1;
nodes = (
(457,623,ls),
(502,675,o),
(527,691,o),
(568,695,cs),
(588,697,ls),
(599,698,o),
(604,703,o),
(604,710,cs),
(604,716,o),
(599,720,o),
(590,720,cs),
(419,720,ls),
(408,720,o),
(403,716,o),
(403,709,cs),
(403,703,o),
(407,699,o),
(417,697,cs),
(436,693,ls),
(462,688,o),
(458,669,o),
(429,635,cs),
(189,359,l),
(179,359,l),
(163,286,l)
);
},
{
closed = 1;
nodes = (
(235,379,l),
(232,367,l),
(239,367,l),
(325,74,ls),
(334,45,o),
(323,28,o),
(298,25,cs),
(280,23,ls),
(270,22,o),
(264,17,o),
(264,10,cs),
(264,5,o),
(268,0,o),
(278,0,cs),
(445,0,ls),
(456,0,o),
(462,4,o),
(462,12,cs),
(462,18,o),
(458,21,o),
(450,23,cs),
(429,27,ls),
(414,30,o),
(406,38,o),
(400,59,cs),
(286,437,l)
);
}
);
};
layerId = m002;
shapes = (
{
closed = 1;
nodes = (
(158,0,ls),
(170,0,o),
(176,4,o),
(176,12,cs),
(176,18,o),
(173,22,o),
(165,23,cs),
(141,27,ls),
(114,31,o),
(110,39,o),
(116,67,cs),
(161,264,ls),
(166,284,o),
(173,299,o),
(187,314,cs),
(225,357,ls),
(232,365,o),
(241,364,o),
(244,353,cs),
(325,74,ls),
(333,45,o),
(323,28,o),
(298,25,cs),
(280,23,ls),
(270,22,o),
(264,17,o),
(264,10,cs),
(264,5,o),
(268,0,o),
(278,0,cs),
(445,0,ls),
(456,0,o),
(462,4,o),
(462,12,cs),
(462,18,o),
(458,21,o),
(450,23,cs),
(429,27,ls),
(414,30,o),
(406,38,o),
(400,59,cs),
(293,412,ls),
(289,424,o),
(292,434,o),
(300,444,cs),
(457,623,ls),
(502,675,o),
(527,691,o),
(568,695,cs),
(588,697,ls),
(599,698,o),
(604,703,o),
(604,710,cs),
(604,716,o),
(599,720,o),
(590,720,cs),
(419,720,ls),
(408,720,o),
(403,716,o),
(403,709,cs),
(403,703,o),
(407,699,o),
(417,697,cs),
(436,693,ls),
(462,688,o),
(458,669,o),
(429,635,cs),
(202,374,ls),
(194,365,o),
(186,370,o),
(189,381,cs),
(252,653,ls),
(258,681,o),
(266,690,o),
(295,693,cs),
(321,696,ls),
(330,697,o),
(337,702,o),
(337,709,cs),
(337,716,o),
(332,720,o),
(322,720,cs),
(143,720,ls),
(132,720,o),
(125,716,o),
(125,708,cs),
(125,703,o),
(128,699,o),
(138,697,cs),
(158,693,ls),
(185,688,o),
(189,682,o),
(183,654,cs),
(47,66,ls),
(41,38,o),
(33,31,o),
(4,27,cs),
(-16,24,ls),
(-30,22,o),
(-36,17,o),
(-36,10,cs),
(-36,4,o),
(-32,0,o),
(-22,0,cs)
);
}
);
width = 499;
}
);
unicode = 75;
},
{
glyphname = L;
kernLeft = H;
kernRight = L;
lastChange = "2022-09-01 20:16:45 +0000";
layers = (
{
anchors = (
{
name = bottom;
pos = (148,0);
},
{
name = center;
pos = (231,360);
},
{
name = top;
pos = (228,720);
},
{
name = topright;
pos = (369,720);
}
);
background = {
shapes = (
{
closed = 1;
nodes = (
(298,0,ls),
(313,0,o),
(324,8,o),
(328,23,cs),
(384,211,ls),
(387,222,o),
(382,228,o),
(374,228,cs),
(366,228,o),
(361,223,o),
(358,215,cs),
(321,128,ls),
(286,45,o),
(235,25,o),
(189,25,cs),
(138,25,o),
(111,45,o),
(122,93,cs),
(252,653,ls),
(258,681,o),
(266,689,o),
(295,693,cs),
(323,697,ls),
(330,698,o),
(335,702,o),
(336,708,cs),
(338,716,o),
(334,720,o),
(324,720,cs),
(143,720,ls),
(132,720,o),
(125,716,o),
(125,708,cs),
(125,703,o),
(128,699,o),
(138,697,cs),
(158,693,ls),
(185,688,o),
(189,682,o),
(183,654,cs),
(47,66,ls),
(41,38,o),
(33,31,o),
(4,27,cs),
(-16,24,ls),
(-30,22,o),
(-36,17,o),
(-36,10,cs),
(-36,4,o),
(-32,0,o),
(-22,0,cs)
);
}
);
};
layerId = m002;
shapes = (
{
closed = 1;
nodes = (
(298,0,ls),
(313,0,o),
(324,8,o),
(328,23,cs),
(384,211,ls),
(387,222,o),
(382,228,o),
(374,228,cs),
(366,228,o),
(361,223,o),
(358,215,cs),
(328,145,ls),
(293,62,o),
(235,25,o),
(184,25,cs),
(138,25,o),
(111,45,o),
(122,93,cs),
(252,653,ls),
(258,681,o),
(266,689,o),
(295,693,cs),
(323,697,ls),
(330,698,o),
(335,702,o),
(336,708,cs),
(338,716,o),
(334,720,o),
(324,720,cs),
(143,720,ls),
(132,720,o),
(125,716,o),
(125,708,cs),
(125,703,o),
(128,699,o),
(138,697,cs),
(158,693,ls),
(185,688,o),
(189,682,o),
(183,654,cs),
(47,66,ls),
(41,38,o),
(33,31,o),
(4,27,cs),
(-16,24,ls),
(-30,22,o),
(-36,17,o),
(-36,10,cs),
(-36,4,o),
(-32,0,o),
(-22,0,cs)
);
}
);
width = 414;
}
);
unicode = 76;
},
{
glyphname = Lslash;
kernLeft = H;
kernRight = L;
lastChange = "2022-08-23 19:53:25 +0000";
layers = (
{
layerId = m002;
shapes = (
{
ref = L;
},
{
closed = 1;
nodes = (
(162,383,l),
(27,307,ls),
(21,304,o),
(18,298,o),
(21,293,cs),
(25,286,ls),
(28,281,o),
(32,280,o),
(38,283,cs),
(156,350,l)
);
},
{
closed = 1;
nodes = (
(157,345,l),
(298,424,ls),
(304,427,o),
(306,433,o),
(304,438,cs),
(300,445,ls),
(298,450,o),
(293,451,o),
(287,448,cs),
(163,378,l)
);
}
);
width = 414;
}
);
unicode = 321;
},
{
glyphname = M;
lastChange = "2022-09-01 20:53:28 +0000";
layers = (
{
background = {
shapes = (
{
closed = 1;
nodes = (
(265,10,o),
(271,13,o),
(277,26,cs),
(581,661,l),
(594,661,l),
(609,720,l),
(603,720,ls),
(584,720,o),
(573,712,o),
(565,695,cs),
(316,177,l),
(311,177,l),
(305,690,ls),
(305,711,o),
(295,720,o),
(276,720,cs),
(234,720,l),
(246,26,ls),
(246,13,o),
(252,10,o),
(259,10,cs)
);
},
{
closed = 1;
nodes = (
(576,0,ls),
(588,0,o),
(594,5,o),
(594,12,cs),
(594,17,o),
(591,22,o),
(578,24,cs),
(561,27,ls),
(534,32,o),
(530,38,o),
(536,66,cs),
(652,654,ls),
(658,682,o),
(666,688,o),
(695,693,cs),
(719,697,ls),
(730,699,o),
(736,703,o),
(736,710,cs),
(736,716,o),
(732,720,o),
(724,720,cs),
(609,720,l),
(590,685,l),
(467,66,ls),
(461,38,o),
(453,32,o),
(424,27,cs),
(400,23,ls),
(390,21,o),
(384,17,o),
(384,10,cs),
(384,4,o),
(388,0,o),
(398,0,cs)
);
},
{
closed = 1;
nodes = (
(253,720,l),
(156,720,ls),
(144,720,o),
(138,716,o),
(138,709,cs),
(138,703,o),
(142,698,o),
(154,696,cs),
(171,693,ls),
(200,688,o),
(205,682,o),
(198,654,cs),
(47,86,ls),
(37,48,o),
(23,30,o),
(-13,25,cs),
(-27,23,ls),
(-36,22,o),
(-43,18,o),
(-43,10,cs),
(-43,4,o),
(-39,0,o),
(-28,0,cs),
(113,0,ls),
(126,0,o),
(132,4,o),
(132,12,cs),
(132,17,o),
(129,22,o),
(120,23,cs),
(108,25,ls),
(76,30,o),
(68,48,o),
(78,86,cs),
(231,661,l),
(236,661,l)
);
}
);
};
guides = (
{
angle = 165.1125;
pos = (76,104);
showMeasurement = 1;
}
);
layerId = m002;
shapes = (
{
closed = 1;
nodes = (
(265,10,o),
(271,13,o),
(277,26,cs),
(569,637,ls),
(573,645,o),
(582,642,o),
(580,633,cs),
(467,66,ls),
(461,38,o),
(453,32,o),
(424,27,cs),
(400,23,ls),
(390,21,o),
(384,17,o),
(384,10,cs),
(384,4,o),
(388,0,o),
(398,0,cs),
(576,0,ls),
(588,0,o),
(594,5,o),
(594,12,cs),
(594,17,o),
(591,22,o),
(578,24,cs),
(561,27,ls),
(534,32,o),
(530,38,o),
(536,66,cs),
(652,654,ls),
(658,682,o),
(666,688,o),
(695,693,cs),
(719,697,ls),
(730,699,o),
(736,703,o),
(736,710,cs),
(736,716,o),
(732,720,o),
(724,720,cs),
(603,720,ls),
(584,720,o),
(573,712,o),
(565,695,cs),
(323,191,ls),
(319,183,o),
(311,184,o),
(311,193,cs),
(305,690,ls),
(305,711,o),
(295,720,o),
(276,720,cs),
(156,720,ls),
(144,720,o),
(138,716,o),
(138,709,cs),
(138,703,o),
(142,698,o),
(154,696,cs),
(171,693,ls),
(200,688,o),
(205,682,o),
(198,654,cs),
(47,86,ls),
(37,48,o),
(23,30,o),
(-13,25,cs),
(-27,23,ls),
(-36,22,o),
(-43,18,o),
(-43,10,cs),
(-43,4,o),
(-39,0,o),
(-28,0,cs),
(113,0,ls),
(126,0,o),
(132,4,o),
(132,12,cs),
(132,17,o),
(129,22,o),
(120,23,cs),
(108,25,ls),
(76,30,o),
(68,48,o),
(78,86,cs),
(225,637,ls),
(227,645,o),
(236,645,o),
(236,636,cs),
(246,26,ls),
(246,13,o),
(252,10,o),
(259,10,cs)
);
}
);
width = 665;
}
);
unicode = 77;
},
{
glyphname = N;
kernLeft = N;
kernRight = N;
lastChange = "2022-09-01 20:53:33 +0000";
layers = (
{
anchors = (
{
name = bottom;
pos = (212,0);
},
{
name = top;
pos = (378,720);
}
);
background = {
shapes = (
{
closed = 1;
nodes = (
(384,-9,o),
(394,-1,o),
(397,13,cs),
(540,634,ls),
(550,676,o),
(564,690,o),
(600,695,cs),
(614,697,ls),
(623,698,o),
(628,703,o),
(630,709,cs),
(631,716,o),
(627,720,o),
(617,720,cs),
(474,720,ls),
(464,720,o),
(458,716,o),
(457,709,cs),
(455,703,o),
(458,699,o),
(467,697,cs),
(484,694,ls),
(506,690,o),
(519,676,o),
(509,634,cs),
(401,165,l),
(396,165,l),
(266,698,ls),
(262,714,o),
(253,720,o),
(236,720,cs),
(139,720,ls),
(129,720,o),
(123,716,o),
(122,709,cs),
(120,703,o),
(123,699,o),
(132,697,cs),
(154,693,ls),
(183,688,o),
(187,682,o),
(181,654,cs),
(50,86,ls),
(41,48,o),
(26,30,o),
(-10,25,cs),
(-24,23,ls),
(-33,22,o),
(-38,17,o),
(-39,11,cs),
(-41,4,o),
(-37,0,o),
(-27,0,cs),
(116,0,ls),
(126,0,o),
(132,4,o),
(134,11,cs),
(135,17,o),
(132,22,o),
(123,23,cs),
(111,25,ls),
(79,30,o),
(72,48,o),
(81,86,cs),
(203,617,l),
(208,617,l),
(357,7,ls),
(360,-5,o),
(364,-9,o),
(374,-9,cs)
);
}
);
};
layerId = m002;
shapes = (
{
closed = 1;
nodes = (
(384,-9,o),
(394,-1,o),
(397,13,cs),
(540,634,ls),
(550,676,o),
(564,690,o),
(600,695,cs),
(614,697,ls),
(623,698,o),
(628,703,o),
(630,709,cs),
(631,716,o),
(627,720,o),
(617,720,cs),
(474,720,ls),
(464,720,o),
(458,716,o),
(457,709,cs),
(455,703,o),
(458,699,o),
(467,697,cs),
(484,694,ls),
(506,690,o),
(519,676,o),
(509,634,cs),
(404,180,ls),
(402,171,o),
(394,171,o),
(392,180,cs),
(266,698,ls),
(262,714,o),
(253,720,o),
(236,720,cs),
(139,720,ls),
(129,720,o),
(123,716,o),
(122,709,cs),
(120,703,o),
(123,699,o),
(132,697,cs),
(154,693,ls),
(183,688,o),
(187,682,o),
(181,654,cs),
(50,86,ls),
(41,48,o),
(26,30,o),
(-10,25,cs),
(-24,23,ls),
(-33,22,o),
(-38,17,o),
(-39,11,cs),
(-41,4,o),
(-37,0,o),
(-27,0,cs),
(116,0,ls),
(126,0,o),
(132,4,o),
(134,11,cs),
(135,17,o),
(132,22,o),
(123,23,cs),
(111,25,ls),
(79,30,o),
(72,48,o),
(81,86,cs),
(200,603,ls),
(202,610,o),
(209,610,o),
(211,603,cs),
(357,7,ls),
(360,-5,o),
(364,-9,o),
(374,-9,cs)
);
}
);
width = 542;
}
);
unicode = 78;
},
{
glyphname = Eng;
kernLeft = N;
kernRight = N;
lastChange = "2022-08-23 20:12:33 +0000";
layers = (
{
layerId = m002;
shapes = (
{
closed = 1;
nodes = (
(306,-215,o),
(360,-148,o),
(386,-37,cs),
(540,634,ls),
(550,676,o),
(564,690,o),
(600,695,cs),
(614,697,ls),
(623,698,o),
(628,703,o),
(630,709,cs),
(631,716,o),
(627,720,o),
(617,720,cs),
(474,720,ls),
(464,720,o),
(458,716,o),
(457,709,cs),
(455,703,o),
(458,699,o),
(467,697,cs),
(484,694,ls),
(506,690,o),
(519,676,o),
(509,634,cs),
(404,180,ls),
(402,171,o),
(394,171,o),
(392,180,cs),
(266,698,ls),
(262,714,o),
(253,720,o),
(236,720,cs),
(139,720,ls),
(129,720,o),
(123,716,o),
(122,709,cs),
(120,703,o),
(123,699,o),
(132,697,cs),
(154,693,ls),
(183,688,o),
(187,682,o),
(181,654,cs),
(50,86,ls),
(41,48,o),
(26,30,o),
(-10,25,cs),
(-24,23,ls),
(-33,22,o),
(-38,17,o),
(-39,11,cs),
(-41,4,o),
(-37,0,o),
(-27,0,cs),
(116,0,ls),
(126,0,o),
(132,4,o),
(134,11,cs),
(135,17,o),
(132,22,o),
(123,23,cs),
(111,25,ls),
(79,30,o),
(72,48,o),
(81,86,cs),
(200,603,ls),
(202,610,o),
(209,610,o),
(211,603,cs),
(340,75,ls),
(341,69,o),
(341,63,o),
(340,57,cs),
(301,-114,ls),
(286,-178,o),
(274,-188,o),
(260,-188,cs),
(222,-188,o),
(255,-106,o),
(204,-106,cs),
(186,-106,o),
(169,-120,o),
(169,-148,cs),
(169,-186,o),
(194,-215,o),
(241,-215,cs)
);
}
);
width = 542;
}
);
unicode = 330;
},
{
glyphname = O;
kernLeft = O;
kernRight = O;
lastChange = "2022-09-01 19:27:44 +0000";
layers = (
{
anchors = (
{
name = bottom;
pos = (211,0);
},
{
name = center;
pos = (294,360);
},
{
name = ogonek;
pos = (429,10);
},
{
name = top;
pos = (377,720);
},
{
name = topleft;
pos = (127,720);
},
{
name = topright;
pos = (627,720);
}
);
background = {
shapes = (
{
closed = 1;
nodes = (
(336,-9,o),
(475,153,o),
(523,361,cs),
(571,568,o),
(507,730,o),
(379,730,cs),
(250,730,o),
(111,568,o),
(63,361,cs),
(15,153,o),
(79,-9,o),
(208,-9,cs)
);
},
{
closed = 1;
nodes = (
(120,18,o),
(89,130,o),
(142,361,cs),
(195,591,o),
(278,703,o),
(372,703,cs),
(466,703,o),
(497,591,o),
(444,361,cs),
(391,130,o),
(308,18,o),
(214,18,cs)
);
}
);
};
layerId = m002;
shapes = (
{
closed = 1;
nodes = (
(383,-9,o),
(535,232,o),
(535,478,cs),
(535,644,o),
(470,730,o),
(366,730,cs),
(206,730,o),
(54,489,o),
(54,243,cs),
(54,77,o),
(119,-9,o),
(223,-9,cs)
);
},
{
closed = 1;
nodes = (
(155,17,o),
(122,71,o),
(122,177,cs),
(122,437,o),
(245,704,o),
(368,704,cs),
(434,704,o),
(467,650,o),
(467,544,cs),
(467,284,o),
(344,17,o),
(221,17,cs)
);
}
);
width = 540;
}
);
unicode = 79;
},
{
glyphname = Oslash;
kernLeft = O;
kernRight = O;
lastChange = "2022-08-23 19:53:48 +0000";
layers = (
{
background = {
shapes = (
{
closed = 1;
nodes = (
(35,-70,ls),
(40,-70,o),
(44,-68,o),
(47,-62,cs),
(511,708,ls),
(515,715,o),
(512,720,o),
(505,720,cs),
(496,720,ls),
(491,720,o),
(487,718,o),
(484,712,cs),
(20,-58,ls),
(16,-65,o),
(19,-70,o),
(26,-70,cs)
);
}
);
};
layerId = m002;
shapes = (
{
ref = O;
},
{
closed = 1;
nodes = (
(51,-60,ls),
(56,-60,o),
(60,-58,o),
(63,-52,cs),
(557,768,ls),
(561,775,o),
(558,780,o),
(551,780,cs),
(538,780,ls),
(533,780,o),
(529,778,o),
(526,772,cs),
(32,-48,ls),
(28,-55,o),
(31,-60,o),
(38,-60,cs)
);
}
);
width = 540;
}
);
unicode = 216;
},
{
glyphname = OE;
kernLeft = O;
kernRight = E;
lastChange = "2022-08-23 19:53:43 +0000";
layers = (
{
background = {
shapes = (
{
closed = 1;
nodes = (
(631,0,ls),
(646,0,o),
(657,8,o),
(661,23,cs),
(712,201,ls),
(715,212,o),
(710,218,o),
(702,218,cs),
(694,218,o),
(689,213,o),
(686,205,cs),
(662,149,ls),
(618,46,o),
(558,25,o),
(498,25,cs),
(433,25,o),
(416,45,o),
(427,93,cs),
(485,344,ls),
(487,353,o),
(494,358,o),
(503,358,cs),
(553,358,ls),
(583,358,o),
(595,347,o),
(594,301,cs),
(593,252,ls),
(593,244,o),
(597,239,o),
(605,239,cs),
(613,239,o),
(619,245,o),
(622,256,cs),
(674,481,ls),
(677,492,o),
(671,498,o),
(663,498,cs),
(655,498,o),
(650,493,o),
(647,485,cs),
(625,435,ls),
(611,402,o),
(591,388,o),
(561,388,cs),
(510,388,ls),
(501,388,o),
(497,393,o),
(499,402,cs),
(554,643,ls),
(563,681,o),
(583,695,o),
(637,695,cs),
(707,695,o),
(756,664,o),
(747,562,cs),
(744,527,ls),
(743,519,o),
(748,514,o),
(756,514,cs),
(764,514,o),
(770,520,o),
(772,531,cs),
(803,697,ls),
(806,712,o),
(797,720,o),
(782,720,cs),
(448,720,ls),
(437,720,o),
(430,716,o),
(430,708,cs),
(430,703,o),
(433,699,o),
(443,697,cs),
(463,693,ls),
(490,688,o),
(494,682,o),
(488,654,cs),
(352,66,ls),
(346,38,o),
(338,31,o),
(309,27,cs),
(289,24,ls),
(275,22,o),
(269,17,o),
(269,10,cs),
(269,4,o),
(273,0,o),
(283,0,cs)
);
}
);
};
layerId = m002;
shapes = (
{
closed = 1;
nodes = (
(258,-9,o),
(290,0,o),
(335,0,cs),
(631,0,ls),
(646,0,o),
(657,8,o),
(661,23,cs),
(712,201,ls),
(715,212,o),
(709,218,o),
(702,218,cs),
(694,218,o),
(689,213,o),
(686,205,cs),
(661,146,ls),
(621,52,o),
(565,25,o),
(498,25,cs),
(435,25,o),
(416,44,o),
(427,93,cs),
(485,344,ls),
(487,353,o),
(494,358,o),
(503,358,cs),
(552,358,ls),
(582,358,o),
(594,347,o),
(593,301,cs),
(592,252,ls),
(592,245,o),
(597,239,o),
(604,239,cs),
(613,239,o),
(619,246,o),
(621,256,cs),
(673,481,ls),
(676,493,o),
(671,498,o),
(662,498,cs),
(655,498,o),
(650,492,o),
(647,485,cs),
(624,435,ls),
(609,402,o),
(590,388,o),
(560,388,cs),
(510,388,ls),
(500,388,o),
(497,392,o),
(499,402,cs),
(554,643,ls),
(563,681,o),
(583,695,o),
(637,695,cs),
(726,695,o),
(750,645,o),
(746,564,cs),
(744,527,ls),
(744,519,o),
(748,514,o),
(756,514,cs),
(764,514,o),
(770,520,o),
(772,531,cs),
(802,697,ls),
(805,712,o),
(797,720,o),
(782,720,cs),
(501,720,ls),
(456,720,o),
(428,729,o),
(388,729,cs),
(171,729,o),
(52,448,o),
(52,234,cs),
(52,86,o),
(111,-9,o),
(218,-9,cs)
);
},
{
closed = 1;
nodes = (
(155,18,o),
(120,76,o),
(120,174,cs),
(120,346,o),
(192,702,o),
(386,702,cs),
(465,702,o),
(487,662,o),
(474,604,cs),
(362,116,ls),
(347,50,o),
(294,18,o),
(228,18,cs)
);
}
);
width = 759;
}
);
metricLeft = O;
metricRight = E;
unicode = 338;
},
{
glyphname = P;
kernLeft = H;
lastChange = "2022-09-01 20:53:52 +0000";
layers = (
{
background = {
shapes = (
{
closed = 1;
nodes = (
(190,0,ls),
(201,0,o),
(208,4,o),
(208,13,cs),
(208,18,o),
(205,22,o),
(199,23,cs),
(151,29,ls),
(118,33,o),
(109,41,o),
(116,70,cs),
(173,312,ls),
(175,321,o),
(181,326,o),
(190,326,cs),
(262,326,ls),
(405,326,o),
(509,446,o),
(509,572,cs),
(509,662,o),
(450,720,o),
(350,720,cs),
(143,720,ls),
(132,720,o),
(125,716,o),
(125,708,cs),
(125,703,o),
(128,699,o),
(138,697,cs),
(158,693,ls),
(188,687,o),
(188,676,o),
(183,654,cs),
(47,66,ls),
(41,38,o),
(33,31,o),
(4,27,cs),
(-16,24,ls),
(-30,22,o),
(-36,17,o),
(-36,10,cs),
(-36,4,o),
(-32,0,o),
(-22,0,cs)
);
},
{
closed = 1;
nodes = (
(252,655,ls),
(258,683,o),
(280,695,o),
(322,695,cs),
(397,695,o),
(436,655,o),
(436,582,cs),
(436,498,o),
(383,351,o),
(249,351,cs),
(200,351,o),
(187,371,o),
(195,406,cs)
);
}
);
};
layerId = m002;
shapes = (
{
closed = 1;
nodes = (
(190,0,ls),
(201,0,o),
(208,4,o),
(208,13,cs),
(208,18,o),
(205,22,o),
(199,23,cs),
(151,29,ls),
(118,33,o),
(109,41,o),
(116,70,cs),
(172,309,ls),
(175,320,o),
(181,326,o),
(193,326,cs),
(252,326,ls),
(405,326,o),
(509,436,o),
(509,562,cs),
(509,652,o),
(448,720,o),
(338,720,cs),
(143,720,ls),
(132,720,o),
(125,716,o),
(125,708,cs),
(125,703,o),
(128,699,o),
(138,697,cs),
(158,693,ls),
(188,687,o),
(188,676,o),
(183,654,cs),
(47,66,ls),
(41,38,o),
(33,31,o),
(4,27,cs),
(-16,24,ls),
(-30,22,o),
(-36,17,o),
(-36,10,cs),
(-36,4,o),
(-32,0,o),
(-22,0,cs)
);
},
{
closed = 1;
nodes = (
(252,655,ls),
(258,683,o),
(280,695,o),
(322,695,cs),
(397,695,o),
(436,645,o),
(436,572,cs),
(436,478,o),
(383,351,o),
(249,351,cs),
(200,351,o),
(187,371,o),
(195,406,cs)
);
}
);
width = 469;
}
);
unicode = 80;
},
{
glyphname = Thorn;
kernLeft = H;
lastChange = "2022-08-23 19:53:56 +0000";
layers = (
{
background = {
shapes = (
{
closed = 1;
nodes = (
(180,0,ls),
(190,0,o),
(196,4,o),
(198,11,cs),
(199,17,o),
(196,21,o),
(187,23,cs),
(144,31,ls),
(117,36,o),
(113,43,o),
(119,71,cs),
(142,171,ls),
(145,180,o),
(151,185,o),
(160,185,cs),
(232,185,ls),
(347,185,o),
(446,265,o),
(472,379,cs),
(500,497,o),
(438,579,o),
(320,579,cs),
(251,579,ls),
(242,579,o),
(238,584,o),
(240,593,cs),
(253,649,ls),
(259,677,o),
(267,684,o),
(296,689,cs),
(343,697,ls),
(352,699,o),
(357,703,o),
(359,709,cs),
(360,716,o),
(356,720,o),
(346,720,cs),
(143,720,ls),
(133,720,o),
(127,716,o),
(126,709,cs),
(124,703,o),
(127,699,o),
(136,697,cs),
(158,693,ls),
(185,688,o),
(189,682,o),
(183,654,cs),
(47,66,ls),
(41,38,o),
(33,32,o),
(4,27,cs),
(-20,23,ls),
(-29,21,o),
(-34,17,o),
(-35,11,cs),
(-37,4,o),
(-33,0,o),
(-23,0,cs)
);
},
{
closed = 1;
nodes = (
(172,210,o),
(155,227,o),
(164,265,cs),
(222,514,ls),
(228,542,o),
(250,554,o),
(292,554,cs),
(385,554,o),
(423,491,o),
(398,382,cs),
(373,275,o),
(305,210,o),
(218,210,cs)
);
}
);
};
layerId = m002;
shapes = (
{
closed = 1;
nodes = (
(180,0,ls),
(191,0,o),
(198,4,o),
(198,12,cs),
(198,17,o),
(195,21,o),
(185,23,cs),
(141,31,ls),
(114,36,o),
(111,43,o),
(116,66,cs),
(140,168,ls),
(143,179,o),
(149,185,o),
(161,185,cs),
(220,185,ls),
(373,185,o),
(477,295,o),
(477,421,cs),
(477,511,o),
(416,579,o),
(306,579,cs),
(251,579,ls),
(242,579,o),
(236,585,o),
(238,594,cs),
(252,654,ls),
(257,677,o),
(266,686,o),
(295,690,cs),
(339,696,ls),
(353,698,o),
(359,703,o),
(359,710,cs),
(359,716,o),
(355,720,o),
(345,720,cs),
(143,720,ls),
(132,720,o),
(125,716,o),
(125,708,cs),
(125,703,o),
(128,699,o),
(138,697,cs),
(158,693,ls),
(185,688,o),
(189,682,o),
(183,654,cs),
(47,66,ls),
(41,38,o),
(33,31,o),
(4,27,cs),
(-16,24,ls),
(-30,22,o),
(-36,17,o),
(-36,10,cs),
(-36,4,o),
(-32,0,o),
(-22,0,cs)
);
},
{
closed = 1;
nodes = (
(168,210,o),
(155,230,o),
(163,265,cs),
(220,514,ls),
(226,542,o),
(248,554,o),
(290,554,cs),
(365,554,o),
(404,504,o),
(404,431,cs),
(404,337,o),
(351,210,o),
(217,210,cs)
);
}
);
width = 469;
}
);
unicode = 222;
},
{
glyphname = Q;
kernLeft = O;
kernRight = O;
lastChange = "2022-09-01 19:45:32 +0000";
layers = (
{
background = {
shapes = (
{
closed = 1;
nodes = (
(383,-9,o),
(535,232,o),
(535,478,cs),
(535,644,o),
(470,730,o),
(366,730,cs),
(206,730,o),
(54,489,o),
(54,243,cs),
(54,77,o),
(119,-9,o),
(223,-9,cs)
);
},
{
closed = 1;
nodes = (
(155,17,o),
(122,71,o),
(122,177,cs),
(122,437,o),
(245,704,o),
(368,704,cs),
(434,704,o),
(467,650,o),
(467,544,cs),
(467,284,o),
(344,17,o),
(221,17,cs)
);
},
{
closed = 1;
nodes = (
(342,-215,o),
(400,-153,o),
(419,-58,cs),
(421,-47,o),
(417,-40,o),
(409,-40,cs),
(403,-40,o),
(398,-44,o),
(395,-53,cs),
(374,-121,o),
(345,-143,o),
(306,-143,cs),
(239,-143,o),
(195,-61,o),
(112,-61,c),
(125,-69,l),
(301,15,l),
(272,29,l),
(50,-70,l),
(-8,-85,o),
(-32,-108,o),
(-32,-131,cs),
(-32,-146,o),
(-22,-154,o),
(-8,-154,c),
(37,-154,o),
(56,-88,o),
(102,-88,cs),
(154,-88,o),
(161,-215,o),
(270,-215,cs)
);
}
);
};
layerId = m002;
shapes = (
{
closed = 1;
nodes = (
(342,-215,o),
(400,-153,o),
(419,-58,cs),
(421,-47,o),
(417,-40,o),
(409,-40,cs),
(403,-40,o),
(398,-44,o),
(395,-53,cs),
(374,-121,o),
(345,-143,o),
(306,-143,cs),
(254,-143,o),
(216,-94,o),
(163,-71,cs),
(150,-66,o),
(149,-57,o),
(161,-51,cs),
(221,-23,ls),
(250,-9,o),
(270,-4,o),
(298,9,cs),
(428,69,o),
(535,272,o),
(535,478,cs),
(535,644,o),
(470,730,o),
(366,730,cs),
(206,730,o),
(54,489,o),
(54,243,cs),
(54,110,o),
(96,28,o),
(166,1,cs),
(179,-4,o),
(180,-12,o),
(167,-18,cs),
(50,-70,l),
(-8,-85,o),
(-32,-108,o),
(-32,-131,cs),
(-32,-146,o),
(-22,-154,o),
(-8,-154,cs),
(37,-154,o),
(56,-88,o),
(102,-88,cs),
(154,-88,o),
(161,-215,o),
(270,-215,cs)
);
},
{
closed = 1;
nodes = (
(155,17,o),
(122,71,o),
(122,177,cs),
(122,437,o),
(245,704,o),
(368,704,cs),
(434,704,o),
(467,650,o),
(467,544,cs),
(467,284,o),
(344,17,o),
(221,17,cs)
);
}
);
width = 541;
}
);
unicode = 81;
},
{
glyphname = R;
kernLeft = H;
kernRight = R;
lastChange = "2022-09-01 20:17:03 +0000";
layers = (
{
anchors = (
{
name = bottom;
pos = (224,0);
},
{
name = top;
pos = (360,720);
}
);
background = {
shapes = (
{
closed = 1;
nodes = (
(190,0,ls),
(200,0,o),
(206,4,o),
(206,12,cs),
(206,18,o),
(202,22,o),
(192,23,cs),
(148,29,ls),
(114,34,o),
(109,42,o),
(116,70,cs),
(174,313,ls),
(179,335,o),
(192,346,o),
(221,346,cs),
(273,346,ls),
(383,346,o),
(522,436,o),
(522,566,cs),
(522,650,o),
(464,720,o),
(346,720,cs),
(143,720,ls),
(132,720,o),
(125,716,o),
(125,708,cs),
(125,703,o),
(128,699,o),
(138,697,cs),
(158,693,ls),
(185,688,o),
(189,682,o),
(183,654,cs),
(47,66,ls),
(41,38,o),
(33,31,o),
(4,27,cs),
(-16,24,ls),
(-30,22,o),
(-36,17,o),
(-36,10,cs),
(-36,4,o),
(-32,0,o),
(-22,0,cs)
);
},
{
closed = 1;
nodes = (
(210,371,o),
(190,388,o),
(199,426,cs),
(252,655,ls),
(259,683,o),
(282,695,o),
(326,695,cs),
(417,695,o),
(449,648,o),
(449,574,cs),
(449,460,o),
(356,371,o),
(256,371,cs)
);
},
{
closed = 1;
nodes = (
(442,-9,o),
(474,15,o),
(474,34,cs),
(474,45,o),
(464,50,o),
(453,41,cs),
(440,31,o),
(433,29,o),
(423,29,cs),
(395,29,o),
(378,52,o),
(378,125,cs),
(378,227,ls),
(378,296,o),
(362,330,o),
(317,346,c),
(318,352,l),
(221,346,l),
(295,346,o),
(310,323,o),
(309,216,cs),
(308,105,ls),
(307,33,o),
(346,-9,o),
(402,-9,cs)
);
}
);
};
layerId = m002;
shapes = (
{
closed = 1;
nodes = (
(442,-9,o),
(474,15,o),
(474,34,cs),
(474,45,o),
(464,50,o),
(453,41,cs),
(440,31,o),
(433,29,o),
(423,29,cs),
(395,29,o),
(378,52,o),
(378,125,cs),
(378,227,ls),
(378,287,o),
(367,321,o),
(330,341,cs),
(322,345,o),
(323,352,o),
(331,354,cs),
(430,381,o),
(522,460,o),
(522,566,cs),
(522,650,o),
(464,720,o),
(346,720,cs),
(143,720,ls),
(132,720,o),
(125,716,o),
(125,708,cs),
(125,703,o),
(128,699,o),
(138,697,cs),
(158,693,ls),
(185,688,o),
(189,682,o),
(183,654,cs),
(47,66,ls),
(41,38,o),
(33,31,o),
(4,27,cs),
(-16,24,ls),
(-30,22,o),
(-36,17,o),
(-36,10,cs),
(-36,4,o),
(-32,0,o),
(-22,0,cs),
(190,0,ls),
(200,0,o),
(206,4,o),
(206,12,cs),
(206,18,o),
(202,22,o),
(192,23,cs),
(148,29,ls),
(114,34,o),
(109,42,o),
(116,70,cs),
(174,313,ls),
(179,335,o),
(192,346,o),
(221,346,cs),
(295,346,o),
(310,323,o),
(309,216,cs),
(308,105,ls),
(307,33,o),
(346,-9,o),
(402,-9,cs)
);
},
{
closed = 1;
nodes = (
(210,371,o),
(190,388,o),
(199,426,cs),
(252,655,ls),
(259,683,o),
(282,695,o),
(326,695,cs),
(417,695,o),
(449,648,o),
(449,574,cs),
(449,460,o),
(356,371,o),
(256,371,cs)
);
}
);
width = 525;
}
);
unicode = 82;
},
{
glyphname = S;
kernLeft = S;
kernRight = S;
lastChange = "2022-09-01 20:17:08 +0000";
layers = (
{
anchors = (
{
name = bottom;
pos = (163,0);
},
{
name = top;
pos = (309,720);
}
);
background = {
shapes = (
{
closed = 1;
nodes = (
(288,-9,o),
(374,75,o),
(374,193,cs),
(374,258,o),
(336,327,o),
(272,403,cs),
(203,486,o),
(183,527,o),
(183,586,cs),
(183,637,o),
(213,701,o),
(293,701,cs),
(366,701,o),
(390,643,o),
(390,542,cs),
(390,514,ls),
(390,503,o),
(395,497,o),
(403,497,cs),
(410,497,o),
(415,503,o),
(417,512,cs),
(445,658,ls),
(448,673,o),
(445,683,o),
(435,691,cs),
(403,718,o),
(361,730,o),
(302,730,cs),
(177,730,o),
(118,642,o),
(118,561,cs),
(118,492,o),
(150,434,o),
(218,358,cs),
(275,294,o),
(309,229,o),
(309,170,cs),
(309,79,o),
(254,21,o),
(179,21,cs),
(97,21,o),
(61,71,o),
(61,179,cs),
(61,218,ls),
(61,232,o),
(57,238,o),
(49,238,cs),
(41,238,o),
(35,232,o),
(33,220,cs),
(5,63,ls),
(2,49,o),
(4,44,o),
(11,38,cs),
(43,10,o),
(116,-9,o),
(173,-9,cs)
);
}
);
};
layerId = m002;
shapes = (
{
closed = 1;
nodes = (
(288,-9,o),
(374,75,o),
(374,193,cs),
(374,258,o),
(336,327,o),
(272,403,cs),
(203,486,o),
(183,527,o),
(183,586,cs),
(183,637,o),
(213,701,o),
(293,701,cs),
(366,701,o),
(384,643,o),
(389,535,cs),
(390,514,ls),
(391,503,o),
(395,497,o),
(403,497,cs),
(410,497,o),
(415,503,o),
(417,512,cs),
(445,658,ls),
(448,673,o),
(445,683,o),
(435,691,cs),
(403,718,o),
(361,730,o),
(302,730,cs),
(177,730,o),
(118,642,o),
(118,561,cs),
(118,492,o),
(150,434,o),
(218,358,cs),
(275,294,o),
(309,229,o),
(309,170,cs),
(309,79,o),
(254,21,o),
(179,21,cs),
(97,21,o),
(65,67,o),
(62,179,cs),
(61,218,ls),
(61,232,o),
(57,238,o),
(49,238,cs),
(41,238,o),
(35,232,o),
(33,220,cs),
(5,63,ls),
(2,49,o),
(4,44,o),
(11,38,cs),
(43,10,o),
(116,-9,o),
(173,-9,cs)
);
}
);
width = 424;
}
);
unicode = 83;
},
{
glyphname = Germandbls;
lastChange = "2022-08-18 20:20:07 +0000";
layers = (
{
background = {
shapes = (
{
ref = H;
}
);
};
guides = (
{
angle = 258.4797;
pos = (181,142);
}
);
layerId = m002;
shapes = (
{
closed = 1;
nodes = (
(413,-9,o),
(484,75,o),
(484,173,cs),
(484,265,o),
(440,338,o),
(367,421,c),
(359,381,l),
(575,597,l),
(537,688,o),
(479,730,o),
(390,730,cs),
(252,730,o),
(179,633,o),
(147,495,cs),
(47,66,ls),
(40,38,o),
(33,31,o),
(4,27,cs),
(-16,24,ls),
(-30,22,o),
(-36,17,o),
(-36,10,cs),
(-36,4,o),
(-32,0,o),
(-22,0,cs),
(82,0,ls),
(96,0,o),
(102,4,o),
(105,18,cs),
(219,511,ls),
(250,645,o),
(308,701,o),
(384,701,cs),
(454,701,o),
(497,644,o),
(510,560,c),
(534,599,l),
(312,377,l),
(328,358,ls),
(383,293,o),
(419,229,o),
(419,150,cs),
(419,79,o),
(379,21,o),
(314,21,cs),
(252,21,o),
(230,67,o),
(224,149,cs),
(221,188,ls),
(220,202,o),
(216,208,o),
(208,208,cs),
(200,208,o),
(193,202,o),
(191,190,cs),
(165,63,ls),
(162,49,o),
(164,44,o),
(171,38,cs),
(203,10,o),
(251,-9,o),
(308,-9,cs)
);
}
);
width = 538;
}
);
metricLeft = H;
metricRight = S;
unicode = 7838;
},
{
glyphname = T;
kernLeft = T;
kernRight = T;
lastChange = "2022-09-01 21:02:25 +0000";
layers = (
{
anchors = (
{
name = bottom;
pos = (172,0);
},
{
name = center;
pos = (255,360);
},
{
name = top;
pos = (338,720);
}
);
background = {
shapes = (
{
closed = 1;
nodes = (
(291,0,ls),
(301,0,o),
(307,4,o),
(307,12,cs),
(307,17,o),
(304,22,o),
(296,23,cs),
(249,30,ls),
(224,34,o),
(215,41,o),
(222,69,cs),
(361,669,ls),
(365,688,o),
(373,695,o),
(398,695,cs),
(458,695,o),
(498,674,o),
(490,582,cs),
(485,527,ls),
(484,519,o),
(488,514,o),
(496,514,cs),
(504,514,o),
(511,520,o),
(513,531,cs),
(545,712,ls),
(548,727,o),
(544,735,o),
(533,735,cs),
(520,735,o),
(513,720,o),
(449,720,cs),
(226,720,ls),
(162,720,o),
(166,735,o),
(148,735,cs),
(138,735,o),
(130,727,o),
(126,712,cs),
(76,531,ls),
(73,520,o),
(77,514,o),
(85,514,cs),
(93,514,o),
(99,519,o),
(102,527,cs),
(125,582,ls),
(161,669,o),
(215,695,o),
(265,695,cs),
(290,695,o),
(296,688,o),
(292,669,cs),
(153,69,ls),
(147,41,o),
(136,34,o),
(109,30,cs),
(67,23,ls),
(57,21,o),
(51,17,o),
(51,10,cs),
(51,4,o),
(55,0,o),
(65,0,cs)
);
}
);
};
layerId = m002;
shapes = (
{
closed = 1;
nodes = (
(291,0,ls),
(301,0,o),
(307,4,o),
(307,12,cs),
(307,17,o),
(304,22,o),
(296,23,cs),
(249,30,ls),
(224,34,o),
(215,41,o),
(222,69,cs),
(361,669,ls),
(365,688,o),
(373,695,o),
(398,695,cs),
(458,695,o),
(495,650,o),
(487,552,cs),
(485,527,ls),
(484,519,o),
(488,514,o),
(496,514,cs),
(504,514,o),
(511,520,o),
(513,531,cs),
(545,712,ls),
(548,727,o),
(544,735,o),
(533,735,cs),
(520,735,o),
(513,720,o),
(449,720,cs),
(226,720,ls),
(162,720,o),
(166,735,o),
(148,735,cs),
(138,735,o),
(130,727,o),
(126,712,cs),
(76,531,ls),
(73,520,o),
(77,514,o),
(85,514,cs),
(93,514,o),
(99,519,o),
(102,527,cs),
(118,565,ls),
(160,665,o),
(220,695,o),
(265,695,cs),
(290,695,o),
(296,688,o),
(292,669,cs),
(153,69,ls),
(147,41,o),
(136,34,o),
(109,30,cs),
(67,23,ls),
(57,21,o),
(51,17,o),
(51,10,cs),
(51,4,o),
(55,0,o),
(65,0,cs)
);
}
);
width = 461;
}
);
unicode = 84;
},
{
glyphname = U;
kernLeft = U;
kernRight = U;
lastChange = "2022-09-01 20:54:19 +0000";
layers = (
{
anchors = (
{
name = bottom;
pos = (210,0);
},
{
name = ogonek;
pos = (286,0);
},
{
name = top;
pos = (396,720);
},
{
name = topright;
pos = (624,720);
}
);
background = {
shapes = (
{
closed = 1;
nodes = (
(323,-9,o),
(412,71,o),
(440,192,cs),
(542,634,ls),
(551,671,o),
(565,689,o),
(590,693,cs),
(614,697,ls),
(623,699,o),
(628,702,o),
(630,709,cs),
(631,716,o),
(627,720,o),
(617,720,cs),
(473,720,ls),
(463,720,o),
(457,716,o),
(455,708,cs),
(454,702,o),
(457,698,o),
(464,697,cs),
(490,693,ls),
(513,689,o),
(519,671,o),
(510,633,cs),
(408,191,ls),
(385,90,o),
(323,31,o),
(241,31,cs),
(160,31,o),
(126,89,o),
(149,191,cs),
(256,653,ls),
(262,681,o),
(271,689,o),
(299,693,cs),
(327,697,ls),
(334,698,o),
(339,702,o),
(340,708,cs),
(342,716,o),
(338,720,o),
(328,720,cs),
(145,720,ls),
(134,720,o),
(127,716,o),
(127,708,cs),
(127,703,o),
(130,699,o),
(140,697,cs),
(160,693,ls),
(187,688,o),
(191,682,o),
(185,654,cs),
(78,192,ls),
(51,73,o),
(107,-9,o),
(215,-9,cs)
);
}
);
};
layerId = m002;
shapes = (
{
closed = 1;
nodes = (
(337,-9,o),
(412,71,o),
(440,192,cs),
(542,634,ls),
(551,671,o),
(565,689,o),
(590,693,cs),
(614,697,ls),
(625,699,o),
(630,702,o),
(630,710,cs),
(630,716,o),
(625,720,o),
(617,720,cs),
(473,720,ls),
(463,720,o),
(454,716,o),
(454,708,cs),
(454,701,o),
(459,697,o),
(468,696,cs),
(490,693,ls),
(513,690,o),
(519,671,o),
(510,633,cs),
(408,191,ls),
(385,90,o),
(333,31,o),
(246,31,cs),
(166,31,o),
(123,89,o),
(147,191,cs),
(254,653,ls),
(261,681,o),
(269,689,o),
(297,693,cs),
(325,697,ls),
(333,698,o),
(339,703,o),
(339,710,cs),
(339,716,o),
(335,720,o),
(325,720,cs),
(145,720,ls),
(134,720,o),
(127,716,o),
(127,708,cs),
(127,703,o),
(130,699,o),
(140,697,cs),
(160,693,ls),
(187,688,o),
(191,682,o),
(185,654,cs),
(78,192,ls),
(50,73,o),
(117,-9,o),
(225,-9,cs)
);
}
);
width = 537;
}
);
unicode = 85;
},
{
glyphname = V;
lastChange = "2022-09-01 20:54:24 +0000";
layers = (
{
background = {
shapes = (
{
closed = 1;
nodes = (
(173,-10,o),
(181,-7,o),
(187,6,cs),
(486,631,ls),
(504,668,o),
(521,689,o),
(548,694,cs),
(564,697,ls),
(573,699,o),
(580,702,o),
(580,710,cs),
(580,716,o),
(576,720,o),
(568,720,cs),
(423,720,ls),
(412,720,o),
(406,715,o),
(406,709,cs),
(406,703,o),
(409,699,o),
(421,697,cs),
(435,695,ls),
(465,691,o),
(471,669,o),
(453,632,cs),
(223,152,l),
(218,152,l),
(213,653,ls),
(213,682,o),
(220,693,o),
(243,695,cs),
(263,697,ls),
(275,698,o),
(283,702,o),
(283,710,cs),
(283,716,o),
(279,720,o),
(270,720,cs),
(105,720,ls),
(94,720,o),
(88,716,o),
(88,709,cs),
(88,703,o),
(92,699,o),
(100,697,cs),
(113,694,ls),
(138,688,o),
(144,677,o),
(145,640,cs),
(156,6,ls),
(156,-7,o),
(162,-10,o),
(168,-10,cs)
);
}
);
};
layerId = m002;
shapes = (
{
closed = 1;
nodes = (
(173,-10,o),
(181,-7,o),
(187,6,cs),
(486,631,ls),
(504,668,o),
(521,689,o),
(548,694,cs),
(564,697,ls),
(573,699,o),
(580,702,o),
(580,710,cs),
(580,716,o),
(576,720,o),
(568,720,cs),
(423,720,ls),
(412,720,o),
(406,715,o),
(406,709,cs),
(406,703,o),
(409,699,o),
(421,697,cs),
(435,695,ls),
(465,691,o),
(471,669,o),
(453,632,cs),
(234,176,ls),
(229,165,o),
(218,167,o),
(218,180,cs),
(213,653,ls),
(213,682,o),
(220,693,o),
(243,695,cs),
(263,697,ls),
(275,698,o),
(283,702,o),
(283,710,cs),
(283,716,o),
(279,720,o),
(270,720,cs),
(105,720,ls),
(94,720,o),
(88,716,o),
(88,709,cs),
(88,703,o),
(92,699,o),
(100,697,cs),
(113,694,ls),
(138,688,o),
(144,677,o),
(145,640,cs),
(156,6,ls),
(156,-7,o),
(162,-10,o),
(168,-10,cs)
);
}
);
width = 458;
}
);
unicode = 86;
},
{
glyphname = W;
kernLeft = W;
kernRight = W;
lastChange = "2022-09-01 20:54:28 +0000";
layers = (
{
anchors = (
{
name = bottom;
pos = (268,0);
},
{
name = top;
pos = (444,720);
}
);
background = {
shapes = (
{
closed = 1;
nodes = (
(377,-10,o),
(383,-7,o),
(389,6,cs),
(689,631,ls),
(715,685,o),
(725,694,o),
(744,696,cs),
(755,697,ls),
(769,698,o),
(775,702,o),
(775,709,cs),
(775,716,o),
(770,720,o),
(761,720,cs),
(648,720,ls),
(637,720,o),
(631,716,o),
(631,709,cs),
(631,703,o),
(635,699,o),
(644,697,cs),
(654,695,ls),
(677,690,o),
(676,670,o),
(658,632,cs),
(430,157,l),
(423,157,l),
(418,653,ls),
(418,682,o),
(423,692,o),
(440,695,cs),
(452,697,ls),
(464,699,o),
(470,703,o),
(470,710,cs),
(470,716,o),
(466,720,o),
(457,720,cs),
(323,720,ls),
(311,720,o),
(305,715,o),
(305,708,cs),
(305,702,o),
(309,699,o),
(318,697,cs),
(331,694,ls),
(346,691,o),
(349,677,o),
(350,640,cs),
(361,6,ls),
(361,-7,o),
(366,-10,o),
(372,-10,cs)
);
},
{
closed = 1;
nodes = (
(394,477,l),
(223,151,l),
(218,151,l),
(212,653,ls),
(212,682,o),
(225,691,o),
(248,695,cs),
(260,697,ls),
(270,699,o),
(278,703,o),
(278,710,cs),
(278,716,o),
(274,720,o),
(265,720,cs),
(105,720,ls),
(96,720,o),
(88,717,o),
(88,709,cs),
(88,703,o),
(92,699,o),
(100,697,cs),
(113,694,ls),
(138,688,o),
(144,677,o),
(145,640,cs),
(156,6,ls),
(156,-7,o),
(162,-10,o),
(168,-10,cs),
(173,-10,o),
(178,-7,o),
(185,6,cs),
(402,432,l)
);
},
{
closed = 1;
nodes = (
(404,395,l),
(527,631,ls),
(550,676,o),
(563,694,o),
(582,696,cs),
(593,697,ls),
(606,698,o),
(613,702,o),
(613,710,cs),
(613,716,o),
(609,720,o),
(597,720,cs),
(503,720,ls),
(492,720,o),
(486,716,o),
(486,709,cs),
(486,703,o),
(490,699,o),
(499,697,cs),
(509,695,ls),
(521,693,o),
(524,682,o),
(498,632,cs),
(397,440,l)
);
}
);
};
layerId = m002;
shapes = (
{
closed = 1;
nodes = (
(377,-10,o),
(383,-7,o),
(389,6,cs),
(689,631,ls),
(715,685,o),
(725,694,o),
(744,696,cs),
(755,697,ls),
(769,698,o),
(775,702,o),
(775,709,cs),
(775,716,o),
(770,720,o),
(761,720,cs),
(648,720,ls),
(637,720,o),
(631,716,o),
(631,709,cs),
(631,703,o),
(635,699,o),
(644,697,cs),
(654,695,ls),
(677,690,o),
(676,670,o),
(658,632,cs),
(439,176,ls),
(434,165,o),
(423,166,o),
(423,178,cs),
(421,344,ls),
(420,404,o),
(431,445,o),
(458,498,cs),
(527,631,ls),
(550,676,o),
(563,694,o),
(582,696,cs),
(593,697,ls),
(606,698,o),
(613,702,o),
(613,710,cs),
(613,716,o),
(609,720,o),
(597,720,cs),
(503,720,ls),
(492,720,o),
(486,716,o),
(486,709,cs),
(486,703,o),
(490,699,o),
(499,697,cs),
(509,695,ls),
(521,693,o),
(524,682,o),
(498,632,cs),
(436,514,ls),
(430,502,o),
(420,504,o),
(420,518,cs),
(418,653,ls),
(418,682,o),
(423,692,o),
(440,695,cs),
(452,697,ls),
(464,699,o),
(470,703,o),
(470,710,cs),
(470,716,o),
(466,720,o),
(457,720,cs),
(323,720,ls),
(311,720,o),
(305,715,o),
(305,708,cs),
(305,702,o),
(309,699,o),
(318,697,cs),
(331,694,ls),
(346,691,o),
(349,677,o),
(350,640,cs),
(353,483,ls),
(354,423,o),
(343,381,o),
(316,329,cs),
(234,172,ls),
(228,160,o),
(218,162,o),
(218,174,cs),
(212,653,ls),
(212,682,o),
(225,691,o),
(248,695,cs),
(260,697,ls),
(270,699,o),
(278,703,o),
(278,710,cs),
(278,716,o),
(274,720,o),
(265,720,cs),
(105,720,ls),
(96,720,o),
(88,717,o),
(88,709,cs),
(88,703,o),
(92,699,o),
(100,697,cs),
(113,694,ls),
(138,688,o),
(144,677,o),
(145,640,cs),
(156,6,ls),
(156,-7,o),
(162,-10,o),
(168,-10,cs),
(173,-10,o),
(178,-7,o),
(185,6,cs),
(339,308,ls),
(346,321,o),
(356,318,o),
(356,304,cs),
(361,6,ls),
(361,-7,o),
(366,-10,o),
(372,-10,cs)
);
}
);
width = 653;
}
);
unicode = 87;
},
{
glyphname = X;
lastChange = "2022-09-01 20:54:34 +0000";
layers = (
{
background = {
shapes = (
{
closed = 1;
nodes = (
(450,0,ls),
(463,0,o),
(470,4,o),
(470,12,cs),
(470,18,o),
(466,23,o),
(457,24,cs),
(438,27,ls),
(423,29,o),
(408,35,o),
(401,67,cs),
(274,653,ls),
(268,679,o),
(280,690,o),
(304,694,cs),
(324,697,ls),
(335,699,o),
(342,703,o),
(344,710,cs),
(345,716,o),
(340,720,o),
(328,720,cs),
(155,720,ls),
(144,720,o),
(137,716,o),
(136,710,cs),
(134,703,o),
(138,699,o),
(149,697,cs),
(167,694,ls),
(184,691,o),
(198,683,o),
(204,653,cs),
(331,67,ls),
(336,42,o),
(323,31,o),
(299,27,cs),
(279,24,ls),
(266,22,o),
(260,18,o),
(260,11,cs),
(260,5,o),
(265,0,o),
(275,0,cs)
);
},
{
closed = 1;
nodes = (
(146,0,ls),
(159,0,o),
(165,5,o),
(165,12,cs),
(165,18,o),
(161,22,o),
(152,24,cs),
(125,30,ls),
(101,35,o),
(103,47,o),
(122,77,cs),
(273,312,l),
(292,312,l),
(261,392,l),
(267,361,o),
(262,347,o),
(250,329,cs),
(95,91,ls),
(69,51,o),
(43,36,o),
(-2,28,cs),
(-18,25,ls),
(-30,23,o),
(-36,18,o),
(-36,11,cs),
(-36,6,o),
(-33,0,o),
(-21,0,cs)
);
},
{
closed = 1;
nodes = (
(334,375,o),
(339,389,o),
(351,407,cs),
(497,629,ls),
(523,669,o),
(549,685,o),
(584,692,cs),
(600,695,ls),
(612,697,o),
(617,702,o),
(618,708,cs),
(620,714,o),
(617,720,o),
(603,720,cs),
(448,720,ls),
(435,720,o),
(429,716,o),
(428,710,cs),
(426,703,o),
(430,699,o),
(442,696,cs),
(468,690,ls),
(492,684,o),
(490,672,o),
(471,643,cs),
(328,424,l),
(309,424,l),
(341,344,l)
);
}
);
};
layerId = m002;
shapes = (
{
closed = 1;
nodes = (
(146,0,ls),
(159,0,o),
(165,5,o),
(165,12,cs),
(165,18,o),
(161,22,o),
(152,24,cs),
(125,30,ls),
(101,35,o),
(103,47,o),
(122,77,cs),
(267,303,ls),
(272,310,o),
(278,309,o),
(280,301,cs),
(331,67,ls),
(336,42,o),
(323,31,o),
(299,27,cs),
(279,24,ls),
(266,22,o),
(260,18,o),
(260,11,cs),
(260,5,o),
(265,0,o),
(275,0,cs),
(450,0,ls),
(463,0,o),
(470,4,o),
(470,12,cs),
(470,18,o),
(466,23,o),
(457,24,cs),
(438,27,ls),
(423,29,o),
(408,35,o),
(401,67,cs),
(341,344,ls),
(334,375,o),
(339,389,o),
(351,407,cs),
(497,629,ls),
(523,669,o),
(549,685,o),
(584,692,cs),
(600,695,ls),
(612,697,o),
(617,702,o),
(618,708,cs),
(620,714,o),
(617,720,o),
(603,720,cs),
(448,720,ls),
(435,720,o),
(429,716,o),
(428,710,cs),
(426,703,o),
(430,699,o),
(442,696,cs),
(468,690,ls),
(492,684,o),
(490,672,o),
(471,643,cs),
(334,434,ls),
(329,427,o),
(323,429,o),
(322,435,cs),
(274,653,ls),
(268,679,o),
(280,690,o),
(304,694,cs),
(324,697,ls),
(335,699,o),
(342,703,o),
(344,710,cs),
(345,716,o),
(340,720,o),
(328,720,cs),
(155,720,ls),
(144,720,o),
(137,716,o),
(136,710,cs),
(134,703,o),
(138,699,o),
(149,697,cs),
(167,694,ls),
(184,691,o),
(198,683,o),
(204,653,cs),
(262,383,ls),
(267,358,o),
(261,345,o),
(250,329,cs),
(95,91,ls),
(69,51,o),
(43,36,o),
(-2,28,cs),
(-18,25,ls),
(-30,23,o),
(-36,18,o),
(-36,11,cs),
(-36,6,o),
(-33,0,o),
(-21,0,cs)
);
}
);
width = 545;
}
);
unicode = 88;
},
{
glyphname = Y;
kernLeft = Y;
kernRight = Y;
lastChange = "2022-09-01 21:02:35 +0000";
layers = (
{
anchors = (
{
name = bottom;
pos = (180,0);
},
{
name = top;
pos = (356,720);
},
{
name = topleft;
pos = (127,720);
}
);
background = {
shapes = (
{
closed = 1;
nodes = (
(294,0,ls),
(306,0,o),
(312,5,o),
(312,12,cs),
(312,18,o),
(308,21,o),
(297,23,cs),
(258,30,ls),
(233,35,o),
(226,41,o),
(232,69,cs),
(288,313,ls),
(293,334,o),
(301,349,o),
(315,368,cs),
(507,631,ls),
(539,675,o),
(554,692,o),
(573,695,cs),
(584,697,ls),
(595,699,o),
(601,704,o),
(601,711,cs),
(601,717,o),
(596,720,o),
(587,720,cs),
(443,720,ls),
(433,720,o),
(427,716,o),
(427,709,cs),
(427,703,o),
(432,698,o),
(441,697,cs),
(462,694,ls),
(492,690,o),
(496,666,o),
(471,632,cs),
(286,376,l),
(279,376,l),
(213,653,ls),
(206,681,o),
(220,693,o),
(243,695,cs),
(263,697,ls),
(277,698,o),
(283,703,o),
(283,710,cs),
(283,716,o),
(279,720,o),
(270,720,cs),
(105,720,ls),
(95,720,o),
(87,717,o),
(87,709,cs),
(87,703,o),
(91,699,o),
(99,697,cs),
(107,695,ls),
(128,690,o),
(135,678,o),
(140,656,cs),
(216,348,ls),
(220,333,o),
(221,321,o),
(217,305,cs),
(163,69,ls),
(157,41,o),
(146,34,o),
(119,30,cs),
(72,23,ls),
(63,22,o),
(57,17,o),
(57,10,cs),
(57,4,o),
(61,0,o),
(71,0,cs)
);
}
);
};
layerId = m002;
shapes = (
{
closed = 1;
nodes = (
(294,0,ls),
(306,0,o),
(312,5,o),
(312,12,cs),
(312,18,o),
(308,21,o),
(297,23,cs),
(258,30,ls),
(233,35,o),
(226,41,o),
(232,69,cs),
(288,313,ls),
(293,334,o),
(301,349,o),
(315,368,cs),
(507,631,ls),
(539,675,o),
(554,692,o),
(573,695,cs),
(584,697,ls),
(595,699,o),
(601,704,o),
(601,711,cs),
(601,717,o),
(596,720,o),
(587,720,cs),
(443,720,ls),
(433,720,o),
(427,716,o),
(427,709,cs),
(427,703,o),
(432,698,o),
(441,697,cs),
(462,694,ls),
(492,690,o),
(496,666,o),
(471,632,cs),
(294,387,ls),
(287,377,o),
(278,379,o),
(276,388,cs),
(213,653,ls),
(206,681,o),
(220,693,o),
(243,695,cs),
(263,697,ls),
(277,698,o),
(283,703,o),
(283,710,cs),
(283,716,o),
(279,720,o),
(270,720,cs),
(105,720,ls),
(95,720,o),
(87,717,o),
(87,709,cs),
(87,703,o),
(91,699,o),
(99,697,cs),
(107,695,ls),
(128,690,o),
(135,678,o),
(140,656,cs),
(216,348,ls),
(220,333,o),
(221,321,o),
(217,305,cs),
(163,69,ls),
(157,41,o),
(146,34,o),
(119,30,cs),
(72,23,ls),
(63,22,o),
(57,17,o),
(57,10,cs),
(57,4,o),
(61,0,o),
(71,0,cs)
);
}
);
width = 478;
}
);
unicode = 89;
},
{
glyphname = Z;
kernLeft = Z;
kernRight = Z;
lastChange = "2022-08-31 20:25:35 +0000";
layers = (
{
anchors = (
{
name = bottom;
pos = (155,0);
},
{
name = center;
pos = (238,360);
},
{
name = top;
pos = (321,720);
}
);
background = {
shapes = (
{
closed = 1;
nodes = (
(305,0,ls),
(320,0,o),
(331,8,o),
(335,23,cs),
(391,211,ls),
(394,222,o),
(388,228,o),
(381,228,cs),
(373,228,o),
(369,223,o),
(365,215,cs),
(324,128,ls),
(285,45,o),
(245,30,o),
(187,30,cs),
(48,30,l),
(49,35,l),
(495,691,ls),
(507,709,o),
(501,720,o),
(482,720,cs),
(261,720,ls),
(199,720,o),
(202,740,o),
(186,740,cs),
(174,740,o),
(169,732,o),
(164,717,cs),
(103,531,ls),
(99,520,o),
(105,514,o),
(113,514,cs),
(121,514,o),
(125,519,o),
(129,527,cs),
(155,577,ls),
(202,667,o),
(249,690,o),
(299,690,cs),
(415,690,l),
(414,685,l),
(-31,29,ls),
(-43,11,o),
(-38,0,o),
(-19,0,cs)
);
}
);
};
layerId = m002;
shapes = (
{
closed = 1;
nodes = (
(305,0,ls),
(320,0,o),
(331,8,o),
(335,23,cs),
(391,211,ls),
(394,222,o),
(388,228,o),
(381,228,cs),
(373,228,o),
(369,223,o),
(365,215,cs),
(324,128,ls),
(287,48,o),
(235,30,o),
(177,30,cs),
(67,30,ls),
(56,30,o),
(51,37,o),
(58,47,cs),
(495,691,ls),
(507,709,o),
(501,720,o),
(482,720,cs),
(261,720,ls),
(199,720,o),
(202,740,o),
(186,740,cs),
(174,740,o),
(169,732,o),
(164,717,cs),
(103,531,ls),
(99,520,o),
(105,514,o),
(113,514,cs),
(121,514,o),
(125,519,o),
(129,527,cs),
(155,577,ls),
(202,667,o),
(249,690,o),
(309,690,cs),
(399,690,ls),
(409,690,o),
(413,683,o),
(406,673,cs),
(-31,29,ls),
(-43,11,o),
(-38,0,o),
(-19,0,cs)
);
}
);
width = 427;
}
);
unicode = 90;
},
{
glyphname = a;
kernLeft = a;
kernRight = a;
lastChange = "2022-09-01 20:17:48 +0000";
layers = (
{
anchors = (
{
name = bottom;
pos = (178,0);
},
{
name = ogonek;
pos = (363,0);
},
{
name = top;
pos = (296,510);
}
);
background = {
shapes = (
{
closed = 1;
nodes = (
(141,-9,o),
(193,36,o),
(247,135,cs),
(277,190,l),
(308,190,l),
(369,471,l),
(362,471,l),
(349,500,o),
(324,516,o),
(290,516,cs),
(160,516,o),
(13,303,o),
(13,113,cs),
(13,33,o),
(41,-9,o),
(90,-9,cs)
);
},
{
closed = 1;
nodes = (
(95,42,o),
(81,55,o),
(81,102,cs),
(81,275,o),
(199,491,o),
(287,491,cs),
(314,491,o),
(330,469,o),
(330,430,cs),
(330,318,o),
(194,42,o),
(114,42,cs)
);
},
{
closed = 1;
nodes = (
(453,177,o),
(451,186,o),
(442,186,cs),
(435,186,o),
(431,182,o),
(429,175,cs),
(404,88,o),
(381,48,o),
(350,48,cs),
(325,48,o),
(320,71,o),
(330,113,cs),
(419,496,ls),
(421,505,o),
(416,510,o),
(409,510,cs),
(401,510,o),
(395,506,o),
(387,496,cs),
(338,433,l),
(264,114,ls),
(246,38,o),
(271,-9,o),
(323,-9,cs),
(383,-9,o),
(425,41,o),
(451,166,cs)
);
}
);
};
guides = (
{
angle = -26.565;
pos = (205,61);
showMeasurement = 1;
}
);
layerId = m002;
shapes = (
{
closed = 1;
nodes = (
(140,-9,o),
(193,37,o),
(267,172,cs),
(271,180,o),
(279,178,o),
(277,169,cs),
(264,114,ls),
(246,38,o),
(271,-9,o),
(323,-9,cs),
(383,-9,o),
(425,41,o),
(451,166,cs),
(453,177,o),
(451,186,o),
(442,186,cs),
(435,186,o),
(431,182,o),
(429,175,cs),
(404,88,o),
(381,48,o),
(350,48,cs),
(325,48,o),
(320,71,o),
(330,113,cs),
(419,496,ls),
(421,505,o),
(416,510,o),
(409,510,cs),
(401,510,o),
(393,506,o),
(378,485,cs),
(374,479,o),
(371,476,o),
(366,476,cs),
(361,476,o),
(358,479,o),
(354,485,cs),
(339,506,o),
(315,516,o),
(290,516,cs),
(160,516,o),
(13,303,o),
(13,113,cs),
(13,33,o),
(41,-9,o),
(89,-9,cs)
);
},
{
closed = 1;
nodes = (
(93,42,o),
(81,55,o),
(81,102,cs),
(81,275,o),
(199,491,o),
(287,491,cs),
(314,491,o),
(330,469,o),
(330,430,cs),
(330,318,o),
(194,42,o),
(114,42,cs)
);
}
);
width = 474;
}
);
unicode = 97;
},
{
glyphname = ae;
kernLeft = a;
kernRight = e;
lastChange = "2022-08-23 19:55:07 +0000";
layers = (
{
layerId = m002;
shapes = (
{
closed = 1;
nodes = (
(142,-9,o),
(198,37,o),
(272,172,cs),
(309,239,o),
(318,251,o),
(362,250,c),
(419,496,ls),
(421,505,o),
(416,510,o),
(409,510,cs),
(401,510,o),
(393,506,o),
(378,485,cs),
(374,479,o),
(371,476,o),
(366,476,cs),
(361,476,o),
(358,479,o),
(354,485,cs),
(339,506,o),
(315,516,o),
(290,516,cs),
(160,516,o),
(13,303,o),
(13,113,cs),
(13,33,o),
(43,-9,o),
(91,-9,cs)
);
},
{
closed = 1;
nodes = (
(93,42,o),
(81,55,o),
(81,102,cs),
(81,275,o),
(199,491,o),
(287,491,cs),
(314,491,o),
(330,469,o),
(330,430,cs),
(330,318,o),
(194,42,o),
(114,42,cs)
);
},
{
closed = 1;
nodes = (
(471,-9,o),
(533,51,o),
(576,169,cs),
(579,178,o),
(577,186,o),
(569,186,cs),
(563,186,o),
(559,183,o),
(557,177,cs),
(525,91,o),
(474,43,o),
(424,43,cs),
(379,43,o),
(351,82,o),
(351,158,cs),
(351,167,o),
(351,177,o),
(352,187,cs),
(353,201,o),
(361,209,o),
(375,212,cs),
(526,246,o),
(627,342,o),
(627,433,cs),
(627,484,o),
(601,516,o),
(539,516,cs),
(423,516,o),
(282,327,o),
(282,150,cs),
(282,48,o),
(328,-9,o),
(399,-9,cs)
);
},
{
closed = 1;
nodes = (
(392,376,o),
(473,491,o),
(532,491,cs),
(555,491,o),
(565,477,o),
(565,449,cs),
(565,367,o),
(500,269,o),
(376,236,cs),
(366,233,o),
(359,240,o),
(362,250,cs)
);
}
);
width = 618;
}
);
metricRight = e;
unicode = 230;
},
{
glyphname = b;
kernRight = o;
lastChange = "2022-09-01 20:59:06 +0000";
layers = (
{
background = {
shapes = (
{
closed = 1;
nodes = (
(266,-9,o),
(418,204,o),
(418,394,cs),
(418,474,o),
(387,516,o),
(338,516,cs),
(287,516,o),
(237,472,o),
(183,376,cs),
(158,332,ls),
(154,324,o),
(146,326,o),
(148,335,cs),
(239,728,ls),
(241,738,o),
(237,743,o),
(230,743,cs),
(224,743,o),
(220,741,o),
(215,737,cs),
(192,718,o),
(154,708,o),
(106,700,cs),
(98,699,o),
(93,695,o),
(92,689,cs),
(91,682,o),
(95,677,o),
(105,676,cs),
(135,673,ls),
(154,671,o),
(159,664,o),
(153,640,cs),
(41,159,ls),
(15,47,o),
(68,-9,o),
(136,-9,cs)
);
},
{
closed = 1;
nodes = (
(112,16,o),
(96,38,o),
(96,77,cs),
(96,207,o),
(239,464,o),
(312,464,cs),
(339,464,o),
(348,445,o),
(348,395,cs),
(348,232,o),
(227,16,o),
(139,16,cs)
);
}
);
};
guides = (
{
angle = 90;
pos = (370,382);
}
);
layerId = m002;
shapes = (
{
closed = 1;
nodes = (
(266,-9,o),
(418,204,o),
(418,394,cs),
(418,474,o),
(387,516,o),
(338,516,cs),
(287,516,o),
(231,472,o),
(158,332,cs),
(154,324,o),
(146,326,o),
(148,335,cs),
(239,728,ls),
(241,738,o),
(237,743,o),
(230,743,cs),
(224,743,o),
(220,741,o),
(215,737,cs),
(192,718,o),
(154,708,o),
(106,700,cs),
(98,699,o),
(93,695,o),
(92,689,cs),
(91,682,o),
(95,677,o),
(105,676,cs),
(135,673,ls),
(154,671,o),
(159,664,o),
(153,640,cs),
(41,159,ls),
(15,47,o),
(68,-9,o),
(136,-9,cs)
);
},
{
closed = 1;
nodes = (
(112,16,o),
(96,38,o),
(96,77,cs),
(96,207,o),
(239,464,o),
(312,464,cs),
(339,464,o),
(348,445,o),
(348,395,cs),
(348,232,o),
(227,16,o),
(139,16,cs)
);
}
);
width = 431;
}
);
unicode = 98;
},
{
glyphname = c;
kernLeft = o;
kernRight = c;
lastChange = "2022-09-01 20:18:01 +0000";
layers = (
{
anchors = (
{
name = bottom;
pos = (131,0);
},
{
name = top;
pos = (265,510);
}
);
background = {
shapes = (
{
closed = 1;
nodes = (
(221,-9,o),
(294,70,o),
(315,179,cs),
(319,196,o),
(318,201,o),
(310,201,cs),
(303,201,o),
(298,198,o),
(296,191,cs),
(260,90,o),
(219,43,o),
(167,43,cs),
(113,43,o),
(85,87,o),
(85,169,cs),
(85,323,o),
(174,491,o),
(256,491,cs),
(290,491,o),
(300,468,o),
(300,384,cs),
(300,343,ls),
(300,333,o),
(304,329,o),
(312,329,cs),
(318,329,o),
(322,333,o),
(324,342,cs),
(351,473,ls),
(353,483,o),
(352,485,o),
(346,490,cs),
(323,508,o),
(299,516,o),
(265,516,cs),
(144,516,o),
(15,332,o),
(15,153,cs),
(15,58,o),
(68,-9,o),
(142,-9,cs)
);
}
);
};
guides = (
{
angle = 78.25;
pos = (337,405);
}
);
layerId = m002;
shapes = (
{
closed = 1;
nodes = (
(221,-9,o),
(294,70,o),
(315,179,cs),
(319,196,o),
(318,201,o),
(310,201,cs),
(303,201,o),
(298,198,o),
(296,191,cs),
(260,90,o),
(219,43,o),
(167,43,cs),
(113,43,o),
(85,87,o),
(85,169,cs),
(85,323,o),
(173,488,o),
(249,488,cs),
(276,488,o),
(289,475,o),
(293,414,cs),
(298,343,ls),
(299,333,o),
(303,328,o),
(311,328,cs),
(317,328,o),
(322,333,o),
(324,342,cs),
(351,473,ls),
(353,483,o),
(352,485,o),
(346,490,cs),
(323,508,o),
(299,516,o),
(265,516,cs),
(144,516,o),
(15,332,o),
(15,153,cs),
(15,58,o),
(68,-9,o),
(142,-9,cs)
);
}
);
width = 351;
}
);
unicode = 99;
},
{
glyphname = d;
kernLeft = o;
kernRight = d;
lastChange = "2022-09-01 20:59:12 +0000";
layers = (
{
anchors = (
{
name = bottom;
pos = (178,0);
},
{
name = center;
pos = (237,255);
},
{
name = top;
pos = (349,740);
},
{
name = topright;
pos = (501,740);
}
);
background = {
shapes = (
{
closed = 1;
nodes = (
(141,-9,o),
(193,36,o),
(247,135,cs),
(272,181,l),
(303,181,l),
(369,471,l),
(362,471,l),
(349,500,o),
(324,516,o),
(290,516,cs),
(160,516,o),
(13,303,o),
(13,113,cs),
(13,33,o),
(41,-9,o),
(90,-9,cs)
);
},
{
closed = 1;
nodes = (
(95,42,o),
(81,55,o),
(81,102,cs),
(81,275,o),
(199,491,o),
(287,491,cs),
(314,491,o),
(330,469,o),
(330,430,cs),
(330,318,o),
(194,42,o),
(114,42,cs)
);
},
{
closed = 1;
nodes = (
(261,114,ls),
(243,38,o),
(268,-9,o),
(320,-9,cs),
(380,-9,o),
(425,41,o),
(451,166,cs),
(453,177,o),
(451,186,o),
(442,186,cs),
(435,186,o),
(431,182,o),
(429,175,cs),
(404,88,o),
(381,48,o),
(350,48,cs),
(325,48,o),
(320,71,o),
(330,113,cs),
(472,728,ls),
(474,738,o),
(470,743,o),
(463,743,cs),
(457,743,o),
(453,741,o),
(448,737,cs),
(425,718,o),
(387,708,o),
(339,700,cs),
(331,699,o),
(326,695,o),
(325,689,cs),
(324,682,o),
(328,677,o),
(338,676,cs),
(368,673,ls),
(387,671,o),
(392,664,o),
(386,640,cs)
);
}
);
};
layerId = m002;
shapes = (
{
closed = 1;
nodes = (
(141,-9,o),
(198,38,o),
(262,163,cs),
(266,171,o),
(274,169,o),
(272,160,cs),
(261,114,ls),
(243,38,o),
(268,-9,o),
(320,-9,cs),
(380,-9,o),
(425,41,o),
(451,166,cs),
(453,177,o),
(451,186,o),
(442,186,cs),
(435,186,o),
(431,182,o),
(429,175,cs),
(404,88,o),
(381,48,o),
(350,48,cs),
(325,48,o),
(320,71,o),
(330,113,cs),
(472,728,ls),
(474,738,o),
(470,743,o),
(463,743,cs),
(457,743,o),
(453,741,o),
(448,737,cs),
(425,718,o),
(387,708,o),
(339,700,cs),
(331,699,o),
(326,695,o),
(325,689,cs),
(324,682,o),
(328,677,o),
(338,676,cs),
(368,673,ls),
(387,671,o),
(392,664,o),
(386,640,cs),
(354,508,ls),
(352,498,o),
(346,496,o),
(337,502,cs),
(324,511,o),
(309,516,o),
(290,516,cs),
(160,516,o),
(13,303,o),
(13,113,cs),
(13,33,o),
(41,-9,o),
(90,-9,cs)
);
},
{
closed = 1;
nodes = (
(95,42,o),
(81,55,o),
(81,102,cs),
(81,275,o),
(199,491,o),
(287,491,cs),
(314,491,o),
(330,469,o),
(330,430,cs),
(330,318,o),
(194,42,o),
(114,42,cs)
);
}
);
width = 474;
}
);
unicode = 100;
},
{
glyphname = eth;
kernLeft = o;
kernRight = o;
lastChange = "2022-08-23 19:55:36 +0000";
layers = (
{
background = {
shapes = (
{
closed = 1;
nodes = (
(237,-9,o),
(331,100,o),
(368,261,cs),
(419,480,o),
(332,688,o),
(170,729,cs),
(158,732,o),
(150,725,o),
(149,717,cs),
(147,710,o),
(150,706,o),
(157,704,cs),
(265,665,o),
(316,580,o),
(318,442,cs),
(319,432,o),
(312,429,o),
(305,434,cs),
(288,449,o),
(264,456,o),
(237,456,cs),
(143,456,o),
(51,360,o),
(21,229,cs),
(-9,98,o),
(42,-9,o),
(136,-9,cs)
);
},
{
closed = 1;
nodes = (
(76,18,o),
(59,84,o),
(92,224,cs),
(124,366,o),
(170,431,o),
(236,431,cs),
(306,431,o),
(325,358,o),
(292,218,cs),
(261,84,o),
(212,18,o),
(144,18,cs)
);
}
);
};
layerId = m002;
shapes = (
{
closed = 1;
nodes = (
(308,-9,o),
(381,214,o),
(381,359,cs),
(381,532,o),
(301,698,o),
(173,750,cs),
(160,755,o),
(152,749,o),
(152,738,cs),
(152,733,o),
(155,730,o),
(160,727,cs),
(267,672,o),
(318,568,o),
(318,425,cs),
(318,417,o),
(311,415,o),
(305,421,cs),
(284,443,o),
(258,454,o),
(224,454,cs),
(101,454,o),
(19,293,o),
(19,178,cs),
(19,72,o),
(74,-9,o),
(159,-9,cs)
);
},
{
closed = 1;
nodes = (
(106,17,o),
(81,67,o),
(81,141,cs),
(81,226,o),
(122,429,o),
(225,429,cs),
(282,429,o),
(308,372,o),
(308,305,cs),
(308,200,o),
(267,17,o),
(161,17,cs)
);
}
);
width = 406;
}
);
unicode = 240;
},
{
glyphname = dcroat;
kernLeft = o;
kernRight = d;
lastChange = "2022-08-23 19:55:32 +0000";
layers = (
{
layerId = m002;
shapes = (
{
ref = d;
},
{
closed = 1;
nodes = (
(494,578,ls),
(500,578,o),
(505,582,o),
(507,588,cs),
(509,596,ls),
(510,602,o),
(507,606,o),
(501,606,cs),
(226,606,ls),
(220,606,o),
(215,602,o),
(214,596,cs),
(212,588,ls),
(210,582,o),
(213,578,o),
(219,578,cs)
);
}
);
width = 474;
}
);
unicode = 273;
},
{
glyphname = e;
kernLeft = o;
kernRight = e;
lastChange = "2022-09-01 20:18:09 +0000";
layers = (
{
anchors = (
{
name = bottom;
pos = (115,0);
},
{
name = ogonek;
pos = (175,0);
},
{
name = top;
pos = (273,510);
}
);
background = {
shapes = (
{
closed = 1;
nodes = (
(201,-9,o),
(263,51,o),
(306,169,cs),
(309,178,o),
(307,186,o),
(299,186,cs),
(293,186,o),
(289,183,o),
(287,177,cs),
(255,91,o),
(204,43,o),
(154,43,cs),
(109,43,o),
(81,82,o),
(81,158,cs),
(81,313,o),
(188,491,o),
(262,491,cs),
(285,491,o),
(295,477,o),
(295,449,cs),
(295,360,o),
(218,253,o),
(75,230,c),
(75,206,l),
(243,233,o),
(357,336,o),
(357,433,cs),
(357,484,o),
(331,516,o),
(269,516,cs),
(153,516,o),
(12,327,o),
(12,150,cs),
(12,48,o),
(58,-9,o),
(129,-9,cs)
);
}
);
};
layerId = m002;
shapes = (
{
closed = 1;
nodes = (
(201,-9,o),
(263,51,o),
(306,169,cs),
(309,178,o),
(307,186,o),
(299,186,cs),
(293,186,o),
(289,183,o),
(287,177,cs),
(255,91,o),
(204,43,o),
(154,43,cs),
(109,43,o),
(81,82,o),
(81,158,cs),
(81,167,o),
(81,177,o),
(82,187,cs),
(83,201,o),
(91,209,o),
(105,212,cs),
(256,246,o),
(357,342,o),
(357,433,cs),
(357,484,o),
(331,516,o),
(269,516,cs),
(153,516,o),
(12,327,o),
(12,150,cs),
(12,48,o),
(58,-9,o),
(129,-9,cs)
);
},
{
closed = 1;
nodes = (
(122,376,o),
(203,491,o),
(262,491,cs),
(285,491,o),
(295,477,o),
(295,449,cs),
(295,367,o),
(230,269,o),
(106,236,cs),
(96,233,o),
(89,240,o),
(92,250,cs)
);
}
);
width = 348;
}
);
unicode = 101;
},
{
glyphname = f;
kernLeft = f;
lastChange = "2022-09-01 20:59:24 +0000";
layers = (
{
background = {
shapes = (
{
closed = 1;
nodes = (
(64,0,ls),
(78,0,o),
(87,7,o),
(90,21,cs),
(195,472,ls),
(197,479,o),
(201,482,o),
(208,482,cs),
(295,482,ls),
(304,482,o),
(311,487,o),
(313,496,cs),
(315,504,o),
(309,510,o),
(298,510,cs),
(218,510,ls),
(210,510,o),
(205,514,o),
(207,523,cs),
(227,610,ls),
(246,692,o),
(268,717,o),
(299,717,cs),
(348,717,o),
(308,637,o),
(364,637,cs),
(387,637,o),
(404,656,o),
(404,686,cs),
(404,725,o),
(373,748,o),
(326,748,cs),
(239,748,o),
(172,663,o),
(147,550,cs),
(140,518,o),
(121,510,o),
(80,510,cs),
(70,510,o),
(62,505,o),
(62,496,cs),
(62,488,o),
(67,482,o),
(78,482,cs),
(99,482,ls),
(121,482,o),
(129,471,o),
(123,445,cs),
(25,27,ls),
(21,11,o),
(29,0,o),
(46,0,cs)
);
}
);
};
guides = (
{
pos = (244,748);
}
);
layerId = m002;
shapes = (
{
closed = 1;
nodes = (
(74,0,ls),
(82,0,o),
(86,3,o),
(88,11,cs),
(195,472,ls),
(197,479,o),
(201,482,o),
(208,482,cs),
(295,482,ls),
(304,482,o),
(311,487,o),
(313,496,cs),
(315,504,o),
(309,510,o),
(298,510,cs),
(218,510,ls),
(210,510,o),
(205,514,o),
(207,523,cs),
(227,610,ls),
(246,692,o),
(268,717,o),
(299,717,cs),
(348,717,o),
(308,637,o),
(364,637,cs),
(387,637,o),
(404,656,o),
(404,686,cs),
(404,725,o),
(373,748,o),
(326,748,cs),
(239,748,o),
(172,663,o),
(147,550,cs),
(140,518,o),
(121,510,o),
(80,510,cs),
(70,510,o),
(62,505,o),
(62,496,cs),
(62,488,o),
(67,482,o),
(78,482,cs),
(99,482,ls),
(121,482,o),
(129,471,o),
(123,445,cs),
(22,13,ls),
(20,4,o),
(23,0,o),
(32,0,cs)
);
}
);
width = 273;
}
);
unicode = 102;
},
{
glyphname = g;
kernLeft = g;
kernRight = g;
lastChange = "2022-09-01 20:59:30 +0000";
layers = (
{
anchors = (
{
name = bottom;
pos = (95,-205);
},
{
name = top;
pos = (260,510);
}
);
background = {
shapes = (
{
closed = 1;
nodes = (
(216,-216,o),
(322,-157,o),
(322,-56,cs),
(322,-4,o),
(294,40,o),
(205,70,cs),
(129,96,o),
(121,103,o),
(121,118,cs),
(121,130,o),
(133,142,o),
(193,172,cs),
(250,200,ls),
(318,234,o),
(373,308,o),
(373,389,cs),
(373,425,o),
(363,455,o),
(345,477,c),
(345,482,l),
(430,482,ls),
(442,482,o),
(450,487,o),
(450,496,cs),
(450,505,o),
(445,510,o),
(433,510,cs),
(317,510,ls),
(292,510,o),
(280,516,o),
(256,516,cs),
(157,516,o),
(65,418,o),
(65,311,cs),
(65,243,o),
(103,195,o),
(161,186,c),
(161,182,l),
(121,161,ls),
(74,136,o),
(57,118,o),
(57,90,cs),
(57,73,o),
(63,60,o),
(90,45,c),
(90,40,l),
(58,26,ls),
(-29,-12,o),
(-68,-59,o),
(-68,-111,cs),
(-68,-172,o),
(-13,-216,o),
(93,-216,cs)
);
},
{
closed = 1;
nodes = (
(26,-191,o),
(-6,-151,o),
(-6,-98,cs),
(-6,-56,o),
(12,-12,o),
(124,29,c),
(173,11,ls),
(234,-11,o),
(254,-36,o),
(254,-76,cs),
(254,-153,o),
(181,-191,o),
(104,-191,cs)
);
},
{
closed = 1;
nodes = (
(151,206,o),
(132,235,o),
(132,293,cs),
(132,394,o),
(190,495,o),
(253,495,cs),
(287,495,o),
(305,465,o),
(305,408,cs),
(305,307,o),
(247,206,o),
(184,206,cs)
);
}
);
};
layerId = m002;
shapes = (
{
closed = 1;
nodes = (
(216,-216,o),
(322,-157,o),
(322,-60,cs),
(322,-8,o),
(297,30,o),
(223,57,cs),
(137,89,ls),
(94,105,o),
(86,125,o),
(106,137,cs),
(146,161,ls),
(175,179,o),
(191,185,o),
(215,190,cs),
(306,209,o),
(373,297,o),
(373,391,cs),
(373,424,o),
(364,455,o),
(347,477,cs),
(339,488,o),
(335,497,o),
(341,509,cs),
(350,526,o),
(362,534,o),
(376,534,cs),
(398,534,o),
(396,514,o),
(423,514,cs),
(445,514,o),
(462,531,o),
(462,557,cs),
(462,582,o),
(446,598,o),
(418,598,cs),
(379,598,o),
(341,567,o),
(319,518,cs),
(315,510,o),
(310,507,o),
(301,510,cs),
(290,514,o),
(276,516,o),
(262,516,cs),
(152,516,o),
(65,418,o),
(65,311,cs),
(65,264,o),
(83,222,o),
(119,201,cs),
(133,193,o),
(132,182,o),
(119,175,cs),
(43,131,ls),
(19,117,o),
(26,79,o),
(64,55,cs),
(78,46,o),
(75,35,o),
(61,27,cs),
(-38,-30,o),
(-68,-72,o),
(-68,-118,cs),
(-68,-172,o),
(-13,-216,o),
(93,-216,cs)
);
},
{
closed = 1;
nodes = (
(26,-191,o),
(-8,-151,o),
(-8,-101,cs),
(-8,-60,o),
(12,-28,o),
(84,12,cs),
(105,23,o),
(130,26,o),
(154,17,cs),
(173,10,ls),
(237,-14,o),
(254,-40,o),
(254,-84,cs),
(254,-151,o),
(181,-191,o),
(104,-191,cs)
);
},
{
closed = 1;
nodes = (
(132,394,o),
(190,495,o),
(253,495,cs),
(287,495,o),
(305,474,o),
(305,408,cs),
(305,307,o),
(247,206,o),
(184,206,cs),
(151,206,o),
(132,232,o),
(132,293,cs)
);
}
);
width = 401;
}
);
unicode = 103;
},
{
glyphname = h;
kernLeft = h;
kernRight = n;
lastChange = "2022-09-01 20:59:43 +0000";
layers = (
{
background = {
shapes = (
{
closed = 1;
nodes = (
(367,-9,o),
(415,29,o),
(453,166,cs),
(456,177,o),
(454,186,o),
(444,186,cs),
(437,186,o),
(433,182,o),
(431,175,cs),
(402,76,o),
(378,48,o),
(351,48,cs),
(330,48,o),
(320,66,o),
(330,104,cs),
(406,394,ls),
(428,476,o),
(401,516,o),
(352,516,cs),
(300,516,o),
(234,460,o),
(176,348,cs),
(140,278,l),
(135,278,l),
(239,728,ls),
(241,738,o),
(237,743,o),
(230,743,cs),
(224,743,o),
(220,741,o),
(215,737,cs),
(192,718,o),
(154,708,o),
(106,700,cs),
(98,699,o),
(93,695,o),
(92,689,cs),
(91,682,o),
(95,677,o),
(105,676,cs),
(135,673,ls),
(154,671,o),
(159,664,o),
(153,640,cs),
(10,27,ls),
(6,11,o),
(14,0,o),
(31,0,cs),
(50,0,ls),
(64,0,o),
(73,7,o),
(76,21,cs),
(123,221,o),
(250,473,o),
(325,473,cs),
(344,473,o),
(357,456,o),
(343,404,cs),
(266,114,ls),
(244,30,o),
(274,-9,o),
(322,-9,cs)
);
}
);
};
guides = (
{
angle = 76.9884;
pos = (153,627);
}
);
layerId = m002;
shapes = (
{
closed = 1;
nodes = (
(367,-9,o),
(415,29,o),
(453,166,cs),
(456,177,o),
(454,186,o),
(444,186,cs),
(437,186,o),
(433,182,o),
(431,175,cs),
(402,76,o),
(378,48,o),
(351,48,cs),
(330,48,o),
(320,66,o),
(330,104,cs),
(406,394,ls),
(428,476,o),
(401,516,o),
(352,516,cs),
(300,516,o),
(231,463,o),
(151,300,cs),
(147,292,o),
(139,294,o),
(141,303,cs),
(239,728,ls),
(241,738,o),
(237,743,o),
(230,743,cs),
(224,743,o),
(220,741,o),
(215,737,cs),
(192,718,o),
(154,708,o),
(106,700,cs),
(98,699,o),
(93,695,o),
(92,689,cs),
(91,682,o),
(95,677,o),
(105,676,cs),
(135,673,ls),
(154,671,o),
(159,664,o),
(153,640,cs),
(7,13,ls),
(5,4,o),
(9,0,o),
(18,0,cs),
(60,0,ls),
(68,0,o),
(72,3,o),
(74,11,cs),
(121,219,o),
(251,473,o),
(325,473,cs),
(344,473,o),
(357,456,o),
(343,404,cs),
(266,114,ls),
(244,30,o),
(274,-9,o),
(322,-9,cs)
);
}
);
width = 476;
}
);
unicode = 104;
},
{
glyphname = hbar;
kernLeft = h;
kernRight = n;
lastChange = "2022-08-23 19:55:55 +0000";
layers = (
{
layerId = m002;
shapes = (
{
ref = h;
},
{
closed = 1;
nodes = (
(357,578,ls),
(363,578,o),
(368,582,o),
(370,588,cs),
(372,596,ls),
(373,602,o),
(370,606,o),
(364,606,cs),
(89,606,ls),
(83,606,o),
(78,602,o),
(77,596,cs),
(75,588,ls),
(73,582,o),
(76,578,o),
(82,578,cs)
);
}
);
width = 476;
}
);
unicode = 295;
},
{
glyphname = i;
kernLeft = i;
kernRight = i;
lastChange = "2022-09-01 20:59:49 +0000";
layers = (
{
anchors = (
{
name = bottom;
pos = (85,0);
}
);
background = {
shapes = (
{
closed = 1;
nodes = (
(167,-10,o),
(224,36,o),
(268,185,c),
(244,185,l),
(206,77,o),
(179,47,o),
(154,47,cs),
(134,47,o),
(131,65,o),
(138,94,cs),
(211,411,ls),
(228,486,o),
(207,516,o),
(163,516,cs),
(118,516,o),
(61,470,o),
(17,321,c),
(41,321,l),
(79,429,o),
(106,459,o),
(131,459,cs),
(151,459,o),
(155,441,o),
(148,412,c),
(74,95,ls),
(57,20,o),
(78,-10,o),
(122,-10,cs)
);
},
{
closed = 1;
nodes = (
(234,605,o),
(261,628,o),
(261,665,cs),
(261,692,o),
(241,710,o),
(214,710,cs),
(186,710,o),
(160,687,o),
(160,651,cs),
(160,625,o),
(179,605,o),
(204,605,cs)
);
}
);
};
guides = (
{
angle = 76.985;
pos = (132,206);
}
);
layerId = m002;
shapes = (
{
closed = 1;
nodes = (
(165,-10,o),
(223,32,o),
(266,169,cs),
(270,180,o),
(266,187,o),
(258,187,cs),
(252,187,o),
(247,183,o),
(244,174,cs),
(208,75,o),
(180,47,o),
(156,47,cs),
(136,47,o),
(132,65,o),
(139,94,cs),
(213,411,ls),
(230,486,o),
(209,516,o),
(163,516,cs),
(120,516,o),
(64,474,o),
(21,337,cs),
(17,326,o),
(21,319,o),
(29,319,cs),
(35,319,o),
(40,323,o),
(43,332,cs),
(79,431,o),
(107,459,o),
(131,459,cs),
(151,459,o),
(155,441,o),
(148,412,cs),
(74,95,ls),
(57,20,o),
(78,-10,o),
(122,-10,cs)
);
},
{
closed = 1;
nodes = (
(234,605,o),
(261,628,o),
(261,665,cs),
(261,692,o),
(241,710,o),
(214,710,cs),
(186,710,o),
(160,687,o),
(160,651,cs),
(160,625,o),
(179,605,o),
(204,605,cs)
);
}
);
width = 288;
}
);
unicode = 105;
},
{
glyphname = idotless;
kernLeft = i;
kernRight = i;
lastChange = "2022-08-23 19:56:03 +0000";
layers = (
{
anchors = (
{
name = bottom;
pos = (85,0);
},
{
name = ogonek;
pos = (159,0);
},
{
name = top;
pos = (203,510);
}
);
layerId = m002;
shapes = (
{
closed = 1;
nodes = (
(165,-10,o),
(223,32,o),
(266,169,cs),
(270,180,o),
(266,187,o),
(258,187,cs),
(252,187,o),
(247,183,o),
(244,174,cs),
(208,75,o),
(180,47,o),
(156,47,cs),
(136,47,o),
(132,65,o),
(139,94,cs),
(213,411,ls),
(230,486,o),
(209,516,o),
(163,516,cs),
(120,516,o),
(64,474,o),
(21,337,cs),
(17,326,o),
(21,319,o),
(29,319,cs),
(35,319,o),
(40,323,o),
(43,332,cs),
(79,431,o),
(107,459,o),
(131,459,cs),
(151,459,o),
(155,441,o),
(148,412,cs),
(74,95,ls),
(57,20,o),
(78,-10,o),
(122,-10,cs)
);
}
);
width = 288;
}
);
unicode = 305;
},
{
glyphname = j;
kernLeft = j;
kernRight = j;
lastChange = "2022-09-01 20:59:53 +0000";
layers = (
{
background = {
shapes = (
{
closed = 1;
nodes = (
(206,440,ls),
(205,464,o),
(195,475,o),
(176,475,cs),
(142,475,o),
(100,433,o),
(71,391,cs),
(49,360,o),
(34,329,o),
(35,317,cs),
(35,313,o),
(41,311,o),
(45,311,cs),
(53,311,o),
(58,336,o),
(89,377,cs),
(110,405,o),
(124,415,o),
(135,415,cs),
(142,415,o),
(144,411,o),
(145,404,cs),
(145,399,o),
(142,390,o),
(128,334,cs),
(113,276,o),
(87,165,o),
(41,-49,cs),
(32,-95,o),
(25,-127,o),
(16,-149,cs),
(4,-183,o),
(-6,-191,o),
(-18,-191,cs),
(-36,-191,o),
(-42,-170,o),
(-44,-146,cs),
(-45,-122,o),
(-52,-109,o),
(-73,-109,cs),
(-101,-109,o),
(-109,-132,o),
(-107,-151,cs),
(-105,-190,o),
(-77,-215,o),
(-42,-215,cs),
(4,-215,o),
(38,-187,o),
(64,-144,cs),
(87,-105,o),
(104,-54,o),
(115,-2,cs),
(143,123,o),
(177,259,o),
(195,350,cs),
(203,392,o),
(207,424,o),
(206,439,cs)
);
}
);
};
guides = (
{
angle = 76.8603;
pos = (74,95);
}
);
layerId = m002;
shapes = (
{
closed = 1;
nodes = (
(30,-215,o),
(84,-148,o),
(110,-37,cs),
(214,411,ls),
(231,486,o),
(210,516,o),
(163,516,cs),
(120,516,o),
(64,474,o),
(21,337,cs),
(17,326,o),
(21,319,o),
(29,319,cs),
(35,319,o),
(40,323,o),
(43,332,cs),
(79,431,o),
(107,459,o),
(131,459,cs),
(151,459,o),
(155,441,o),
(148,412,cs),
(25,-114,ls),
(10,-178,o),
(-2,-188,o),
(-16,-188,cs),
(-54,-188,o),
(-21,-106,o),
(-72,-106,cs),
(-90,-106,o),
(-107,-120,o),
(-107,-148,cs),
(-107,-186,o),
(-82,-215,o),
(-35,-215,cs)
);
},
{
closed = 1;
nodes = (
(234,605,o),
(261,628,o),
(261,665,cs),
(261,692,o),
(241,710,o),
(214,710,cs),
(186,710,o),
(160,687,o),
(160,651,cs),
(160,625,o),
(179,605,o),
(204,605,cs)
);
}
);
width = 266;
}
);
unicode = 106;
},
{
glyphname = jdotless;
kernLeft = j;
kernRight = j;
lastChange = "2022-08-23 19:56:16 +0000";
layers = (
{
layerId = m002;
shapes = (
{
closed = 1;
nodes = (
(30,-215,o),
(84,-148,o),
(110,-37,cs),
(214,411,ls),
(231,486,o),
(210,516,o),
(163,516,cs),
(120,516,o),
(64,474,o),
(21,337,cs),
(17,326,o),
(21,319,o),
(29,319,cs),
(35,319,o),
(40,323,o),
(43,332,cs),
(79,431,o),
(107,459,o),
(131,459,cs),
(151,459,o),
(155,441,o),
(148,412,cs),
(25,-114,ls),
(10,-178,o),
(-2,-188,o),
(-16,-188,cs),
(-54,-188,o),
(-21,-106,o),
(-72,-106,cs),
(-90,-106,o),
(-107,-120,o),
(-107,-148,cs),
(-107,-186,o),
(-82,-215,o),
(-35,-215,cs)
);
}
);
width = 266;
}
);
unicode = 567;
},
{
glyphname = k;
kernLeft = h;
kernRight = k;
lastChange = "2022-09-01 20:19:58 +0000";
layers = (
{
anchors = (
{
name = bottom;
pos = (165,0);
},
{
name = top;
pos = (336,740);
}
);
background = {
shapes = (
{
closed = 1;
nodes = (
(50,0,ls),
(62,0,o),
(70,8,o),
(73,21,cs),
(86,77,ls),
(100,136,o),
(116,189,o),
(129,218,cs),
(137,236,o),
(144,243,o),
(155,243,cs),
(166,243,o),
(173,236,o),
(180,219,cs),
(235,74,ls),
(257,17,o),
(283,-9,o),
(318,-9,cs),
(376,-9,o),
(413,54,o),
(420,166,cs),
(421,180,o),
(418,186,o),
(410,186,cs),
(403,186,o),
(399,181,o),
(398,173,cs),
(386,78,o),
(372,45,o),
(342,45,cs),
(322,45,o),
(310,57,o),
(297,91,cs),
(230,262,l),
(344,301,o),
(425,379,o),
(425,449,cs),
(425,490,o),
(396,516,o),
(351,516,cs),
(291,516,o),
(236,472,o),
(189,388,cs),
(151,320,l),
(143,320,l),
(239,728,ls),
(241,738,o),
(238,743,o),
(229,743,cs),
(224,743,o),
(220,741,o),
(215,737,cs),
(196,721,o),
(163,709,o),
(106,700,cs),
(98,699,o),
(93,695,o),
(92,689,cs),
(91,682,o),
(96,677,o),
(105,676,cs),
(135,673,ls),
(154,671,o),
(159,663,o),
(153,640,cs),
(10,27,ls),
(6,11,o),
(14,0,o),
(31,0,cs)
);
},
{
closed = 1;
nodes = (
(216,402,o),
(284,485,o),
(333,485,cs),
(353,485,o),
(362,473,o),
(362,447,cs),
(362,365,o),
(277,291,o),
(155,267,c)
);
}
);
};
guides = (
{
pos = (230,271);
},
{
angle = 76.9307;
pos = (80,49);
},
{
angle = 256.8689;
pos = (82,334);
}
);
layerId = m002;
shapes = (
{
closed = 1;
nodes = (
(376,-9,o),
(413,54,o),
(420,166,cs),
(421,180,o),
(418,186,o),
(410,186,cs),
(403,186,o),
(399,181,o),
(398,173,cs),
(386,78,o),
(372,45,o),
(342,45,cs),
(322,45,o),
(310,57,o),
(297,91,cs),
(239,239,ls),
(233,253,o),
(238,265,o),
(253,271,cs),
(355,312,o),
(425,384,o),
(425,449,cs),
(425,490,o),
(396,516,o),
(351,516,cs),
(291,516,o),
(236,472,o),
(189,388,cs),
(156,329,ls),
(152,321,o),
(144,323,o),
(146,332,cs),
(239,728,ls),
(241,738,o),
(238,743,o),
(229,743,cs),
(224,743,o),
(220,741,o),
(215,737,cs),
(196,721,o),
(163,709,o),
(106,700,cs),
(98,699,o),
(93,695,o),
(92,689,cs),
(91,682,o),
(96,677,o),
(105,676,cs),
(135,673,ls),
(154,671,o),
(158,663,o),
(153,640,cs),
(7,13,ls),
(5,4,o),
(9,0,o),
(18,0,cs),
(57,0,ls),
(65,0,o),
(69,3,o),
(71,11,cs),
(86,77,ls),
(99,136,o),
(116,189,o),
(129,218,cs),
(137,236,o),
(144,243,o),
(155,243,cs),
(166,243,o),
(173,236,o),
(180,219,cs),
(235,74,ls),
(257,17,o),
(283,-9,o),
(318,-9,cs)
);
},
{
closed = 1;
nodes = (
(223,410,o),
(287,485,o),
(333,485,cs),
(353,485,o),
(362,473,o),
(362,447,cs),
(362,370,o),
(287,300,o),
(177,272,cs),
(165,269,o),
(159,276,o),
(165,288,cs)
);
}
);
width = 447;
}
);
unicode = 107;
},
{
glyphname = l;
kernLeft = h;
kernRight = l;
lastChange = "2022-09-01 20:39:59 +0000";
layers = (
{
anchors = (
{
name = bottom;
pos = (61,0);
},
{
name = center;
pos = (147,370);
},
{
name = top;
pos = (169,710);
},
{
name = topright;
pos = (267,740);
}
);
guides = (
{
angle = 256.8603;
pos = (63,254);
}
);
layerId = m002;
shapes = (
{
closed = 1;
nodes = (
(117,-10,o),
(175,32,o),
(218,169,cs),
(222,180,o),
(218,187,o),
(210,187,cs),
(204,187,o),
(199,183,o),
(196,174,cs),
(160,75,o),
(132,47,o),
(108,47,cs),
(88,47,o),
(84,65,o),
(91,94,cs),
(239,728,ls),
(241,738,o),
(237,743,o),
(230,743,cs),
(224,743,o),
(220,741,o),
(215,737,cs),
(192,718,o),
(154,708,o),
(106,700,cs),
(98,699,o),
(93,695,o),
(92,689,cs),
(91,682,o),
(95,677,o),
(105,676,cs),
(135,673,ls),
(154,671,o),
(159,664,o),
(153,640,cs),
(26,95,ls),
(8,20,o),
(30,-10,o),
(74,-10,cs)
);
}
);
width = 240;
}
);
unicode = 108;
},
{
glyphname = lslash;
kernLeft = h;
kernRight = l;
lastChange = "2022-08-23 20:01:07 +0000";
layers = (
{
layerId = m002;
shapes = (
{
pos = (31,0);
ref = l;
},
{
closed = 1;
nodes = (
(162,383,l),
(27,307,ls),
(21,304,o),
(18,298,o),
(21,293,cs),
(25,286,ls),
(28,281,o),
(32,280,o),
(38,283,cs),
(156,350,l)
);
},
{
closed = 1;
nodes = (
(157,345,l),
(298,424,ls),
(304,427,o),
(306,433,o),
(304,438,cs),
(300,445,ls),
(298,450,o),
(293,451,o),
(287,448,cs),
(163,378,l)
);
}
);
width = 271;
}
);
unicode = 322;
},
{
glyphname = m;
kernLeft = n;
kernRight = n;
lastChange = "2022-09-01 19:49:06 +0000";
layers = (
{
background = {
shapes = (
{
closed = 1;
nodes = (
(353,23,cs),
(397,212,o),
(528,473,o),
(594,473,cs),
(613,473,o),
(626,456,o),
(612,404,cs),
(535,114,ls),
(513,30,o),
(543,-9,o),
(591,-9,cs),
(636,-9,o),
(684,29,o),
(722,166,cs),
(725,177,o),
(723,186,o),
(713,186,cs),
(706,186,o),
(702,182,o),
(700,175,cs),
(672,76,o),
(647,48,o),
(620,48,cs),
(599,48,o),
(589,66,o),
(599,104,cs),
(675,394,ls),
(697,476,o),
(670,516,o),
(621,516,cs),
(569,516,o),
(510,461,o),
(454,348,cs),
(419,278,l),
(414,278,l),
(441,394,ls),
(460,476,o),
(436,516,o),
(387,516,cs),
(335,516,o),
(276,461,o),
(220,348,cs),
(185,278,l),
(180,278,l),
(211,411,ls),
(228,486,o),
(207,516,o),
(163,516,cs),
(120,516,o),
(64,474,o),
(21,337,cs),
(17,326,o),
(21,319,o),
(29,319,cs),
(35,319,o),
(40,323,o),
(43,332,cs),
(79,431,o),
(107,459,o),
(131,459,cs),
(151,459,o),
(155,441,o),
(148,412,cs),
(58,27,ls),
(54,11,o),
(62,0,o),
(79,0,cs),
(95,0,ls),
(109,0,o),
(118,7,o),
(121,21,cs),
(168,221,o),
(295,473,o),
(360,473,cs),
(379,473,o),
(390,456,o),
(378,404,cs),
(290,27,ls),
(286,11,o),
(294,0,o),
(311,0,cs),
(327,0,ls),
(341,0,o),
(349,7,o)
);
}
);
};
layerId = m002;
shapes = (
{
closed = 1;
nodes = (
(636,-9,o),
(684,29,o),
(722,166,cs),
(725,177,o),
(723,186,o),
(713,186,cs),
(706,186,o),
(702,182,o),
(700,175,cs),
(672,76,o),
(647,48,o),
(620,48,cs),
(599,48,o),
(589,66,o),
(599,104,cs),
(675,394,ls),
(697,476,o),
(670,516,o),
(621,516,cs),
(569,516,o),
(505,462,o),
(430,300,cs),
(426,292,o),
(418,294,o),
(420,303,cs),
(441,394,ls),
(460,476,o),
(436,516,o),
(387,516,cs),
(335,516,o),
(273,460,o),
(196,300,cs),
(192,292,o),
(184,294,o),
(186,303,cs),
(211,411,ls),
(228,486,o),
(207,516,o),
(163,516,cs),
(120,516,o),
(64,474,o),
(21,337,cs),
(17,326,o),
(21,319,o),
(29,319,cs),
(35,319,o),
(40,323,o),
(43,332,cs),
(79,431,o),
(107,459,o),
(131,459,cs),
(151,459,o),
(155,441,o),
(148,412,cs),
(53,13,ls),
(51,4,o),
(55,0,o),
(64,0,cs),
(105,0,ls),
(113,0,o),
(117,3,o),
(119,11,cs),
(167,220,o),
(295,473,o),
(360,473,cs),
(379,473,o),
(390,456,o),
(378,404,cs),
(286,13,ls),
(284,4,o),
(288,0,o),
(297,0,cs),
(336,0,ls),
(344,0,o),
(348,3,o),
(350,11,cs),
(399,221,o),
(528,473,o),
(594,473,cs),
(613,473,o),
(626,456,o),
(612,404,cs),
(535,114,ls),
(513,30,o),
(543,-9,o),
(591,-9,cs)
);
}
);
width = 745;
}
);
metricRight = n;
unicode = 109;
},
{
glyphname = n;
kernLeft = n;
kernRight = n;
lastChange = "2022-08-31 18:09:38 +0000";
layers = (
{
anchors = (
{
name = bottom;
pos = (202,0);
},
{
name = top;
pos = (320,510);
}
);
background = {
shapes = (
{
closed = 1;
nodes = (
(416,-9,o),
(469,37,o),
(503,186,c),
(479,186,l),
(451,78,o),
(424,48,o),
(396,48,cs),
(375,48,o),
(365,66,o),
(375,104,cs),
(451,394,ls),
(473,476,o),
(446,516,o),
(397,516,cs),
(345,516,o),
(279,460,o),
(221,348,cs),
(185,278,l),
(166,278,l),
(116,0,l),
(168,225,o),
(293,473,o),
(370,473,cs),
(389,473,o),
(402,456,o),
(388,404,cs),
(311,114,ls),
(289,30,o),
(319,-9,o),
(367,-9,cs)
);
},
{
closed = 1;
nodes = (
(116,0,l),
(211,411,ls),
(228,486,o),
(207,516,o),
(163,516,cs),
(118,516,o),
(61,470,o),
(17,321,c),
(41,321,l),
(79,429,o),
(106,459,o),
(131,459,cs),
(151,459,o),
(155,441,o),
(148,412,c),
(52,0,l)
);
}
);
};
guides = (
{
pos = (500,186);
}
);
layerId = m002;
shapes = (
{
closed = 1;
nodes = (
(51,4,o),
(55,0,o),
(64,0,cs),
(105,0,ls),
(113,0,o),
(117,3,o),
(119,11,cs),
(166,218,o),
(295,473,o),
(370,473,cs),
(389,473,o),
(402,456,o),
(388,404,cs),
(311,114,ls),
(289,30,o),
(319,-9,o),
(367,-9,cs),
(412,-9,o),
(460,29,o),
(498,166,cs),
(501,177,o),
(499,186,o),
(489,186,cs),
(482,186,o),
(478,182,o),
(476,175,cs),
(448,76,o),
(423,48,o),
(396,48,cs),
(375,48,o),
(365,66,o),
(375,104,cs),
(451,394,ls),
(473,476,o),
(446,516,o),
(397,516,cs),
(345,516,o),
(274,462,o),
(196,300,cs),
(192,292,o),
(184,294,o),
(186,303,cs),
(211,411,ls),
(228,486,o),
(207,516,o),
(163,516,cs),
(120,516,o),
(64,474,o),
(21,337,cs),
(17,326,o),
(21,319,o),
(29,319,cs),
(35,319,o),
(40,323,o),
(43,332,cs),
(79,431,o),
(107,459,o),
(131,459,cs),
(151,459,o),
(155,441,o),
(148,412,cs),
(53,13,ls)
);
}
);
width = 521;
}
);
unicode = 110;
},
{
glyphname = eng;
kernLeft = n;
kernRight = j;
lastChange = "2022-08-23 20:01:41 +0000";
layers = (
{
background = {
shapes = (
{
closed = 1;
nodes = (
(51,4,o),
(55,0,o),
(64,0,cs),
(105,0,ls),
(113,0,o),
(117,3,o),
(119,11,cs),
(166,218,o),
(295,473,o),
(370,473,cs),
(389,473,o),
(402,456,o),
(388,404,cs),
(311,114,ls),
(289,30,o),
(319,-9,o),
(367,-9,cs),
(412,-9,o),
(460,29,o),
(498,166,cs),
(501,177,o),
(499,186,o),
(489,186,cs),
(482,186,o),
(478,182,o),
(476,175,cs),
(448,76,o),
(423,48,o),
(396,48,cs),
(375,48,o),
(365,66,o),
(375,104,cs),
(451,394,ls),
(473,476,o),
(446,516,o),
(397,516,cs),
(345,516,o),
(274,462,o),
(196,300,cs),
(192,292,o),
(184,294,o),
(186,303,cs),
(211,411,ls),
(228,486,o),
(207,516,o),
(163,516,cs),
(120,516,o),
(64,474,o),
(21,337,cs),
(17,326,o),
(21,319,o),
(29,319,cs),
(35,319,o),
(40,323,o),
(43,332,cs),
(79,431,o),
(107,459,o),
(131,459,cs),
(151,459,o),
(155,441,o),
(148,412,cs),
(53,13,ls)
);
}
);
};
layerId = m002;
shapes = (
{
closed = 1;
nodes = (
(258,-215,o),
(309,-147,o),
(338,-37,cs),
(451,394,ls),
(472,476,o),
(446,516,o),
(397,516,cs),
(345,516,o),
(274,462,o),
(196,300,cs),
(192,292,o),
(184,294,o),
(186,303,cs),
(211,411,ls),
(228,486,o),
(207,516,o),
(163,516,cs),
(120,516,o),
(64,474,o),
(21,337,cs),
(17,326,o),
(21,319,o),
(29,319,cs),
(35,319,o),
(40,323,o),
(43,332,cs),
(79,431,o),
(107,459,o),
(131,459,cs),
(151,459,o),
(155,441,o),
(148,412,cs),
(53,13,ls),
(51,4,o),
(55,0,o),
(64,0,cs),
(105,0,ls),
(113,0,o),
(117,3,o),
(119,11,cs),
(166,218,o),
(295,473,o),
(370,473,cs),
(389,473,o),
(401,456,o),
(388,404,cs),
(254,-114,ls),
(237,-178,o),
(226,-188,o),
(212,-188,cs),
(174,-188,o),
(207,-106,o),
(156,-106,cs),
(138,-106,o),
(121,-120,o),
(121,-148,cs),
(121,-186,o),
(146,-215,o),
(193,-215,cs)
);
}
);
width = 497;
}
);
unicode = 331;
},
{
glyphname = o;
kernLeft = o;
kernRight = o;
lastChange = "2022-08-31 20:21:46 +0000";
layers = (
{
anchors = (
{
name = bottom;
pos = (148,0);
},
{
name = center;
pos = (207,255);
},
{
name = ogonek;
pos = (316,10);
},
{
name = top;
pos = (266,510);
},
{
name = topright;
pos = (453,510);
}
);
background = {
shapes = (
{
closed = 1;
nodes = (
(297,-9,o),
(413,146,o),
(413,315,cs),
(413,436,o),
(354,516,o),
(264,516,cs),
(137,516,o),
(21,361,o),
(21,191,cs),
(21,71,o),
(80,-9,o),
(170,-9,cs)
);
},
{
closed = 1;
nodes = (
(115,16,o),
(89,65,o),
(89,155,cs),
(89,324,o),
(179,491,o),
(270,491,cs),
(319,491,o),
(345,442,o),
(345,352,cs),
(345,183,o),
(255,16,o),
(164,16,cs)
);
}
);
};
layerId = m002;
shapes = (
{
closed = 1;
nodes = (
(269,-9,o),
(393,151,o),
(393,325,cs),
(393,443,o),
(342,516,o),
(259,516,cs),
(144,516,o),
(20,356,o),
(20,182,cs),
(20,64,o),
(71,-9,o),
(154,-9,cs)
);
},
{
closed = 1;
nodes = (
(109,15,o),
(88,59,o),
(88,141,cs),
(88,310,o),
(176,492,o),
(260,492,cs),
(304,492,o),
(325,449,o),
(325,367,cs),
(325,199,o),
(236,15,o),
(152,15,cs)
);
}
);
width = 414;
}
);
unicode = 111;
},
{
glyphname = oslash;
kernLeft = o;
kernRight = o;
lastChange = "2022-08-23 20:01:47 +0000";
layers = (
{
layerId = m002;
shapes = (
{
ref = o;
},
{
closed = 1;
nodes = (
(26,-50,ls),
(31,-50,o),
(35,-48,o),
(38,-42,cs),
(393,548,ls),
(397,555,o),
(394,560,o),
(387,560,cs),
(378,560,ls),
(373,560,o),
(369,558,o),
(366,552,cs),
(11,-38,ls),
(7,-45,o),
(10,-50,o),
(17,-50,cs)
);
}
);
width = 414;
}
);
unicode = 248;
},
{
glyphname = oe;
kernLeft = o;
kernRight = e;
lastChange = "2022-08-23 20:01:51 +0000";
layers = (
{
layerId = m002;
shapes = (
{
closed = 1;
nodes = (
(269,-9,o),
(383,151,o),
(383,325,cs),
(383,443,o),
(342,516,o),
(259,516,cs),
(144,516,o),
(20,356,o),
(20,182,cs),
(20,64,o),
(71,-9,o),
(154,-9,cs)
);
},
{
closed = 1;
nodes = (
(109,15,o),
(88,59,o),
(88,141,cs),
(88,310,o),
(176,492,o),
(260,492,cs),
(304,492,o),
(325,449,o),
(325,367,cs),
(325,199,o),
(236,15,o),
(152,15,cs)
);
},
{
closed = 1;
nodes = (
(488,-9,o),
(550,51,o),
(593,169,cs),
(596,178,o),
(594,186,o),
(586,186,cs),
(580,186,o),
(576,183,o),
(574,177,cs),
(542,91,o),
(491,43,o),
(441,43,cs),
(396,43,o),
(368,82,o),
(368,158,cs),
(368,167,o),
(368,177,o),
(369,187,cs),
(370,201,o),
(378,209,o),
(392,212,cs),
(543,246,o),
(644,342,o),
(644,433,cs),
(644,484,o),
(618,516,o),
(556,516,cs),
(440,516,o),
(299,327,o),
(299,150,cs),
(299,48,o),
(345,-9,o),
(416,-9,cs)
);
},
{
closed = 1;
nodes = (
(409,376,o),
(490,491,o),
(549,491,cs),
(572,491,o),
(582,477,o),
(582,449,cs),
(582,367,o),
(517,269,o),
(393,236,cs),
(383,233,o),
(376,240,o),
(379,250,cs)
);
}
);
width = 635;
}
);
metricRight = e;
unicode = 339;
},
{
glyphname = p;
kernLeft = n;
kernRight = o;
lastChange = "2022-08-31 17:39:19 +0000";
layers = (
{
background = {
shapes = (
{
closed = 1;
nodes = (
(104,-205,ls),
(115,-205,o),
(121,-201,o),
(121,-193,cs),
(121,-187,o),
(117,-183,o),
(103,-181,cs),
(77,-177,ls),
(52,-173,o),
(45,-168,o),
(52,-138,cs),
(212,556,ls),
(216,573,o),
(207,583,o),
(191,583,cs),
(173,583,ls),
(158,583,o),
(150,575,o),
(147,562,cs),
(-15,-138,ls),
(-22,-168,o),
(-32,-176,o),
(-59,-180,cs),
(-73,-182,ls),
(-82,-183,o),
(-89,-187,o),
(-89,-194,cs),
(-89,-200,o),
(-86,-205,o),
(-76,-205,cs)
);
},
{
closed = 1;
nodes = (
(281,-9,o),
(430,163,o),
(430,345,cs),
(430,461,o),
(360,516,o),
(262,516,cs),
(180,516,o),
(107,481,o),
(55,446,cs),
(48,441,o),
(45,437,o),
(45,432,cs),
(45,422,o),
(57,420,o),
(66,426,cs),
(126,465,o),
(187,489,o),
(246,489,cs),
(320,489,o),
(360,452,o),
(360,363,cs),
(360,190,o),
(245,16,o),
(153,16,cs),
(111,16,o),
(95,53,o),
(114,132,c),
(60,41,l),
(73,11,o),
(107,-9,o),
(151,-9,cs)
);
}
);
};
layerId = m002;
shapes = (
{
closed = 1;
nodes = (
(104,-205,ls),
(115,-205,o),
(121,-201,o),
(121,-193,cs),
(121,-187,o),
(117,-183,o),
(103,-181,cs),
(77,-177,ls),
(52,-173,o),
(45,-168,o),
(52,-138,cs),
(82,-6,ls),
(84,3,o),
(91,6,o),
(100,2,cs),
(115,-5,o),
(132,-9,o),
(151,-9,cs),
(281,-9,o),
(430,163,o),
(430,345,cs),
(430,461,o),
(360,516,o),
(262,516,cs),
(247,516,o),
(233,515,o),
(218,513,cs),
(208,511,o),
(203,517,o),
(205,527,cs),
(212,556,ls),
(216,573,o),
(207,583,o),
(191,583,cs),
(173,583,ls),
(158,583,o),
(150,575,o),
(147,562,cs),
(134,505,ls),
(131,492,o),
(125,485,o),
(113,479,cs),
(92,469,o),
(73,458,o),
(55,446,cs),
(48,441,o),
(45,437,o),
(45,432,cs),
(45,422,o),
(54,418,o),
(66,426,cs),
(78,434,o),
(89,441,o),
(103,448,cs),
(114,454,o),
(121,447,o),
(118,436,cs),
(-15,-138,ls),
(-22,-168,o),
(-32,-176,o),
(-59,-180,cs),
(-73,-182,ls),
(-82,-183,o),
(-89,-187,o),
(-89,-194,cs),
(-89,-200,o),
(-86,-205,o),
(-76,-205,cs)
);
},
{
closed = 1;
nodes = (
(189,455,ls),
(194,478,o),
(212,489,o),
(246,489,cs),
(320,489,o),
(360,452,o),
(360,363,cs),
(360,190,o),
(245,16,o),
(153,16,cs),
(114,16,o),
(98,48,o),
(110,115,c)
);
}
);
width = 450;
}
);
unicode = 112;
},
{
glyphname = thorn;
kernLeft = h;
kernRight = o;
lastChange = "2022-08-23 20:02:04 +0000";
layers = (
{
layerId = m002;
shapes = (
{
closed = 1;
nodes = (
(92,-205,ls),
(103,-205,o),
(109,-201,o),
(109,-193,cs),
(109,-187,o),
(105,-183,o),
(91,-181,cs),
(65,-177,ls),
(40,-173,o),
(33,-168,o),
(40,-138,cs),
(70,-6,ls),
(72,3,o),
(79,6,o),
(88,2,cs),
(103,-5,o),
(120,-9,o),
(139,-9,cs),
(269,-9,o),
(418,163,o),
(418,345,cs),
(418,461,o),
(348,516,o),
(250,516,cs),
(235,516,o),
(221,515,o),
(206,513,cs),
(196,511,o),
(191,517,o),
(193,527,cs),
(242,728,ls),
(244,738,o),
(240,743,o),
(233,743,cs),
(227,743,o),
(223,741,o),
(218,737,cs),
(195,718,o),
(154,708,o),
(106,700,cs),
(98,699,o),
(93,695,o),
(92,689,cs),
(91,682,o),
(95,677,o),
(105,676,cs),
(135,673,ls),
(154,671,o),
(159,664,o),
(153,640,cs),
(122,505,ls),
(119,492,o),
(113,485,o),
(101,479,cs),
(80,469,o),
(61,458,o),
(43,446,cs),
(36,441,o),
(33,437,o),
(33,432,cs),
(33,422,o),
(42,418,o),
(54,426,cs),
(66,434,o),
(77,441,o),
(91,448,cs),
(102,454,o),
(109,447,o),
(106,436,cs),
(-27,-138,ls),
(-34,-168,o),
(-44,-176,o),
(-71,-180,cs),
(-85,-182,ls),
(-94,-183,o),
(-101,-187,o),
(-101,-194,cs),
(-101,-200,o),
(-98,-205,o),
(-88,-205,cs)
);
},
{
closed = 1;
nodes = (
(102,16,o),
(86,48,o),
(98,115,c),
(177,455,ls),
(182,478,o),
(200,489,o),
(234,489,cs),
(308,489,o),
(348,452,o),
(348,363,cs),
(348,190,o),
(233,16,o),
(141,16,cs)
);
}
);
width = 438;
}
);
unicode = 254;
},
{
glyphname = q;
kernLeft = o;
lastChange = "2022-09-01 20:20:31 +0000";
layers = (
{
background = {
shapes = (
{
closed = 1;
nodes = (
(141,-9,o),
(194,35,o),
(247,135,cs),
(276,190,l),
(308,190,l),
(369,471,l),
(362,471,l),
(349,500,o),
(324,516,o),
(290,516,cs),
(160,516,o),
(13,303,o),
(13,113,cs),
(13,33,o),
(41,-9,o),
(90,-9,cs)
);
},
{
closed = 1;
nodes = (
(95,42,o),
(81,55,o),
(81,102,cs),
(81,275,o),
(199,491,o),
(287,491,cs),
(314,491,o),
(330,469,o),
(330,430,cs),
(330,318,o),
(194,42,o),
(114,42,cs)
);
},
{
closed = 1;
nodes = (
(314,-205,ls),
(325,-205,o),
(331,-201,o),
(331,-193,cs),
(331,-187,o),
(327,-183,o),
(313,-181,cs),
(296,-178,ls),
(272,-174,o),
(265,-168,o),
(272,-138,cs),
(419,496,ls),
(421,505,o),
(416,510,o),
(409,510,cs),
(401,510,o),
(395,506,o),
(387,496,cs),
(338,433,l),
(205,-138,ls),
(198,-168,o),
(189,-178,o),
(162,-180,cs),
(137,-182,ls),
(128,-183,o),
(121,-187,o),
(121,-194,cs),
(121,-200,o),
(124,-205,o),
(134,-205,cs)
);
}
);
};
guides = (
{
angle = 76.918;
pos = (375,305);
}
);
layerId = m002;
shapes = (
{
closed = 1;
nodes = (
(314,-205,ls),
(325,-205,o),
(331,-201,o),
(331,-193,cs),
(331,-187,o),
(327,-183,o),
(313,-181,cs),
(296,-178,ls),
(272,-174,o),
(265,-168,o),
(272,-138,cs),
(419,496,ls),
(421,505,o),
(416,510,o),
(409,510,cs),
(401,510,o),
(393,506,o),
(378,485,cs),
(374,479,o),
(371,476,o),
(366,476,cs),
(361,476,o),
(358,479,o),
(354,485,cs),
(339,506,o),
(315,516,o),
(290,516,cs),
(160,516,o),
(13,303,o),
(13,113,cs),
(13,33,o),
(41,-9,o),
(90,-9,cs),
(141,-9,o),
(197,33,o),
(266,171,cs),
(270,179,o),
(278,177,o),
(276,168,cs),
(205,-138,ls),
(198,-168,o),
(189,-178,o),
(162,-180,cs),
(137,-182,ls),
(128,-183,o),
(121,-187,o),
(121,-194,cs),
(121,-200,o),
(124,-205,o),
(134,-205,cs)
);
},
{
closed = 1;
nodes = (
(95,42,o),
(81,55,o),
(81,102,cs),
(81,275,o),
(199,491,o),
(287,491,cs),
(314,491,o),
(330,469,o),
(330,430,cs),
(330,318,o),
(194,42,o),
(114,42,cs)
);
}
);
width = 425;
}
);
unicode = 113;
},
{
glyphname = r;
kernLeft = n;
kernRight = r;
lastChange = "2022-09-01 19:37:15 +0000";
layers = (
{
anchors = (
{
name = bottom;
pos = (86,0);
},
{
name = top;
pos = (243,510);
}
);
background = {
shapes = (
{
closed = 1;
nodes = (
(211,411,ls),
(228,486,o),
(207,516,o),
(163,516,cs),
(120,516,o),
(64,474,o),
(21,337,cs),
(17,326,o),
(21,319,o),
(29,319,cs),
(35,319,o),
(40,323,o),
(43,332,cs),
(79,431,o),
(107,459,o),
(131,459,cs),
(151,459,o),
(155,441,o),
(148,412,cs),
(58,27,ls),
(54,11,o),
(62,0,o),
(79,0,cs),
(95,0,ls),
(109,0,o),
(118,7,o),
(121,21,cs)
);
},
{
closed = 1;
nodes = (
(170,234,o),
(266,460,o),
(307,460,cs),
(332,460,o),
(319,407,o),
(361,407,cs),
(386,407,o),
(404,429,o),
(404,462,cs),
(404,495,o),
(386,516,o),
(350,516,cs),
(297,516,o),
(261,476,o),
(222,388,cs),
(198,334,l),
(183,334,l),
(121,21,l)
);
}
);
};
layerId = m002;
shapes = (
{
closed = 1;
nodes = (
(105,0,ls),
(113,0,o),
(117,3,o),
(119,11,cs),
(169,234,o),
(266,460,o),
(307,460,cs),
(332,460,o),
(319,407,o),
(361,407,cs),
(386,407,o),
(404,429,o),
(404,462,cs),
(404,495,o),
(386,516,o),
(350,516,cs),
(297,516,o),
(260,477,o),
(210,361,cs),
(206,353,o),
(198,355,o),
(200,364,cs),
(211,411,ls),
(228,485,o),
(207,516,o),
(163,516,cs),
(120,516,o),
(64,474,o),
(21,337,cs),
(17,326,o),
(21,319,o),
(29,319,cs),
(35,319,o),
(40,323,o),
(43,332,cs),
(79,431,o),
(107,459,o),
(131,459,cs),
(151,459,o),
(155,441,o),
(148,412,cs),
(53,13,ls),
(51,4,o),
(55,0,o),
(64,0,cs)
);
}
);
width = 368;
}
);
unicode = 114;
},
{
glyphname = s;
kernLeft = s;
kernRight = s;
lastChange = "2022-09-01 21:00:18 +0000";
layers = (
{
anchors = (
{
name = bottom;
pos = (89,0);
},
{
name = top;
pos = (207,510);
}
);
background = {
shapes = (
{
closed = 1;
nodes = (
(252,146,ls),
(249,201,o),
(214,244,o),
(178,287,cs),
(147,326,o),
(116,363,o),
(114,407,cs),
(110,451,o),
(141,489,o),
(184,489,cs),
(230,489,o),
(245,453,o),
(253,419,cs),
(261,384,o),
(260,349,o),
(276,349,cs),
(287,349,o),
(288,355,o),
(299,405,cs),
(304,433,o),
(308,456,o),
(307,476,cs),
(307,490,o),
(253,515,o),
(198,515,cs),
(114,515,o),
(59,435,o),
(63,355,cs),
(67,303,o),
(96,265,o),
(129,228,cs),
(162,192,o),
(193,153,o),
(195,101,cs),
(197,59,o),
(165,14,o),
(122,14,cs),
(54,14,o),
(29,78,o),
(26,148,cs),
(24,181,o),
(23,188,o),
(13,188,cs),
(2,188,o),
(1,181,o),
(-5,145,cs),
(-14,96,o),
(-18,56,o),
(-17,38,cs),
(-17,32,o),
(-8,24,o),
(3,17,cs),
(26,2,o),
(63,-12,o),
(97,-12,cs),
(142,-12,o),
(184,6,o),
(213,36,cs),
(239,64,o),
(254,102,o),
(252,145,cs)
);
}
);
};
layerId = m002;
shapes = (
{
closed = 1;
nodes = (
(190,-9,o),
(252,52,o),
(252,137,cs),
(252,181,o),
(236,216,o),
(182,288,cs),
(140,344,o),
(115,374,o),
(115,418,cs),
(115,459,o),
(144,493,o),
(187,493,cs),
(235,493,o),
(245,461,o),
(250,381,cs),
(253,333,ls),
(254,324,o),
(257,319,o),
(264,319,cs),
(270,319,o),
(274,324,o),
(276,332,cs),
(304,466,ls),
(306,474,o),
(304,479,o),
(298,484,cs),
(275,505,o),
(239,516,o),
(203,516,cs),
(122,516,o),
(63,461,o),
(63,377,cs),
(63,332,o),
(85,294,o),
(130,236,cs),
(181,171,o),
(200,143,o),
(200,97,cs),
(200,44,o),
(164,16,o),
(122,16,cs),
(73,16,o),
(35,50,o),
(32,126,cs),
(30,174,ls),
(30,183,o),
(25,188,o),
(19,188,cs),
(13,188,o),
(8,183,o),
(7,175,cs),
(-15,44,ls),
(-16,36,o),
(-15,31,o),
(-9,26,cs),
(16,6,o),
(72,-9,o),
(116,-9,cs)
);
}
);
width = 302;
}
);
unicode = 115;
},
{
glyphname = germandbls;
kernLeft = f;
kernRight = s;
lastChange = "2022-08-23 20:02:28 +0000";
layers = (
{
background = {
shapes = (
{
closed = 1;
nodes = (
(397,-9,o),
(461,46,o),
(480,132,cs),
(495,197,o),
(473,252,o),
(422,294,cs),
(360,345,o),
(345,368,o),
(354,405,cs),
(372,483,o),
(533,523,o),
(559,638,cs),
(571,687,o),
(543,748,o),
(456,748,c),
(344,748,o),
(255,654,o),
(230,544,cs),
(224,521,o),
(205,506,o),
(173,503,cs),
(165,502,o),
(160,498,o),
(159,492,cs),
(157,486,o),
(161,482,o),
(168,482,cs),
(191,482,ls),
(206,482,o),
(213,473,o),
(210,458,cs),
(119,67,ls),
(113,39,o),
(104,27,o),
(76,25,cs),
(50,23,ls),
(41,22,o),
(36,17,o),
(35,11,cs),
(33,4,o),
(37,0,o),
(47,0,cs),
(152,0,ls),
(165,0,o),
(174,7,o),
(177,20,c),
(304,570,ls),
(327,672,o),
(386,717,o),
(444,717,cs),
(492,717,o),
(507,688,o),
(496,643,cs),
(466,512,o),
(329,490,o),
(303,379,cs),
(291,324,o),
(309,282,o),
(367,235,cs),
(415,196,o),
(433,155,o),
(421,102,cs),
(408,49,o),
(370,17,o),
(334,17,cs),
(290,17,o),
(276,45,o),
(276,140,cs),
(276,151,o),
(273,156,o),
(265,156,cs),
(257,156,o),
(250,149,o),
(248,139,cs),
(225,27,ls),
(223,19,o),
(224,14,o),
(230,10,cs),
(249,-1,o),
(276,-9,o),
(314,-9,cs)
);
}
);
};
layerId = m002;
shapes = (
{
closed = 1;
nodes = (
(348,-9,o),
(395,74,o),
(395,139,cs),
(395,190,o),
(374,231,o),
(329,276,cs),
(278,327,o),
(266,356,o),
(266,384,cs),
(266,494,o),
(472,526,o),
(472,642,cs),
(472,700,o),
(425,740,o),
(353,740,cs),
(245,740,o),
(178,660,o),
(152,561,cs),
(142,523,o),
(120,510,o),
(91,510,cs),
(80,510,o),
(73,507,o),
(73,499,cs),
(73,493,o),
(77,491,o),
(83,490,cs),
(104,486,ls),
(122,483,o),
(128,470,o),
(123,449,cs),
(34,67,ls),
(27,39,o),
(19,27,o),
(-9,25,cs),
(-35,23,ls),
(-44,22,o),
(-49,17,o),
(-50,11,cs),
(-52,4,o),
(-48,0,o),
(-38,0,cs),
(67,0,ls),
(80,0,o),
(89,7,o),
(92,20,cs),
(220,578,ls),
(241,669,o),
(290,709,o),
(348,709,cs),
(389,709,o),
(411,685,o),
(411,642,cs),
(411,507,o),
(215,491,o),
(215,351,cs),
(215,310,o),
(236,271,o),
(282,226,cs),
(319,189,o),
(338,164,o),
(338,113,cs),
(338,49,o),
(309,17,o),
(259,17,cs),
(206,17,o),
(193,54,o),
(192,151,cs),
(192,163,o),
(190,169,o),
(180,169,cs),
(173,169,o),
(167,163,o),
(165,154,cs),
(143,42,ls),
(141,34,o),
(142,29,o),
(148,24,cs),
(177,2,o),
(222,-9,o),
(253,-9,cs)
);
}
);
width = 426;
}
);
metricLeft = f;
unicode = 223;
},
{
glyphname = t;
kernLeft = t;
kernRight = t;
lastChange = "2022-09-01 20:40:20 +0000";
layers = (
{
anchors = (
{
name = bottom;
pos = (98,0);
},
{
name = center;
pos = (136,255);
},
{
name = top;
pos = (195,510);
},
{
name = topright;
pos = (298,760);
}
);
background = {
shapes = (
{
closed = 1;
nodes = (
(150,-9,o),
(204,28,o),
(241,186,c),
(219,186,l),
(191,78,o),
(162,48,o),
(131,48,cs),
(109,48,o),
(100,66,o),
(107,95,cs),
(235,649,l),
(171,649,l),
(45,105,ls),
(26,25,o),
(57,-9,o),
(102,-9,cs)
);
},
{
closed = 1;
nodes = (
(289,482,l),
(296,510,l),
(69,510,l),
(62,482,l)
);
}
);
};
guides = (
{
pos = (15,186);
}
);
layerId = m002;
shapes = (
{
closed = 1;
nodes = (
(146,-9,o),
(195,22,o),
(234,158,cs),
(240,179,o),
(237,186,o),
(228,186,cs),
(222,186,o),
(218,182,o),
(215,173,cs),
(185,75,o),
(161,48,o),
(131,48,cs),
(109,48,o),
(100,66,o),
(107,95,cs),
(191,461,ls),
(194,475,o),
(204,482,o),
(218,482,cs),
(272,482,ls),
(286,482,o),
(293,488,o),
(293,497,cs),
(293,505,o),
(289,510,o),
(276,510,cs),
(219,510,ls),
(210,510,o),
(205,516,o),
(207,525,cs),
(232,636,ls),
(234,645,o),
(230,649,o),
(221,649,cs),
(180,649,ls),
(172,649,o),
(168,646,o),
(166,638,cs),
(142,531,ls),
(139,516,o),
(129,510,o),
(115,510,cs),
(79,510,ls),
(70,510,o),
(62,504,o),
(62,495,cs),
(62,488,o),
(67,482,o),
(76,482,cs),
(114,482,ls),
(123,482,o),
(128,476,o),
(126,467,cs),
(43,105,ls),
(25,25,o),
(57,-9,o),
(102,-9,cs)
);
}
);
width = 272;
}
);
unicode = 116;
},
{
glyphname = u;
kernLeft = u;
kernRight = u;
lastChange = "2022-09-01 20:40:25 +0000";
layers = (
{
anchors = (
{
name = bottom;
pos = (195,0);
},
{
name = ogonek;
pos = (378,0);
},
{
name = top;
pos = (293,510);
},
{
name = topright;
pos = (547,510);
}
);
background = {
shapes = (
{
closed = 1;
nodes = (
(169,-9,o),
(230,51,o),
(286,159,cs),
(322,229,l),
(327,229,l),
(296,96,ls),
(280,26,o),
(296,-9,o),
(344,-9,cs),
(398,-9,o),
(450,57,o),
(486,170,cs),
(490,180,o),
(486,188,o),
(478,188,cs),
(472,188,o),
(467,184,o),
(464,175,cs),
(433,90,o),
(404,48,o),
(376,48,cs),
(357,48,o),
(351,64,o),
(359,95,cs),
(449,483,ls),
(453,499,o),
(445,510,o),
(428,510,cs),
(412,510,ls),
(398,510,o),
(389,503,o),
(386,489,cs),
(335,273,o),
(207,34,o),
(142,34,cs),
(121,34,o),
(116,57,o),
(129,103,cs),
(209,393,ls),
(230,469,o),
(213,516,o),
(165,516,cs),
(105,516,o),
(53,453,o),
(22,341,cs),
(19,329,o),
(22,321,o),
(31,321,cs),
(38,321,o),
(42,325,o),
(44,332,cs),
(67,414,o),
(100,464,o),
(131,464,cs),
(150,464,o),
(155,441,o),
(145,403,cs),
(66,113,ls),
(46,40,o),
(66,-9,o),
(115,-9,cs)
);
}
);
};
layerId = m002;
shapes = (
{
closed = 1;
nodes = (
(169,-9,o),
(235,50,o),
(312,210,cs),
(316,218,o),
(324,216,o),
(322,207,cs),
(296,96,ls),
(280,26,o),
(296,-9,o),
(344,-9,cs),
(398,-9,o),
(450,57,o),
(486,170,cs),
(490,180,o),
(486,188,o),
(478,188,cs),
(472,188,o),
(467,184,o),
(464,175,cs),
(433,90,o),
(404,48,o),
(376,48,cs),
(357,48,o),
(352,64,o),
(359,95,cs),
(453,497,ls),
(455,506,o),
(451,510,o),
(442,510,cs),
(402,510,ls),
(394,510,o),
(390,507,o),
(388,499,cs),
(339,283,o),
(207,34,o),
(142,34,cs),
(121,34,o),
(116,57,o),
(129,103,cs),
(209,393,ls),
(230,469,o),
(213,516,o),
(165,516,cs),
(105,516,o),
(53,453,o),
(22,341,cs),
(19,329,o),
(22,321,o),
(31,321,cs),
(38,321,o),
(42,325,o),
(44,332,cs),
(67,414,o),
(100,464,o),
(131,464,cs),
(150,464,o),
(155,441,o),
(145,403,cs),
(66,113,ls),
(46,40,o),
(66,-9,o),
(115,-9,cs)
);
}
);
width = 508;
}
);
unicode = 117;
},
{
glyphname = v;
lastChange = "2022-09-01 20:40:32 +0000";
layers = (
{
background = {
shapes = (
{
closed = 1;
nodes = (
(283,-9,o),
(418,207,o),
(418,410,cs),
(418,480,o),
(402,516,o),
(370,516,cs),
(349,516,o),
(336,501,o),
(336,477,cs),
(336,437,o),
(373,416,o),
(373,332,cs),
(373,193,o),
(262,26,o),
(170,26,cs),
(131,26,o),
(117,57,o),
(132,113,cs),
(211,411,ls),
(228,476,o),
(211,516,o),
(166,516,cs),
(107,516,o),
(55,448,o),
(17,321,c),
(41,321,l),
(75,418,o),
(102,459,o),
(131,459,cs),
(149,459,o),
(155,442,o),
(147,412,cs),
(70,123,ls),
(50,46,o),
(85,-9,o),
(156,-9,c)
);
}
);
};
layerId = m002;
shapes = (
{
closed = 1;
nodes = (
(268,-9,o),
(398,207,o),
(398,410,cs),
(398,480,o),
(382,516,o),
(350,516,cs),
(329,516,o),
(316,501,o),
(316,477,cs),
(316,437,o),
(353,416,o),
(353,332,cs),
(353,193,o),
(242,26,o),
(165,26,cs),
(131,26,o),
(117,57,o),
(132,113,cs),
(211,411,ls),
(228,476,o),
(211,516,o),
(166,516,cs),
(109,516,o),
(59,454,o),
(21,335,cs),
(18,325,o),
(23,319,o),
(30,319,cs),
(37,319,o),
(41,323,o),
(44,331,cs),
(76,421,o),
(102,459,o),
(130,459,cs),
(148,459,o),
(154,442,o),
(146,412,cs),
(69,123,ls),
(49,46,o),
(85,-9,o),
(151,-9,cs)
);
}
);
width = 412;
}
);
unicode = 118;
},
{
glyphname = w;
kernLeft = w;
kernRight = w;
lastChange = "2022-09-01 20:49:11 +0000";
layers = (
{
anchors = (
{
name = bottom;
pos = (246,0);
},
{
name = top;
pos = (396,510);
}
);
background = {
shapes = (
{
closed = 1;
nodes = (
(196,-9,o),
(249,45,o),
(291,138,c),
(301,138,l),
(379,488,l),
(364,489,l),
(302,173,o),
(216,26,o),
(150,26,cs),
(128,26,o),
(115,46,o),
(127,92,cs),
(211,411,ls),
(228,476,o),
(211,516,o),
(166,516,cs),
(109,516,o),
(59,454,o),
(21,335,cs),
(18,325,o),
(23,319,o),
(30,319,cs),
(37,319,o),
(41,323,o),
(44,331,cs),
(76,421,o),
(102,459,o),
(130,459,cs),
(148,459,o),
(154,442,o),
(146,412,cs),
(66,110,ls),
(47,37,o),
(82,-9,o),
(139,-9,cs)
);
},
{
closed = 1;
nodes = (
(485,-9,o),
(592,207,o),
(592,410,cs),
(592,480,o),
(586,516,o),
(554,516,cs),
(533,516,o),
(520,501,o),
(520,477,cs),
(520,437,o),
(547,416,o),
(547,332,cs),
(547,193,o),
(457,26,o),
(379,26,cs),
(353,26,o),
(341,48,o),
(350,92,cs),
(427,483,ls),
(430,499,o),
(423,510,o),
(406,510,cs),
(390,510,ls),
(376,510,o),
(367,503,o),
(364,489,cs),
(289,110,ls),
(275,37,o),
(308,-9,o),
(366,-9,cs)
);
}
);
};
guides = (
{
angle = 78.8592;
pos = (389,288);
},
{
angle = 78.6901;
pos = (331,325);
}
);
layerId = m002;
shapes = (
{
closed = 1;
nodes = (
(197,-9,o),
(242,50,o),
(280,125,cs),
(284,133,o),
(292,131,o),
(290,122,cs),
(273,37,o),
(308,-9,o),
(366,-9,cs),
(485,-9,o),
(592,207,o),
(592,410,cs),
(592,480,o),
(586,516,o),
(554,516,cs),
(533,516,o),
(520,501,o),
(520,477,cs),
(520,437,o),
(547,416,o),
(547,332,cs),
(547,193,o),
(457,26,o),
(379,26,cs),
(353,26,o),
(341,48,o),
(350,92,cs),
(430,497,ls),
(432,506,o),
(428,510,o),
(419,510,cs),
(380,510,ls),
(372,510,o),
(368,507,o),
(366,499,c),
(304,189,o),
(215,26,o),
(150,26,cs),
(128,26,o),
(115,46,o),
(127,92,cs),
(211,411,ls),
(228,476,o),
(211,516,o),
(166,516,cs),
(109,516,o),
(59,454,o),
(21,335,cs),
(18,325,o),
(23,319,o),
(30,319,cs),
(37,319,o),
(41,323,o),
(44,331,cs),
(76,421,o),
(102,459,o),
(130,459,cs),
(148,459,o),
(154,442,o),
(146,412,cs),
(66,110,ls),
(47,37,o),
(82,-9,o),
(137,-9,cs)
);
}
);
width = 609;
}
);
unicode = 119;
},
{
glyphname = x;
lastChange = "2022-09-01 20:49:22 +0000";
layers = (
{
background = {
shapes = (
{
closed = 1;
nodes = (
(328,-9,o),
(384,32,o),
(402,169,cs),
(403,180,o),
(400,187,o),
(392,187,cs),
(386,187,o),
(380,183,o),
(378,174,cs),
(361,75,o),
(331,43,o),
(306,43,cs),
(286,43,o),
(274,59,o),
(271,100,cs),
(250,421,ls),
(245,490,o),
(222,516,o),
(181,516,cs),
(139,516,o),
(80,474,o),
(56,337,cs),
(54,326,o),
(59,319,o),
(67,319,cs),
(73,319,o),
(78,323,o),
(80,332,cs),
(97,431,o),
(126,459,o),
(155,459,cs),
(171,459,o),
(182,446,o),
(184,412,cs),
(206,95,ls),
(211,19,o),
(237,-9,o),
(287,-9,cs)
);
},
{
closed = 1;
nodes = (
(196,268,l),
(158,141,o),
(113,46,o),
(78,46,cs),
(49,46,o),
(61,99,o),
(18,99,cs),
(-8,99,o),
(-24,77,o),
(-24,46,cs),
(-24,13,o),
(-4,-10,o),
(33,-10,cs),
(87,-10,o),
(132,36,o),
(171,127,cs),
(195,185,l),
(207,185,l)
);
},
{
closed = 1;
nodes = (
(258,261,l),
(276,365,o),
(328,460,o),
(363,460,cs),
(390,460,o),
(378,407,o),
(421,407,cs),
(447,407,o),
(463,429,o),
(463,460,cs),
(463,493,o),
(443,516,o),
(406,516,cs),
(352,516,o),
(309,472,o),
(268,379,cs),
(259,358,l),
(248,358,l)
);
}
);
};
layerId = m002;
shapes = (
{
closed = 1;
nodes = (
(87,-10,o),
(133,36,o),
(171,127,cs),
(189,171,ls),
(193,179,o),
(200,179,o),
(201,170,cs),
(206,95,ls),
(211,19,o),
(237,-9,o),
(287,-9,cs),
(328,-9,o),
(384,32,o),
(402,169,cs),
(403,180,o),
(400,187,o),
(392,187,cs),
(386,187,o),
(380,183,o),
(378,174,cs),
(361,75,o),
(331,43,o),
(306,43,cs),
(286,43,o),
(274,59,o),
(271,100,cs),
(262,246,ls),
(261,264,o),
(261,277,o),
(265,296,cs),
(287,385,o),
(332,460,o),
(363,460,cs),
(390,460,o),
(378,407,o),
(421,407,cs),
(447,407,o),
(463,429,o),
(463,460,cs),
(463,493,o),
(443,516,o),
(406,516,cs),
(356,516,o),
(314,478,o),
(266,373,cs),
(262,365,o),
(254,366,o),
(253,374,cs),
(250,421,ls),
(246,490,o),
(222,516,o),
(181,516,cs),
(139,516,o),
(80,474,o),
(56,337,cs),
(54,326,o),
(59,319,o),
(67,319,cs),
(73,319,o),
(78,323,o),
(80,332,cs),
(97,431,o),
(126,459,o),
(155,459,cs),
(171,459,o),
(182,446,o),
(184,412,cs),
(192,288,ls),
(193,269,o),
(192,256,o),
(186,238,cs),
(151,126,o),
(111,46,o),
(78,46,cs),
(49,46,o),
(61,99,o),
(18,99,cs),
(-8,99,o),
(-24,77,o),
(-24,46,cs),
(-24,13,o),
(-4,-10,o),
(33,-10,cs)
);
}
);
width = 450;
}
);
unicode = 120;
},
{
glyphname = y;
kernLeft = y;
kernRight = y;
lastChange = "2022-09-01 20:21:06 +0000";
layers = (
{
anchors = (
{
name = bottom;
pos = (149,0);
},
{
name = top;
pos = (267,510);
}
);
background = {
shapes = (
{
closed = 1;
nodes = (
(144,-215,o),
(408,177,o),
(408,410,cs),
(408,480,o),
(392,516,o),
(360,516,cs),
(339,516,o),
(326,501,o),
(326,477,cs),
(326,437,o),
(363,416,o),
(363,332,cs),
(363,240,o),
(298,118,o),
(230,24,c),
(225,24,l),
(210,421,ls),
(207,490,o),
(182,516,o),
(141,516,cs),
(99,516,o),
(40,474,o),
(16,337,cs),
(14,326,o),
(19,319,o),
(27,319,cs),
(33,319,o),
(38,323,o),
(40,332,cs),
(57,431,o),
(86,459,o),
(115,459,cs),
(131,459,o),
(143,446,o),
(144,412,cs),
(159,53,ls),
(164,-76,o),
(81,-173,o),
(7,-173,cs),
(-45,-173,o),
(-21,-106,o),
(-72,-106,cs),
(-90,-106,o),
(-107,-120,o),
(-107,-148,cs),
(-107,-186,o),
(-78,-215,o),
(-27,-215,cs)
);
}
);
};
layerId = m002;
shapes = (
{
closed = 1;
nodes = (
(144,-215,o),
(408,177,o),
(408,410,cs),
(408,480,o),
(392,516,o),
(360,516,cs),
(339,516,o),
(326,501,o),
(326,477,cs),
(326,437,o),
(363,416,o),
(363,332,cs),
(363,245,o),
(306,131,o),
(237,33,cs),
(231,25,o),
(224,27,o),
(224,37,cs),
(210,421,ls),
(207,490,o),
(182,516,o),
(141,516,cs),
(99,516,o),
(40,474,o),
(16,337,cs),
(14,326,o),
(19,319,o),
(27,319,cs),
(33,319,o),
(38,323,o),
(40,332,cs),
(57,431,o),
(86,459,o),
(115,459,cs),
(131,459,o),
(143,446,o),
(144,412,cs),
(159,53,ls),
(164,-76,o),
(81,-173,o),
(7,-173,cs),
(-45,-173,o),
(-21,-106,o),
(-72,-106,cs),
(-90,-106,o),
(-107,-120,o),
(-107,-148,cs),
(-107,-186,o),
(-78,-215,o),
(-27,-215,cs)
);
}
);
width = 418;
}
);
metricRight = v;
unicode = 121;
},
{
glyphname = z;
kernLeft = z;
kernRight = z;
lastChange = "2022-09-01 20:49:33 +0000";
layers = (
{
anchors = (
{
name = bottom;
pos = (139,0);
},
{
name = center;
pos = (198,255);
},
{
name = top;
pos = (257,510);
}
);
background = {
shapes = (
{
closed = 1;
nodes = (
(23,-9,o),
(57,32,o),
(69,66,c),
(321,401,ls),
(367,462,o),
(402,472,o),
(402,500,cs),
(402,510,o),
(396,516,o),
(386,516,cs),
(363,516,o),
(331,474,o),
(320,439,c),
(46,77,l),
(11,57,o),
(-13,31,o),
(-13,6,cs),
(-13,-3,o),
(-9,-9,o),
(0,-9,cs)
);
},
{
closed = 1;
nodes = (
(327,186,o),
(322,182,o),
(322,173,cs),
(322,93,o),
(304,60,o),
(265,60,cs),
(228,60,o),
(173,95,o),
(130,95,cs),
(107,95,o),
(96,89,o),
(86,80,c),
(70,80,l),
(57,56,l),
(63,57,o),
(72,58,o),
(78,58,cs),
(142,58,o),
(178,-9,o),
(237,-9,cs),
(289,-9,o),
(346,33,o),
(346,168,cs),
(346,179,o),
(342,186,o),
(334,186,cs)
);
},
{
closed = 1;
nodes = (
(62,319,o),
(67,323,o),
(67,332,cs),
(67,412,o),
(85,447,o),
(124,447,cs),
(161,447,o),
(203,406,o),
(259,406,cs),
(277,406,o),
(290,412,o),
(300,421,c),
(316,421,l),
(329,445,l),
(323,444,o),
(314,443,o),
(308,443,cs),
(244,443,o),
(211,516,o),
(152,516,cs),
(100,516,o),
(43,474,o),
(43,337,cs),
(43,326,o),
(47,319,o),
(55,319,cs)
);
}
);
};
guides = (
{
pos = (29,319);
},
{
pos = (29,186);
}
);
layerId = m002;
shapes = (
{
closed = 1;
nodes = (
(18,-9,o),
(44,14,o),
(57,42,cs),
(63,53,o),
(73,58,o),
(89,58,cs),
(136,59,o),
(165,-9,o),
(237,-9,cs),
(289,-9,o),
(346,33,o),
(346,168,cs),
(346,179,o),
(342,186,o),
(334,186,cs),
(327,186,o),
(322,182,o),
(322,173,cs),
(322,93,o),
(304,60,o),
(265,60,cs),
(228,60,o),
(173,95,o),
(130,95,cs),
(118,95,o),
(110,93,o),
(103,90,cs),
(93,86,o),
(89,92,o),
(94,99,cs),
(321,401,ls),
(367,462,o),
(402,472,o),
(402,500,cs),
(402,510,o),
(396,516,o),
(386,516,cs),
(366,516,o),
(340,485,o),
(326,455,cs),
(323,447,o),
(319,443,o),
(310,443,cs),
(239,442,o),
(230,516,o),
(152,516,cs),
(100,516,o),
(43,474,o),
(43,337,cs),
(43,326,o),
(47,319,o),
(55,319,cs),
(62,319,o),
(67,323,o),
(67,332,cs),
(67,412,o),
(85,447,o),
(124,447,cs),
(161,447,o),
(203,406,o),
(256,406,cs),
(265,406,o),
(277,408,o),
(284,411,cs),
(293,415,o),
(298,411,o),
(291,401,cs),
(46,77,l),
(11,57,o),
(-13,31,o),
(-13,6,cs),
(-13,-3,o),
(-9,-9,o),
(0,-9,cs)
);
}
);
width = 385;
}
);
unicode = 122;
},
{
glyphname = a.ss01;
kernLeft = a;
kernRight = a;
lastChange = "2022-08-27 16:36:11 +0000";
layers = (
{
background = {
shapes = (
{
closed = 1;
nodes = (
(141,-9,o),
(193,36,o),
(247,135,cs),
(277,190,l),
(308,190,l),
(369,471,l),
(362,471,l),
(349,500,o),
(324,516,o),
(290,516,cs),
(160,516,o),
(13,303,o),
(13,113,cs),
(13,33,o),
(41,-9,o),
(90,-9,cs)
);
},
{
closed = 1;
nodes = (
(95,42,o),
(81,55,o),
(81,102,cs),
(81,275,o),
(199,491,o),
(287,491,cs),
(314,491,o),
(330,469,o),
(330,430,cs),
(330,318,o),
(194,42,o),
(114,42,cs)
);
},
{
closed = 1;
nodes = (
(453,177,o),
(451,186,o),
(442,186,cs),
(435,186,o),
(431,182,o),
(429,175,cs),
(404,88,o),
(381,48,o),
(350,48,cs),
(325,48,o),
(320,71,o),
(330,113,cs),
(419,496,ls),
(421,505,o),
(416,510,o),
(409,510,cs),
(401,510,o),
(395,506,o),
(387,496,cs),
(338,433,l),
(264,114,ls),
(246,38,o),
(271,-9,o),
(323,-9,cs),
(383,-9,o),
(425,41,o),
(451,166,cs)
);
}
);
};
guides = (
{
angle = -26.565;
pos = (205,61);
showMeasurement = 1;
}
);
layerId = m002;
shapes = (
{
closed = 1;
nodes = (
(140,-9,o),
(193,37,o),
(267,172,cs),
(271,180,o),
(279,178,o),
(277,169,cs),
(264,114,ls),
(246,38,o),
(271,-9,o),
(323,-9,cs),
(383,-9,o),
(425,41,o),
(451,166,cs),
(453,177,o),
(451,186,o),
(442,186,cs),
(435,186,o),
(431,182,o),
(429,175,cs),
(404,88,o),
(381,48,o),
(350,48,cs),
(325,48,o),
(320,71,o),
(330,113,cs),
(419,496,ls),
(421,505,o),
(416,510,o),
(409,510,cs),
(401,510,o),
(393,506,o),
(378,485,cs),
(374,479,o),
(371,476,o),
(366,476,cs),
(361,476,o),
(358,479,o),
(354,485,cs),
(339,506,o),
(315,516,o),
(290,516,cs),
(160,516,o),
(13,303,o),
(13,113,cs),
(13,33,o),
(41,-9,o),
(89,-9,cs)
);
},
{
closed = 1;
nodes = (
(93,42,o),
(81,55,o),
(81,102,cs),
(81,275,o),
(199,491,o),
(287,491,cs),
(314,491,o),
(330,469,o),
(330,430,cs),
(330,318,o),
(194,42,o),
(114,42,cs)
);
}
);
width = 474;
}
);
},
{
glyphname = c.ss01;
kernLeft = o;
kernRight = c;
lastChange = "2022-08-27 16:33:08 +0000";
layers = (
{
anchors = (
{
name = bottom;
pos = (131,0);
},
{
name = top;
pos = (265,510);
}
);
background = {
shapes = (
{
closed = 1;
nodes = (
(221,-9,o),
(294,70,o),
(315,179,cs),
(319,196,o),
(318,201,o),
(310,201,cs),
(303,201,o),
(298,198,o),
(296,191,cs),
(260,90,o),
(219,43,o),
(167,43,cs),
(113,43,o),
(85,87,o),
(85,169,cs),
(85,323,o),
(174,491,o),
(256,491,cs),
(290,491,o),
(300,468,o),
(300,384,cs),
(300,343,ls),
(300,333,o),
(304,329,o),
(312,329,cs),
(318,329,o),
(322,333,o),
(324,342,cs),
(351,473,ls),
(353,483,o),
(352,485,o),
(346,490,cs),
(323,508,o),
(299,516,o),
(265,516,cs),
(144,516,o),
(15,332,o),
(15,153,cs),
(15,58,o),
(68,-9,o),
(142,-9,cs)
);
}
);
};
guides = (
{
angle = 78.25;
pos = (337,405);
}
);
layerId = m002;
shapes = (
{
closed = 1;
nodes = (
(221,-9,o),
(294,70,o),
(315,179,cs),
(319,196,o),
(318,201,o),
(310,201,cs),
(303,201,o),
(298,198,o),
(296,191,cs),
(260,90,o),
(219,43,o),
(167,43,cs),
(113,43,o),
(85,87,o),
(85,169,cs),
(85,323,o),
(173,488,o),
(249,488,cs),
(276,488,o),
(289,475,o),
(293,414,cs),
(298,343,ls),
(299,333,o),
(303,328,o),
(311,328,cs),
(317,328,o),
(322,333,o),
(324,342,cs),
(351,473,ls),
(353,483,o),
(352,485,o),
(346,490,cs),
(323,508,o),
(299,516,o),
(265,516,cs),
(144,516,o),
(15,332,o),
(15,153,cs),
(15,58,o),
(68,-9,o),
(142,-9,cs)
);
}
);
width = 351;
}
);
},
{
glyphname = d.ss01;
kernLeft = o;
kernRight = d;
lastChange = "2022-08-27 16:36:33 +0000";
layers = (
{
background = {
shapes = (
{
closed = 1;
nodes = (
(141,-9,o),
(193,36,o),
(247,135,cs),
(272,181,l),
(303,181,l),
(369,471,l),
(362,471,l),
(349,500,o),
(324,516,o),
(290,516,cs),
(160,516,o),
(13,303,o),
(13,113,cs),
(13,33,o),
(41,-9,o),
(90,-9,cs)
);
},
{
closed = 1;
nodes = (
(95,42,o),
(81,55,o),
(81,102,cs),
(81,275,o),
(199,491,o),
(287,491,cs),
(314,491,o),
(330,469,o),
(330,430,cs),
(330,318,o),
(194,42,o),
(114,42,cs)
);
},
{
closed = 1;
nodes = (
(261,114,ls),
(243,38,o),
(268,-9,o),
(320,-9,cs),
(380,-9,o),
(425,41,o),
(451,166,cs),
(453,177,o),
(451,186,o),
(442,186,cs),
(435,186,o),
(431,182,o),
(429,175,cs),
(404,88,o),
(381,48,o),
(350,48,cs),
(325,48,o),
(320,71,o),
(330,113,cs),
(472,728,ls),
(474,738,o),
(470,743,o),
(463,743,cs),
(457,743,o),
(453,741,o),
(448,737,cs),
(425,718,o),
(387,708,o),
(339,700,cs),
(331,699,o),
(326,695,o),
(325,689,cs),
(324,682,o),
(328,677,o),
(338,676,cs),
(368,673,ls),
(387,671,o),
(392,664,o),
(386,640,cs)
);
}
);
};
layerId = m002;
shapes = (
{
closed = 1;
nodes = (
(141,-9,o),
(198,38,o),
(262,163,cs),
(266,171,o),
(274,169,o),
(272,160,cs),
(261,114,ls),
(243,38,o),
(268,-9,o),
(320,-9,cs),
(380,-9,o),
(425,41,o),
(451,166,cs),
(453,177,o),
(451,186,o),
(442,186,cs),
(435,186,o),
(431,182,o),
(429,175,cs),
(404,88,o),
(381,48,o),
(350,48,cs),
(325,48,o),
(320,71,o),
(330,113,cs),
(472,728,ls),
(474,738,o),
(470,743,o),
(463,743,cs),
(457,743,o),
(453,741,o),
(448,737,cs),
(425,718,o),
(387,708,o),
(339,700,cs),
(331,699,o),
(326,695,o),
(325,689,cs),
(324,682,o),
(328,677,o),
(338,676,cs),
(368,673,ls),
(387,671,o),
(392,664,o),
(386,640,cs),
(354,508,ls),
(352,498,o),
(346,496,o),
(337,502,cs),
(324,511,o),
(309,516,o),
(290,516,cs),
(160,516,o),
(13,303,o),
(13,113,cs),
(13,33,o),
(41,-9,o),
(90,-9,cs)
);
},
{
closed = 1;
nodes = (
(95,42,o),
(81,55,o),
(81,102,cs),
(81,275,o),
(199,491,o),
(287,491,cs),
(314,491,o),
(330,469,o),
(330,430,cs),
(330,318,o),
(194,42,o),
(114,42,cs)
);
}
);
width = 474;
}
);
},
{
glyphname = dcroat.ss01;
kernLeft = o;
kernRight = d;
lastChange = "2022-08-27 16:34:48 +0000";
layers = (
{
layerId = m002;
shapes = (
{
ref = d;
},
{
closed = 1;
nodes = (
(494,578,ls),
(500,578,o),
(505,582,o),
(507,588,cs),
(509,596,ls),
(510,602,o),
(507,606,o),
(501,606,cs),
(226,606,ls),
(220,606,o),
(215,602,o),
(214,596,cs),
(212,588,ls),
(210,582,o),
(213,578,o),
(219,578,cs)
);
}
);
width = 474;
}
);
},
{
glyphname = e.ss01;
kernLeft = o;
kernRight = e;
lastChange = "2022-08-27 16:36:41 +0000";
layers = (
{
background = {
shapes = (
{
closed = 1;
nodes = (
(201,-9,o),
(263,51,o),
(306,169,cs),
(309,178,o),
(307,186,o),
(299,186,cs),
(293,186,o),
(289,183,o),
(287,177,cs),
(255,91,o),
(204,43,o),
(154,43,cs),
(109,43,o),
(81,82,o),
(81,158,cs),
(81,313,o),
(188,491,o),
(262,491,cs),
(285,491,o),
(295,477,o),
(295,449,cs),
(295,360,o),
(218,253,o),
(75,230,c),
(75,206,l),
(243,233,o),
(357,336,o),
(357,433,cs),
(357,484,o),
(331,516,o),
(269,516,cs),
(153,516,o),
(12,327,o),
(12,150,cs),
(12,48,o),
(58,-9,o),
(129,-9,cs)
);
}
);
};
layerId = m002;
shapes = (
{
closed = 1;
nodes = (
(201,-9,o),
(263,51,o),
(306,169,cs),
(309,178,o),
(307,186,o),
(299,186,cs),
(293,186,o),
(289,183,o),
(287,177,cs),
(255,91,o),
(204,43,o),
(154,43,cs),
(109,43,o),
(81,82,o),
(81,158,cs),
(81,167,o),
(81,177,o),
(82,187,cs),
(83,201,o),
(91,209,o),
(105,212,cs),
(256,246,o),
(357,342,o),
(357,433,cs),
(357,484,o),
(331,516,o),
(269,516,cs),
(153,516,o),
(12,327,o),
(12,150,cs),
(12,48,o),
(58,-9,o),
(129,-9,cs)
);
},
{
closed = 1;
nodes = (
(122,376,o),
(203,491,o),
(262,491,cs),
(285,491,o),
(295,477,o),
(295,449,cs),
(295,367,o),
(230,269,o),
(106,236,cs),
(96,233,o),
(89,240,o),
(92,250,cs)
);
}
);
width = 348;
}
);
},
{
glyphname = g.ss01;
kernLeft = g;
kernRight = g;
lastChange = "2022-08-27 16:37:06 +0000";
layers = (
{
background = {
shapes = (
{
closed = 1;
nodes = (
(216,-216,o),
(322,-157,o),
(322,-56,cs),
(322,-4,o),
(294,40,o),
(205,70,cs),
(129,96,o),
(121,103,o),
(121,118,cs),
(121,130,o),
(133,142,o),
(193,172,cs),
(250,200,ls),
(318,234,o),
(373,308,o),
(373,389,cs),
(373,425,o),
(363,455,o),
(345,477,c),
(345,482,l),
(430,482,ls),
(442,482,o),
(450,487,o),
(450,496,cs),
(450,505,o),
(445,510,o),
(433,510,cs),
(317,510,ls),
(292,510,o),
(280,516,o),
(256,516,cs),
(157,516,o),
(65,418,o),
(65,311,cs),
(65,243,o),
(103,195,o),
(161,186,c),
(161,182,l),
(121,161,ls),
(74,136,o),
(57,118,o),
(57,90,cs),
(57,73,o),
(63,60,o),
(90,45,c),
(90,40,l),
(58,26,ls),
(-29,-12,o),
(-68,-59,o),
(-68,-111,cs),
(-68,-172,o),
(-13,-216,o),
(93,-216,cs)
);
},
{
closed = 1;
nodes = (
(26,-191,o),
(-6,-151,o),
(-6,-98,cs),
(-6,-56,o),
(12,-12,o),
(124,29,c),
(173,11,ls),
(234,-11,o),
(254,-36,o),
(254,-76,cs),
(254,-153,o),
(181,-191,o),
(104,-191,cs)
);
},
{
closed = 1;
nodes = (
(151,206,o),
(132,235,o),
(132,293,cs),
(132,394,o),
(190,495,o),
(253,495,cs),
(287,495,o),
(305,465,o),
(305,408,cs),
(305,307,o),
(247,206,o),
(184,206,cs)
);
}
);
};
layerId = m002;
shapes = (
{
closed = 1;
nodes = (
(216,-216,o),
(322,-157,o),
(322,-60,cs),
(322,-8,o),
(297,30,o),
(223,57,cs),
(137,89,ls),
(94,105,o),
(86,125,o),
(106,137,cs),
(146,161,ls),
(175,179,o),
(191,185,o),
(215,190,cs),
(306,209,o),
(373,297,o),
(373,391,cs),
(373,415,o),
(369,437,o),
(359,458,cs),
(356,464,o),
(358,468,o),
(366,470,cs),
(426,483,ls),
(435,485,o),
(442,490,o),
(442,498,cs),
(442,505,o),
(437,510,o),
(427,510,cs),
(341,510,ls),
(297,510,o),
(290,516,o),
(262,516,cs),
(152,516,o),
(65,418,o),
(65,311,cs),
(65,264,o),
(83,222,o),
(119,201,cs),
(133,193,o),
(132,182,o),
(119,175,cs),
(43,131,ls),
(19,117,o),
(26,79,o),
(64,55,cs),
(78,46,o),
(75,35,o),
(61,27,cs),
(-38,-30,o),
(-68,-72,o),
(-68,-118,cs),
(-68,-172,o),
(-13,-216,o),
(93,-216,cs)
);
},
{
closed = 1;
nodes = (
(26,-191,o),
(-8,-151,o),
(-8,-101,cs),
(-8,-60,o),
(12,-28,o),
(84,12,cs),
(105,23,o),
(130,26,o),
(154,17,cs),
(173,10,ls),
(237,-14,o),
(254,-40,o),
(254,-84,cs),
(254,-151,o),
(181,-191,o),
(104,-191,cs)
);
},
{
closed = 1;
nodes = (
(151,206,o),
(132,232,o),
(132,293,cs),
(132,394,o),
(190,495,o),
(253,495,cs),
(287,495,o),
(305,474,o),
(305,408,cs),
(305,307,o),
(247,206,o),
(184,206,cs)
);
}
);
width = 401;
}
);
},
{
glyphname = f_b;
kernLeft = f;
kernRight = o;
lastChange = "2023-02-22 10:42:26 +0000";
layers = (
{
anchors = (
{
name = bottom_1;
pos = (110,0);
},
{
name = bottom_2;
pos = (447,0);
},
{
name = caret_1;
pos = (337,0);
},
{
name = top_1;
pos = (281,740);
},
{
name = top_2;
pos = (618,740);
}
);
background = {
shapes = (
{
closed = 1;
nodes = (
(74,0,ls),
(82,0,o),
(86,3,o),
(88,11,cs),
(195,472,ls),
(197,479,o),
(201,482,o),
(208,482,cs),
(275,482,ls),
(284,482,o),
(291,487,o),
(293,496,cs),
(295,504,o),
(289,510,o),
(278,510,cs),
(218,510,ls),
(210,510,o),
(205,514,o),
(207,523,cs),
(227,610,ls),
(246,692,o),
(268,717,o),
(299,717,cs),
(348,717,o),
(308,637,o),
(364,637,cs),
(387,637,o),
(404,656,o),
(404,686,cs),
(404,725,o),
(373,748,o),
(326,748,cs),
(239,748,o),
(172,663,o),
(147,550,cs),
(140,518,o),
(121,510,o),
(80,510,cs),
(70,510,o),
(62,505,o),
(62,496,cs),
(62,488,o),
(67,482,o),
(78,482,cs),
(99,482,ls),
(121,482,o),
(129,471,o),
(123,445,cs),
(22,13,ls),
(20,4,o),
(23,0,o),
(32,0,cs)
);
},
{
closed = 1;
nodes = (
(509,-9,o),
(661,204,o),
(661,394,cs),
(661,474,o),
(630,516,o),
(581,516,cs),
(530,516,o),
(474,472,o),
(401,332,cs),
(397,324,o),
(389,326,o),
(391,335,cs),
(482,728,ls),
(484,738,o),
(480,743,o),
(473,743,cs),
(467,743,o),
(463,741,o),
(458,737,cs),
(435,718,o),
(397,708,o),
(349,700,cs),
(341,699,o),
(336,695,o),
(335,689,cs),
(334,682,o),
(338,677,o),
(348,676,cs),
(378,673,ls),
(397,671,o),
(402,664,o),
(396,640,cs),
(284,159,ls),
(258,47,o),
(311,-9,o),
(379,-9,cs)
);
},
{
closed = 1;
nodes = (
(355,16,o),
(339,38,o),
(339,77,cs),
(339,207,o),
(482,464,o),
(555,464,cs),
(582,464,o),
(591,445,o),
(591,395,cs),
(591,232,o),
(470,16,o),
(382,16,cs)
);
}
);
};
layerId = m002;
shapes = (
{
closed = 1;
nodes = (
(509,-9,o),
(661,204,o),
(661,394,cs),
(661,474,o),
(630,516,o),
(581,516,cs),
(530,516,o),
(474,472,o),
(401,332,cs),
(397,324,o),
(389,326,o),
(391,335,cs),
(482,728,ls),
(484,738,o),
(480,743,o),
(472,743,cs),
(466,743,o),
(462,741,o),
(457,737,cs),
(437,723,ls),
(430,718,o),
(425,719,o),
(420,724,cs),
(403,740,o),
(379,748,o),
(350,748,cs),
(239,748,o),
(172,663,o),
(147,550,cs),
(140,518,o),
(121,510,o),
(80,510,cs),
(70,510,o),
(62,505,o),
(62,496,cs),
(62,488,o),
(67,482,o),
(78,482,cs),
(99,482,ls),
(121,482,o),
(129,471,o),
(123,445,cs),
(22,13,ls),
(20,4,o),
(23,0,o),
(32,0,cs),
(74,0,ls),
(82,0,o),
(86,3,o),
(88,11,cs),
(195,472,ls),
(197,479,o),
(201,482,o),
(208,482,cs),
(275,482,ls),
(284,482,o),
(291,487,o),
(293,496,cs),
(295,504,o),
(289,510,o),
(278,510,cs),
(218,510,ls),
(210,510,o),
(205,514,o),
(207,523,cs),
(223,591,ls),
(246,690,o),
(290,723,o),
(338,723,cs),
(388,723,o),
(406,681,o),
(392,621,cs),
(284,159,ls),
(258,47,o),
(311,-9,o),
(379,-9,cs)
);
},
{
closed = 1;
nodes = (
(355,16,o),
(339,38,o),
(339,77,cs),
(339,207,o),
(482,464,o),
(555,464,cs),
(582,464,o),
(591,445,o),
(591,395,cs),
(591,232,o),
(470,16,o),
(382,16,cs)
);
}
);
width = 674;
}
);
metricLeft = f;
metricRight = b;
},
{
glyphname = f_f_i;
lastChange = "2023-02-22 10:42:26 +0000";
layers = (
{
anchors = (
{
name = caret_1;
pos = (238,0);
},
{
name = caret_2;
pos = (476,0);
}
);
background = {
shapes = (
{
closed = 1;
nodes = (
(305,0,ls),
(313,0,o),
(317,3,o),
(319,11,cs),
(426,472,ls),
(428,479,o),
(432,482,o),
(439,482,cs),
(554,482,ls),
(583,482,o),
(587,465,o),
(579,430,cs),
(500,95,ls),
(482,20,o),
(504,-10,o),
(548,-10,cs),
(591,-10,o),
(649,32,o),
(692,169,cs),
(696,180,o),
(692,187,o),
(684,187,cs),
(678,187,o),
(673,183,o),
(670,174,cs),
(634,75,o),
(606,47,o),
(582,47,cs),
(562,47,o),
(558,65,o),
(565,94,cs),
(641,421,ls),
(656,486,o),
(634,510,o),
(573,510,cs),
(449,510,ls),
(441,510,o),
(436,514,o),
(438,523,cs),
(452,583,ls),
(473,673,o),
(499,719,o),
(556,719,cs),
(640,719,o),
(591,617,o),
(655,617,cs),
(678,617,o),
(695,636,o),
(695,666,cs),
(695,705,o),
(660,748,o),
(581,748,cs),
(470,748,o),
(404,663,o),
(378,550,cs),
(253,13,ls),
(251,4,o),
(254,0,o),
(263,0,cs)
);
},
{
closed = 1;
nodes = (
(417,704,l),
(400,720,o),
(376,728,o),
(347,728,cs),
(236,728,o),
(169,643,o),
(147,550,cs),
(140,518,o),
(121,510,o),
(80,510,cs),
(70,510,o),
(62,505,o),
(62,496,cs),
(62,488,o),
(67,482,o),
(78,482,cs),
(99,482,ls),
(121,482,o),
(129,471,o),
(123,445,cs),
(22,13,ls),
(20,4,o),
(23,0,o),
(32,0,cs),
(74,0,ls),
(82,0,o),
(86,3,o),
(88,11,cs),
(195,472,ls),
(197,479,o),
(201,482,o),
(208,482,cs),
(382,482,ls),
(391,482,o),
(398,487,o),
(400,496,cs),
(402,504,o),
(396,510,o),
(385,510,cs),
(218,510,ls),
(210,510,o),
(205,514,o),
(207,523,cs),
(223,591,ls),
(242,670,o),
(287,703,o),
(335,703,cs),
(385,703,o),
(403,661,o),
(389,601,c)
);
}
);
};
layerId = m002;
shapes = (
{
closed = 1;
nodes = (
(591,-10,o),
(649,32,o),
(692,169,cs),
(696,180,o),
(692,187,o),
(684,187,cs),
(678,187,o),
(673,183,o),
(670,174,cs),
(634,75,o),
(606,47,o),
(582,47,cs),
(562,47,o),
(558,65,o),
(565,94,cs),
(641,421,ls),
(656,486,o),
(634,510,o),
(573,510,cs),
(449,510,ls),
(441,510,o),
(436,514,o),
(438,523,cs),
(452,583,ls),
(473,673,o),
(499,719,o),
(556,719,cs),
(640,719,o),
(591,617,o),
(655,617,cs),
(678,617,o),
(695,636,o),
(695,666,cs),
(695,705,o),
(660,748,o),
(581,748,cs),
(522,748,o),
(476,724,o),
(443,688,cs),
(437,682,o),
(432,682,o),
(427,689,cs),
(409,714,o),
(379,728,o),
(337,728,cs),
(236,728,o),
(169,643,o),
(147,550,cs),
(140,518,o),
(121,510,o),
(80,510,cs),
(70,510,o),
(62,505,o),
(62,496,cs),
(62,488,o),
(67,482,o),
(78,482,cs),
(99,482,ls),
(121,482,o),
(129,471,o),
(123,445,cs),
(22,13,ls),
(20,4,o),
(23,0,o),
(32,0,cs),
(74,0,ls),
(82,0,o),
(86,3,o),
(88,11,cs),
(195,472,ls),
(197,479,o),
(201,482,o),
(208,482,cs),
(348,482,ls),
(356,482,o),
(361,478,o),
(359,469,cs),
(253,13,ls),
(251,4,o),
(254,0,o),
(263,0,cs),
(305,0,ls),
(313,0,o),
(317,3,o),
(319,11,cs),
(426,472,ls),
(428,479,o),
(432,482,o),
(439,482,cs),
(554,482,ls),
(583,482,o),
(587,465,o),
(579,430,cs),
(500,95,ls),
(482,20,o),
(504,-10,o),
(548,-10,cs)
);
},
{
closed = 1;
nodes = (
(210,510,o),
(205,514,o),
(207,523,cs),
(223,591,ls),
(242,670,o),
(287,703,o),
(335,703,cs),
(404,703,o),
(399,637,o),
(383,570,cs),
(371,520,ls),
(369,513,o),
(364,510,o),
(357,510,cs),
(218,510,ls)
);
}
);
width = 714;
}
);
metricLeft = f;
metricRight = i;
},
{
glyphname = f_f_l;
lastChange = "2023-02-22 10:42:26 +0000";
layers = (
{
anchors = (
{
name = caret_1;
pos = (238,0);
},
{
name = caret_2;
pos = (476,0);
}
);
background = {
shapes = (
{
closed = 1;
nodes = (
(427,689,l),
(409,714,o),
(379,728,o),
(337,728,cs),
(236,728,o),
(169,643,o),
(147,550,cs),
(140,518,o),
(121,510,o),
(80,510,cs),
(70,510,o),
(62,505,o),
(62,496,cs),
(62,488,o),
(67,482,o),
(78,482,cs),
(99,482,ls),
(121,482,o),
(129,471,o),
(123,445,cs),
(22,13,ls),
(20,4,o),
(23,0,o),
(32,0,cs),
(74,0,ls),
(82,0,o),
(86,3,o),
(88,11,cs),
(195,472,ls),
(197,479,o),
(201,482,o),
(208,482,cs),
(348,482,ls),
(356,482,o),
(361,478,o),
(359,469,cs),
(253,13,ls),
(251,4,o),
(254,0,o),
(263,0,cs),
(305,0,ls),
(313,0,o),
(317,3,o),
(319,11,cs),
(426,472,ls),
(428,479,o),
(432,482,o),
(439,482,cs),
(506,482,ls),
(515,482,o),
(522,487,o),
(524,496,cs),
(526,504,o),
(520,510,o),
(509,510,cs),
(449,510,ls),
(441,510,o),
(436,514,o),
(438,523,cs),
(454,591,ls),
(477,690,o),
(521,723,o),
(569,723,cs),
(619,723,o),
(637,681,o),
(623,621,cs),
(500,95,ls),
(482,20,o),
(504,-10,o),
(548,-10,cs),
(591,-10,o),
(649,32,o),
(692,169,cs),
(696,180,o),
(692,187,o),
(684,187,cs),
(678,187,o),
(673,183,o),
(670,174,cs),
(634,75,o),
(606,47,o),
(582,47,cs),
(562,47,o),
(558,65,o),
(565,94,cs),
(713,728,ls),
(715,738,o),
(711,743,o),
(704,743,cs),
(698,743,o),
(694,741,o),
(682,733,cs),
(668,723,ls),
(661,718,o),
(656,719,o),
(651,724,cs),
(634,740,o),
(610,748,o),
(581,748,cs),
(470,748,o),
(403,663,o),
(378,550,cs),
(371,520,l),
(369,513,o),
(364,510,o),
(357,510,cs),
(218,510,ls),
(210,510,o),
(205,514,o),
(207,523,cs),
(223,591,ls),
(242,670,o),
(287,703,o),
(335,703,cs),
(404,703,o),
(399,637,o),
(383,570,c)
);
}
);
};
layerId = m002;
shapes = (
{
closed = 1;
nodes = (
(591,-10,o),
(649,32,o),
(692,169,cs),
(696,180,o),
(692,187,o),
(684,187,cs),
(678,187,o),
(673,183,o),
(670,174,cs),
(634,75,o),
(606,47,o),
(582,47,cs),
(562,47,o),
(558,65,o),
(565,94,cs),
(713,728,ls),
(715,738,o),
(711,743,o),
(704,743,cs),
(698,743,o),
(694,741,o),
(682,733,cs),
(668,723,ls),
(661,718,o),
(656,719,o),
(651,724,cs),
(634,740,o),
(610,748,o),
(581,748,cs),
(524,748,o),
(480,726,o),
(446,689,cs),
(440,683,o),
(434,683,o),
(429,689,cs),
(406,715,o),
(378,728,o),
(337,728,cs),
(236,728,o),
(169,643,o),
(147,550,cs),
(140,518,o),
(121,510,o),
(80,510,cs),
(70,510,o),
(62,505,o),
(62,496,cs),
(62,488,o),
(67,482,o),
(78,482,cs),
(99,482,ls),
(121,482,o),
(129,471,o),
(123,445,cs),
(22,13,ls),
(20,4,o),
(23,0,o),
(32,0,cs),
(74,0,ls),
(82,0,o),
(86,3,o),
(88,11,cs),
(195,472,ls),
(197,479,o),
(201,482,o),
(208,482,cs),
(348,482,ls),
(356,482,o),
(361,478,o),
(359,469,cs),
(253,13,ls),
(251,4,o),
(254,0,o),
(263,0,cs),
(305,0,ls),
(313,0,o),
(317,3,o),
(319,11,cs),
(426,472,ls),
(428,479,o),
(432,482,o),
(439,482,cs),
(506,482,ls),
(515,482,o),
(522,487,o),
(524,496,cs),
(526,504,o),
(520,510,o),
(509,510,cs),
(449,510,ls),
(441,510,o),
(436,514,o),
(438,523,cs),
(454,591,ls),
(477,690,o),
(521,723,o),
(569,723,cs),
(619,723,o),
(637,681,o),
(623,621,cs),
(500,95,ls),
(482,20,o),
(504,-10,o),
(548,-10,cs)
);
},
{
closed = 1;
nodes = (
(210,510,o),
(205,514,o),
(207,523,cs),
(223,591,ls),
(242,670,o),
(287,703,o),
(335,703,cs),
(404,703,o),
(399,637,o),
(383,570,cs),
(371,520,ls),
(369,513,o),
(364,510,o),
(357,510,cs),
(218,510,ls)
);
}
);
width = 714;
}
);
metricLeft = f;
metricRight = l;
},
{
glyphname = f_h;
kernLeft = f;
kernRight = n;
lastChange = "2023-02-22 10:42:32 +0000";
layers = (
{
anchors = (
{
name = bottom_1;
pos = (124,0);
},
{
name = bottom_2;
pos = (489,0);
},
{
name = caret_1;
pos = (365.5,0);
},
{
name = top_1;
pos = (295,740);
},
{
name = top_2;
pos = (660,740);
}
);
layerId = m002;
shapes = (
{
closed = 1;
nodes = (
(610,-9,o),
(658,29,o),
(696,166,cs),
(699,177,o),
(697,186,o),
(687,186,cs),
(680,186,o),
(676,182,o),
(674,175,cs),
(645,76,o),
(621,48,o),
(594,48,cs),
(573,48,o),
(563,66,o),
(573,104,cs),
(649,394,ls),
(671,476,o),
(644,516,o),
(595,516,cs),
(543,516,o),
(474,463,o),
(394,300,cs),
(390,292,o),
(382,294,o),
(384,303,cs),
(482,728,ls),
(484,738,o),
(479,743,o),
(472,743,cs),
(466,743,o),
(462,741,o),
(457,737,cs),
(437,723,ls),
(430,718,o),
(425,719,o),
(420,724,cs),
(403,740,o),
(379,748,o),
(350,748,cs),
(239,748,o),
(172,663,o),
(147,550,cs),
(140,518,o),
(121,510,o),
(80,510,cs),
(70,510,o),
(62,505,o),
(62,496,cs),
(62,488,o),
(67,482,o),
(78,482,cs),
(99,482,ls),
(121,482,o),
(129,471,o),
(123,445,cs),
(22,13,ls),
(20,4,o),
(23,0,o),
(32,0,cs),
(74,0,ls),
(82,0,o),
(86,3,o),
(88,11,cs),
(195,472,ls),
(197,479,o),
(201,482,o),
(208,482,cs),
(275,482,ls),
(284,482,o),
(291,487,o),
(293,496,cs),
(295,504,o),
(289,510,o),
(278,510,cs),
(218,510,ls),
(210,510,o),
(205,514,o),
(207,523,cs),
(223,591,ls),
(246,690,o),
(290,723,o),
(338,723,cs),
(388,723,o),
(406,681,o),
(392,621,cs),
(250,13,ls),
(248,4,o),
(252,0,o),
(261,0,cs),
(303,0,ls),
(311,0,o),
(315,3,o),
(317,11,cs),
(364,219,o),
(494,473,o),
(568,473,cs),
(587,473,o),
(600,456,o),
(586,404,cs),
(509,114,ls),
(487,30,o),
(517,-9,o),
(565,-9,cs)
);
}
);
width = 719;
}
);
metricLeft = f;
metricRight = h;
},
{
glyphname = f_i;
kernLeft = f;
kernRight = i;
lastChange = "2023-02-22 10:42:26 +0000";
layers = (
{
anchors = (
{
name = bottom_1;
pos = (62,0);
},
{
name = bottom_2;
pos = (303,0);
},
{
name = caret_1;
pos = (241.5,0);
},
{
name = top_1;
pos = (233,740);
},
{
name = top_2;
pos = (474,740);
}
);
background = {
shapes = (
{
closed = 1;
nodes = (
(74,0,ls),
(82,0,o),
(86,3,o),
(88,11,cs),
(195,472,ls),
(197,479,o),
(201,482,o),
(208,482,cs),
(295,482,ls),
(304,482,o),
(311,487,o),
(313,496,cs),
(315,504,o),
(309,510,o),
(298,510,cs),
(218,510,ls),
(210,510,o),
(205,514,o),
(207,523,cs),
(227,610,ls),
(246,692,o),
(268,717,o),
(299,717,cs),
(348,717,o),
(308,637,o),
(364,637,cs),
(387,637,o),
(404,656,o),
(404,686,cs),
(404,725,o),
(373,748,o),
(326,748,cs),
(239,748,o),
(172,663,o),
(147,550,cs),
(140,518,o),
(121,510,o),
(80,510,cs),
(70,510,o),
(62,505,o),
(62,496,cs),
(62,488,o),
(67,482,o),
(78,482,cs),
(99,482,ls),
(121,482,o),
(129,471,o),
(123,445,cs),
(22,13,ls),
(20,4,o),
(23,0,o),
(32,0,cs)
);
},
{
closed = 1;
nodes = (
(420,-10,o),
(478,32,o),
(521,169,cs),
(525,180,o),
(521,187,o),
(513,187,cs),
(507,187,o),
(502,183,o),
(499,174,cs),
(463,75,o),
(435,47,o),
(411,47,cs),
(391,47,o),
(387,65,o),
(394,94,cs),
(468,411,ls),
(485,486,o),
(464,516,o),
(418,516,cs),
(375,516,o),
(319,474,o),
(276,337,cs),
(272,326,o),
(276,319,o),
(284,319,cs),
(290,319,o),
(295,323,o),
(298,332,cs),
(334,431,o),
(362,459,o),
(386,459,cs),
(406,459,o),
(410,441,o),
(403,412,cs),
(329,95,ls),
(312,20,o),
(333,-10,o),
(377,-10,cs)
);
},
{
closed = 1;
nodes = (
(489,605,o),
(516,628,o),
(516,665,cs),
(516,692,o),
(496,710,o),
(469,710,cs),
(441,710,o),
(415,687,o),
(415,651,cs),
(415,625,o),
(434,605,o),
(459,605,cs)
);
}
);
};
layerId = m002;
shapes = (
{
closed = 1;
nodes = (
(74,0,ls),
(82,0,o),
(86,3,o),
(88,11,cs),
(195,472,ls),
(197,479,o),
(201,482,o),
(208,482,cs),
(323,482,ls),
(352,482,o),
(356,465,o),
(348,430,cs),
(269,95,ls),
(251,20,o),
(273,-10,o),
(317,-10,cs),
(360,-10,o),
(418,32,o),
(461,169,cs),
(465,180,o),
(461,187,o),
(453,187,cs),
(447,187,o),
(442,183,o),
(439,174,cs),
(403,75,o),
(375,47,o),
(351,47,cs),
(331,47,o),
(327,65,o),
(334,94,cs),
(410,421,ls),
(425,486,o),
(403,510,o),
(342,510,cs),
(218,510,ls),
(210,510,o),
(205,514,o),
(207,523,cs),
(221,583,ls),
(242,673,o),
(268,719,o),
(325,719,cs),
(409,719,o),
(360,617,o),
(424,617,cs),
(447,617,o),
(464,636,o),
(464,666,cs),
(464,705,o),
(429,748,o),
(350,748,cs),
(239,748,o),
(172,663,o),
(147,550,cs),
(140,518,o),
(121,510,o),
(80,510,cs),
(70,510,o),
(62,505,o),
(62,496,cs),
(62,488,o),
(67,482,o),
(78,482,cs),
(99,482,ls),
(121,482,o),
(129,471,o),
(123,445,cs),
(22,13,ls),
(20,4,o),
(23,0,o),
(32,0,cs)
);
}
);
width = 483;
}
);
metricLeft = f;
metricRight = i;
},
{
glyphname = f_l;
kernLeft = f;
kernRight = l;
lastChange = "2023-02-22 10:42:32 +0000";
layers = (
{
anchors = (
{
name = bottom_1;
pos = (65,0);
},
{
name = bottom_2;
pos = (312,0);
},
{
name = caret_1;
pos = (247.5,0);
},
{
name = top_1;
pos = (236,740);
},
{
name = top_2;
pos = (483,740);
}
);
layerId = m002;
shapes = (
{
closed = 1;
nodes = (
(360,-10,o),
(418,32,o),
(461,169,cs),
(465,180,o),
(461,187,o),
(453,187,cs),
(447,187,o),
(442,183,o),
(439,174,cs),
(403,75,o),
(375,47,o),
(351,47,cs),
(331,47,o),
(327,65,o),
(334,94,cs),
(482,728,ls),
(484,738,o),
(480,743,o),
(473,743,cs),
(467,743,o),
(463,741,o),
(451,733,cs),
(437,723,ls),
(430,718,o),
(425,719,o),
(420,724,cs),
(403,740,o),
(379,748,o),
(350,748,cs),
(239,748,o),
(172,663,o),
(147,550,cs),
(140,518,o),
(121,510,o),
(80,510,cs),
(70,510,o),
(62,505,o),
(62,496,cs),
(62,488,o),
(67,482,o),
(78,482,cs),
(99,482,ls),
(121,482,o),
(129,471,o),
(123,445,cs),
(22,13,ls),
(20,4,o),
(23,0,o),
(32,0,cs),
(74,0,ls),
(82,0,o),
(86,3,o),
(88,11,cs),
(195,472,ls),
(197,479,o),
(201,482,o),
(208,482,cs),
(275,482,ls),
(284,482,o),
(291,487,o),
(293,496,cs),
(295,504,o),
(289,510,o),
(278,510,cs),
(218,510,ls),
(210,510,o),
(205,514,o),
(207,523,cs),
(223,591,ls),
(246,690,o),
(290,723,o),
(338,723,cs),
(388,723,o),
(406,681,o),
(392,621,cs),
(269,95,ls),
(251,20,o),
(273,-10,o),
(317,-10,cs)
);
}
);
width = 483;
}
);
metricLeft = f;
metricRight = l;
},
{
glyphname = q_j;
lastChange = "2023-02-22 10:42:26 +0000";
layers = (
{
anchors = (
{
name = bottom_1;
pos = (114,0);
},
{
name = bottom_2;
pos = (459,0);
},
{
name = caret_1;
pos = (345.5,0);
},
{
name = top_1;
pos = (232,510);
},
{
name = top_2;
pos = (577,510);
}
);
layerId = m002;
shapes = (
{
closed = 1;
nodes = (
(234,-205,ls),
(248,-205,o),
(258,-198,o),
(261,-184,cs),
(419,496,ls),
(421,505,o),
(416,510,o),
(409,510,cs),
(401,510,o),
(393,506,o),
(378,485,cs),
(374,479,o),
(371,476,o),
(366,476,cs),
(361,476,o),
(358,479,o),
(354,485,cs),
(339,506,o),
(315,516,o),
(290,516,cs),
(160,516,o),
(13,303,o),
(13,113,cs),
(13,33,o),
(41,-9,o),
(90,-9,cs),
(141,-9,o),
(197,33,o),
(266,171,cs),
(270,179,o),
(278,177,o),
(276,168,cs),
(205,-138,ls),
(198,-168,o),
(189,-178,o),
(162,-180,cs),
(137,-182,ls),
(128,-183,o),
(121,-187,o),
(121,-194,cs),
(121,-200,o),
(124,-205,o),
(134,-205,cs)
);
},
{
closed = 1;
nodes = (
(95,42,o),
(81,55,o),
(81,102,cs),
(81,275,o),
(199,491,o),
(287,491,cs),
(314,491,o),
(330,469,o),
(330,430,cs),
(330,318,o),
(194,42,o),
(114,42,cs)
);
},
{
pos = (425,0);
ref = j;
}
);
width = 691;
}
);
metricLeft = q;
metricRight = j;
},
{
glyphname = ordfeminine;
lastChange = "2022-08-18 20:35:28 +0000";
layers = (
{
layerId = m002;
shapes = (
{
closed = 1;
nodes = (
(187,363,o),
(229,395,o),
(289,489,cs),
(292,495,o),
(299,494,o),
(297,487,cs),
(286,449,ls),
(271,396,o),
(292,363,o),
(333,363,cs),
(381,363,o),
(415,398,o),
(436,485,cs),
(438,495,o),
(435,502,o),
(427,502,cs),
(419,502,o),
(416,496,o),
(414,489,cs),
(394,431,o),
(380,403,o),
(355,403,cs),
(335,403,o),
(331,419,o),
(339,448,cs),
(410,716,ls),
(412,723,o),
(408,726,o),
(402,726,cs),
(396,726,o),
(389,723,o),
(377,709,cs),
(374,704,o),
(372,702,o),
(368,702,cs),
(364,702,o),
(361,704,o),
(358,709,cs),
(346,723,o),
(327,730,o),
(307,730,cs),
(203,730,o),
(85,581,o),
(85,448,cs),
(85,392,o),
(108,363,o),
(146,363,cs)
);
},
{
closed = 1;
nodes = (
(149,405,o),
(140,415,o),
(140,447,cs),
(140,569,o),
(234,706,o),
(305,706,cs),
(326,706,o),
(339,690,o),
(339,663,cs),
(339,585,o),
(223,405,o),
(166,405,cs)
);
}
);
width = 417;
}
);
unicode = 170;
},
{
glyphname = ordmasculine;
lastChange = "2022-08-18 20:36:01 +0000";
layers = (
{
layerId = m002;
shapes = (
{
closed = 1;
nodes = (
(305,363,o),
(400,479,o),
(400,599,cs),
(400,679,o),
(359,730,o),
(295,730,cs),
(197,730,o),
(102,614,o),
(102,495,cs),
(102,415,o),
(143,363,o),
(208,363,cs)
);
},
{
closed = 1;
nodes = (
(173,387,o),
(156,416,o),
(156,475,cs),
(156,590,o),
(225,706,o),
(294,706,cs),
(329,706,o),
(346,677,o),
(346,619,cs),
(346,504,o),
(277,387,o),
(208,387,cs)
);
}
);
width = 367;
}
);
metricLeft = O;
metricRight = O;
unicode = 186;
},
{
glyphname = zero;
lastChange = "2022-08-31 19:16:14 +0000";
layers = (
{
background = {
shapes = (
{
closed = 1;
nodes = (
(373,-9,o),
(451,153,o),
(451,361,cs),
(451,568,o),
(373,730,o),
(257,730,cs),
(140,730,o),
(63,568,o),
(63,361,cs),
(63,153,o),
(140,-9,o),
(257,-9,cs)
);
},
{
closed = 1;
nodes = (
(173,18,o),
(135,130,o),
(135,361,cs),
(135,591,o),
(173,703,o),
(257,703,cs),
(341,703,o),
(379,591,o),
(379,361,cs),
(379,130,o),
(341,18,o),
(257,18,cs)
);
}
);
};
layerId = m002;
shapes = (
{
closed = 1;
nodes = (
(343,-9,o),
(462,299,o),
(462,487,cs),
(462,634,o),
(422,730,o),
(325,730,cs),
(168,730,o),
(48,424,o),
(48,234,cs),
(48,87,o),
(87,-9,o),
(185,-9,cs)
);
},
{
closed = 1;
nodes = (
(124,17,o),
(106,85,o),
(106,164,cs),
(106,312,o),
(189,704,o),
(320,704,cs),
(375,704,o),
(404,658,o),
(404,557,cs),
(404,410,o),
(321,17,o),
(190,17,cs)
);
}
);
width = 461;
}
);
unicode = 48;
},
{
glyphname = one;
lastChange = "2022-08-31 19:17:48 +0000";
layers = (
{
background = {
shapes = (
{
closed = 1;
nodes = (
(166,0,ls),
(176,0,o),
(182,4,o),
(184,11,cs),
(185,17,o),
(182,22,o),
(173,23,cs),
(141,27,ls),
(114,30,o),
(108,38,o),
(114,66,cs),
(264,713,ls),
(267,728,o),
(262,735,o),
(248,735,cs),
(232,735,o),
(199,721,o),
(127,709,cs),
(114,707,o),
(109,701,o),
(107,695,cs),
(106,687,o),
(110,681,o),
(122,682,cs),
(159,686,ls),
(180,688,o),
(193,683,o),
(187,660,cs),
(50,66,ls),
(44,38,o),
(34,30,o),
(5,27,cs),
(-35,23,ls),
(-44,22,o),
(-49,17,o),
(-50,11,cs),
(-52,4,o),
(-48,0,o),
(-38,0,cs)
);
}
);
};
layerId = m002;
shapes = (
{
closed = 1;
nodes = (
(164,0,ls),
(176,0,o),
(182,5,o),
(182,12,cs),
(182,18,o),
(178,22,o),
(170,23,cs),
(139,27,ls),
(112,30,o),
(106,38,o),
(112,66,cs),
(262,713,ls),
(265,728,o),
(260,735,o),
(246,735,cs),
(230,735,o),
(199,721,o),
(127,709,cs),
(112,707,o),
(107,701,o),
(107,693,cs),
(107,687,o),
(111,681,o),
(122,682,cs),
(159,686,ls),
(180,688,o),
(192,683,o),
(187,660,cs),
(50,66,ls),
(44,38,o),
(34,30,o),
(5,27,cs),
(-35,23,ls),
(-45,22,o),
(-50,17,o),
(-50,10,cs),
(-50,4,o),
(-45,0,o),
(-35,0,cs)
);
}
);
width = 248;
}
);
unicode = 49;
},
{
glyphname = two;
lastChange = "2022-08-31 19:14:36 +0000";
layers = (
{
background = {
shapes = (
{
closed = 1;
nodes = (
(282,0,ls),
(297,0,o),
(308,8,o),
(312,23,cs),
(368,211,ls),
(371,222,o),
(367,228,o),
(360,228,cs),
(352,228,o),
(345,223,o),
(342,215,cs),
(322,168,ls),
(284,80,o),
(247,60,o),
(171,60,cs),
(64,60,ls),
(50,60,o),
(43,70,o),
(54,82,cs),
(159,200,ls),
(306,365,o),
(410,468,o),
(434,573,cs),
(457,671,o),
(407,730,o),
(315,730,cs),
(234,730,o),
(138,685,o),
(94,554,cs),
(90,542,o),
(93,534,o),
(102,534,cs),
(110,534,o),
(116,538,o),
(121,550,cs),
(157,647,o),
(226,690,o),
(290,690,cs),
(354,690,o),
(379,644,o),
(360,562,cs),
(339,470,o),
(272,366,o),
(137,214,cs),
(-25,31,ls),
(-32,23,o),
(-35,19,o),
(-36,13,cs),
(-38,4,o),
(-33,0,o),
(-21,0,cs)
);
}
);
};
layerId = m002;
shapes = (
{
closed = 1;
nodes = (
(282,0,ls),
(297,0,o),
(308,4,o),
(312,19,cs),
(366,204,ls),
(369,215,o),
(364,222,o),
(356,222,cs),
(349,222,o),
(344,218,o),
(341,211,cs),
(321,166,ls),
(283,81,o),
(254,60,o),
(177,60,cs),
(65,60,ls),
(47,60,o),
(44,71,o),
(55,83,cs),
(165,207,ls),
(264,319,o),
(439,453,o),
(439,594,cs),
(439,676,o),
(381,730,o),
(289,730,cs),
(217,730,o),
(139,687,o),
(98,568,cs),
(94,556,o),
(98,547,o),
(108,547,cs),
(114,547,o),
(120,550,o),
(124,561,cs),
(159,655,o),
(217,691,o),
(274,691,cs),
(335,691,o),
(367,657,o),
(367,600,cs),
(367,470,o),
(229,323,o),
(144,225,cs),
(-20,37,ls),
(-31,25,o),
(-36,17,o),
(-36,10,cs),
(-36,3,o),
(-31,0,o),
(-19,0,cs)
);
}
);
width = 404;
}
);
unicode = 50;
},
{
glyphname = three;
lastChange = "2022-08-31 19:18:42 +0000";
layers = (
{
background = {
shapes = (
{
closed = 1;
nodes = (
(266,-9,o),
(365,108,o),
(365,236,cs),
(365,356,o),
(300,441,o),
(209,441,cs),
(198,441,o),
(185,439,o),
(175,436,cs),
(168,434,o),
(166,441,o),
(171,445,cs),
(194,461,ls),
(282,522,o),
(323,575,o),
(323,629,cs),
(323,690,o),
(279,730,o),
(212,730,cs),
(134,730,o),
(77,676,o),
(68,594,cs),
(67,583,o),
(72,576,o),
(80,576,cs),
(88,576,o),
(94,582,o),
(95,591,cs),
(105,656,o),
(142,696,o),
(193,696,cs),
(232,696,o),
(255,667,o),
(255,618,cs),
(255,573,o),
(229,529,o),
(171,475,cs),
(99,407,ls),
(90,398,o),
(87,389,o),
(91,383,cs),
(96,377,o),
(104,378,o),
(115,386,cs),
(134,399,o),
(156,405,o),
(183,405,cs),
(256,405,o),
(293,340,o),
(293,212,cs),
(293,96,o),
(241,18,o),
(165,18,cs),
(92,18,o),
(130,96,o),
(80,96,cs),
(59,96,o),
(44,82,o),
(44,60,cs),
(44,18,o),
(89,-9,o),
(159,-9,cs)
);
}
);
};
layerId = m002;
shapes = (
{
closed = 1;
nodes = (
(219,-9,o),
(341,147,o),
(341,272,cs),
(341,377,o),
(288,442,o),
(211,442,cs),
(204,442,o),
(199,441,o),
(192,439,cs),
(184,437,o),
(182,444,o),
(189,447,cs),
(217,461,ls),
(332,518,o),
(384,573,o),
(384,639,cs),
(384,692,o),
(342,730,o),
(272,730,cs),
(204,730,o),
(142,686,o),
(124,604,cs),
(121,592,o),
(125,584,o),
(134,584,cs),
(141,584,o),
(147,589,o),
(149,597,cs),
(166,665,o),
(209,698,o),
(256,698,cs),
(294,698,o),
(315,676,o),
(315,639,cs),
(315,583,o),
(279,535,o),
(197,479,cs),
(112,421,ls),
(102,414,o),
(98,410,o),
(98,404,cs),
(98,395,o),
(107,391,o),
(122,398,cs),
(139,406,o),
(159,412,o),
(184,412,cs),
(247,412,o),
(270,368,o),
(270,287,cs),
(270,169,o),
(208,17,o),
(93,17,cs),
(16,17,o),
(71,108,o),
(13,108,cs),
(-6,108,o),
(-22,92,o),
(-22,66,cs),
(-22,17,o),
(28,-9,o),
(87,-9,cs)
);
}
);
width = 373;
}
);
unicode = 51;
},
{
glyphname = four;
lastChange = "2022-08-31 19:18:03 +0000";
layers = (
{
background = {
shapes = (
{
closed = 1;
nodes = (
(306,0,ls),
(316,0,o),
(322,4,o),
(324,11,cs),
(325,17,o),
(322,21,o),
(313,23,cs),
(291,27,ls),
(264,32,o),
(260,38,o),
(266,66,cs),
(296,196,ls),
(298,205,o),
(304,210,o),
(313,210,cs),
(357,210,ls),
(364,210,o),
(371,215,o),
(372,222,cs),
(380,254,ls),
(381,261,o),
(377,266,o),
(370,266,cs),
(326,266,ls),
(317,266,o),
(314,271,o),
(316,280,cs),
(367,504,ls),
(370,515,o),
(363,518,o),
(352,513,cs),
(311,492,ls),
(304,488,o),
(299,483,o),
(297,476,cs),
(248,266,l),
(75,266,ls),
(66,266,o),
(65,272,o),
(71,280,cs),
(408,703,ls),
(416,713,o),
(414,720,o),
(403,720,cs),
(383,720,ls),
(376,720,o),
(370,717,o),
(365,710,cs),
(19,252,ls),
(10,240,o),
(6,234,o),
(4,227,cs),
(2,217,o),
(7,210,o),
(19,210,cs),
(235,210,l),
(202,66,ls),
(196,40,o),
(189,33,o),
(160,29,cs),
(115,23,ls),
(106,22,o),
(101,17,o),
(100,11,cs),
(98,4,o),
(102,0,o),
(112,0,cs)
);
}
);
};
layerId = m002;
shapes = (
{
closed = 1;
nodes = (
(306,0,ls),
(317,0,o),
(324,4,o),
(324,12,cs),
(324,17,o),
(321,22,o),
(309,24,cs),
(291,27,ls),
(264,31,o),
(260,38,o),
(266,66,cs),
(296,196,ls),
(298,205,o),
(304,210,o),
(313,210,cs),
(357,210,ls),
(364,210,o),
(370,215,o),
(372,222,cs),
(380,254,ls),
(382,261,o),
(377,266,o),
(370,266,cs),
(326,266,ls),
(317,266,o),
(314,271,o),
(316,280,cs),
(367,504,ls),
(370,515,o),
(363,519,o),
(352,513,cs),
(313,492,ls),
(306,488,o),
(301,483,o),
(299,476,cs),
(253,278,ls),
(251,269,o),
(245,266,o),
(237,266,cs),
(75,266,ls),
(66,266,o),
(65,272,o),
(71,280,cs),
(408,703,ls),
(416,713,o),
(414,720,o),
(403,720,cs),
(383,720,ls),
(376,720,o),
(370,717,o),
(365,710,cs),
(19,252,ls),
(9,239,o),
(3,230,o),
(3,222,cs),
(3,215,o),
(8,210,o),
(19,210,cs),
(222,210,ls),
(231,210,o),
(236,204,o),
(234,195,cs),
(204,66,ls),
(198,40,o),
(191,33,o),
(162,29,cs),
(115,23,ls),
(106,22,o),
(100,17,o),
(100,10,cs),
(100,4,o),
(105,0,o),
(115,0,cs)
);
}
);
width = 394;
}
);
unicode = 52;
},
{
glyphname = five;
lastChange = "2022-08-31 19:18:50 +0000";
layers = (
{
background = {
shapes = (
{
closed = 1;
nodes = (
(174,-9,o),
(306,78,o),
(341,229,cs),
(370,354,o),
(326,461,o),
(174,479,cs),
(164,480,o),
(161,484,o),
(165,494,cs),
(229,647,ls),
(233,656,o),
(239,660,o),
(247,660,cs),
(412,660,ls),
(420,660,o),
(426,664,o),
(430,672,cs),
(457,724,ls),
(463,735,o),
(464,745,o),
(453,745,cs),
(437,745,o),
(430,720,o),
(397,720,cs),
(240,720,ls),
(232,720,o),
(226,716,o),
(222,707,cs),
(106,431,ls),
(101,421,o),
(105,416,o),
(114,415,cs),
(255,403,o),
(293,335,o),
(264,208,cs),
(232,69,o),
(149,18,o),
(86,18,cs),
(8,18,o),
(50,96,o),
(4,96,cs),
(-16,96,o),
(-32,82,o),
(-37,62,cs),
(-48,15,o),
(14,-9,o),
(69,-9,cs)
);
}
);
};
guides = (
{
angle = 246.7488;
pos = (168,578);
}
);
layerId = m002;
shapes = (
{
closed = 1;
nodes = (
(253,-9,o),
(350,127,o),
(350,257,cs),
(350,363,o),
(298,454,o),
(178,486,cs),
(168,489,o),
(166,493,o),
(170,502,cs),
(232,649,ls),
(236,658,o),
(240,660,o),
(250,660,cs),
(411,660,ls),
(419,660,o),
(425,662,o),
(429,670,cs),
(457,724,ls),
(464,738,o),
(460,745,o),
(451,745,cs),
(436,745,o),
(430,720,o),
(397,720,cs),
(242,720,ls),
(234,720,o),
(228,718,o),
(224,709,cs),
(115,454,ls),
(111,445,o),
(115,439,o),
(123,437,cs),
(232,410,o),
(282,351,o),
(282,248,cs),
(282,137,o),
(219,17,o),
(108,17,cs),
(17,17,o),
(58,108,o),
(4,108,cs),
(-18,108,o),
(-32,90,o),
(-32,69,cs),
(-32,14,o),
(50,-9,o),
(103,-9,cs)
);
}
);
width = 387;
}
);
unicode = 53;
},
{
glyphname = six;
lastChange = "2022-08-31 19:18:12 +0000";
layers = (
{
background = {
shapes = (
{
closed = 1;
nodes = (
(327,-9,o),
(403,98,o),
(403,229,cs),
(403,360,o),
(333,456,o),
(239,456,cs),
(212,456,o),
(187,449,o),
(166,434,cs),
(158,429,o),
(152,432,o),
(155,442,cs),
(189,580,o),
(260,665,o),
(377,704,cs),
(384,706,o),
(388,710,o),
(388,717,cs),
(388,725,o),
(382,732,o),
(369,729,cs),
(198,688,o),
(63,480,o),
(63,261,cs),
(63,100,o),
(132,-9,o),
(233,-9,cs)
);
},
{
closed = 1;
nodes = (
(168,18,o),
(135,84,o),
(135,218,cs),
(135,358,o),
(170,431,o),
(238,431,cs),
(302,431,o),
(331,366,o),
(331,224,cs),
(331,84,o),
(300,18,o),
(234,18,cs)
);
}
);
};
layerId = m002;
shapes = (
{
closed = 1;
nodes = (
(297,-9,o),
(380,166,o),
(380,270,cs),
(380,382,o),
(329,456,o),
(245,456,cs),
(226,456,o),
(202,452,o),
(185,443,cs),
(177,438,o),
(172,444,o),
(176,452,cs),
(240,584,o),
(329,670,o),
(452,705,cs),
(462,708,o),
(468,710,o),
(468,719,cs),
(468,728,o),
(460,732,o),
(450,730,cs),
(231,688,o),
(32,414,o),
(32,191,cs),
(32,79,o),
(77,-9,o),
(167,-9,cs)
);
},
{
closed = 1;
nodes = (
(109,17,o),
(85,62,o),
(85,135,cs),
(85,230,o),
(131,431,o),
(241,431,cs),
(291,431,o),
(316,388,o),
(316,312,cs),
(316,220,o),
(266,17,o),
(165,17,cs)
);
}
);
width = 411;
}
);
unicode = 54;
},
{
glyphname = seven;
lastChange = "2022-08-31 19:19:00 +0000";
layers = (
{
layerId = m002;
shapes = (
{
closed = 1;
nodes = (
(66,0,ls),
(73,0,o),
(79,3,o),
(83,11,cs),
(450,675,ls),
(462,696,o),
(465,705,o),
(465,711,cs),
(465,718,o),
(461,720,o),
(452,720,cs),
(157,720,ls),
(149,720,o),
(143,716,o),
(139,708,cs),
(112,656,ls),
(106,645,o),
(106,635,o),
(117,635,cs),
(133,635,o),
(139,660,o),
(172,660,cs),
(394,660,ls),
(404,660,o),
(408,654,o),
(402,644,cs),
(33,15,ls),
(28,6,o),
(32,0,o),
(41,0,cs)
);
}
);
width = 365;
}
);
unicode = 55;
},
{
glyphname = eight;
lastChange = "2022-08-31 19:16:02 +0000";
layers = (
{
background = {
shapes = (
{
closed = 1;
nodes = (
(304,-9,o),
(393,98,o),
(393,208,cs),
(393,266,o),
(366,320,o),
(302,379,cs),
(296,384,o),
(297,392,o),
(305,395,cs),
(392,427,o),
(463,495,o),
(463,585,cs),
(463,665,o),
(400,730,o),
(311,730,cs),
(208,730,o),
(124,647,o),
(124,543,cs),
(124,491,o),
(146,436,o),
(195,388,cs),
(201,382,o),
(199,375,o),
(190,373,cs),
(89,337,o),
(11,262,o),
(11,159,cs),
(11,61,o),
(87,-9,o),
(186,-9,cs)
);
},
{
closed = 1;
nodes = (
(126,17,o),
(68,52,o),
(68,136,cs),
(68,207,o),
(104,309,o),
(206,358,cs),
(215,363,o),
(224,362,o),
(232,354,cs),
(286,308,o),
(328,257,o),
(328,184,cs),
(328,114,o),
(291,17,o),
(189,17,cs)
);
},
{
closed = 1;
nodes = (
(279,406,o),
(272,405,o),
(264,413,cs),
(205,467,o),
(186,512,o),
(186,556,cs),
(186,620,o),
(221,703,o),
(309,703,cs),
(375,703,o),
(407,663,o),
(407,605,cs),
(407,549,o),
(378,455,o),
(290,411,cs)
);
}
);
};
layerId = m002;
shapes = (
{
closed = 1;
nodes = (
(304,-9,o),
(393,88,o),
(393,208,cs),
(393,266,o),
(366,320,o),
(302,379,cs),
(296,384,o),
(297,392,o),
(305,395,cs),
(392,427,o),
(463,495,o),
(463,585,cs),
(463,665,o),
(400,730,o),
(311,730,cs),
(200,730,o),
(124,647,o),
(124,553,cs),
(124,491,o),
(146,436,o),
(195,388,cs),
(201,382,o),
(199,375,o),
(190,373,cs),
(89,337,o),
(11,262,o),
(11,159,cs),
(11,61,o),
(87,-9,o),
(186,-9,cs)
);
},
{
closed = 1;
nodes = (
(126,17,o),
(68,52,o),
(68,146,cs),
(68,217,o),
(104,309,o),
(206,358,cs),
(215,363,o),
(224,361,o),
(232,354,cs),
(303,293,o),
(328,247,o),
(328,174,cs),
(328,104,o),
(291,17,o),
(189,17,cs)
);
},
{
closed = 1;
nodes = (
(279,406,o),
(272,405,o),
(264,413,cs),
(206,468,o),
(186,512,o),
(186,576,cs),
(186,630,o),
(221,703,o),
(309,703,cs),
(375,703,o),
(407,660,o),
(407,602,cs),
(407,546,o),
(378,455,o),
(290,411,cs)
);
}
);
width = 437;
}
);
unicode = 56;
},
{
glyphname = nine;
lastChange = "2022-08-31 19:19:08 +0000";
layers = (
{
background = {
shapes = (
{
closed = 1;
nodes = (
(170,30,o),
(333,189,o),
(389,435,cs),
(425,595,o),
(382,712,o),
(284,726,cs),
(192,739,o),
(93,644,o),
(66,524,cs),
(39,404,o),
(85,300,o),
(177,287,cs),
(206,283,o),
(233,287,o),
(257,300,cs),
(266,305,o),
(271,301,o),
(267,291,cs),
(206,139,o),
(120,61,o),
(11,37,cs),
(4,35,o),
(-1,32,o),
(-2,25,cs),
(-4,17,o),
(0,9,o),
(13,10,cs)
);
},
{
closed = 1;
nodes = (
(167,648,o),
(212,709,o),
(277,700,cs),
(341,691,o),
(359,621,o),
(331,498,cs),
(301,369,o),
(250,302,o),
(184,311,cs),
(121,320,o),
(108,388,o),
(138,519,cs)
);
}
);
};
layerId = m002;
shapes = (
{
closed = 1;
nodes = (
(224,32,o),
(431,299,o),
(431,531,cs),
(431,657,o),
(381,730,o),
(299,730,cs),
(187,730,o),
(83,604,o),
(83,472,cs),
(83,358,o),
(135,286,o),
(218,286,cs),
(240,286,o),
(263,291,o),
(278,299,cs),
(286,304,o),
(291,298,o),
(287,290,cs),
(215,141,o),
(121,48,o),
(11,17,cs),
(-2,13,o),
(-5,10,o),
(-5,3,cs),
(-5,-6,o),
(2,-10,o),
(13,-8,cs)
);
},
{
closed = 1;
nodes = (
(175,311,o),
(147,359,o),
(147,440,cs),
(147,575,o),
(218,704,o),
(299,704,cs),
(347,704,o),
(378,658,o),
(378,577,cs),
(378,436,o),
(305,311,o),
(222,311,cs)
);
}
);
width = 414;
}
);
unicode = 57;
},
{
glyphname = .notdef;
lastChange = "2023-03-17 07:46:37 +0000";
layers = (
{
layerId = m002;
shapes = (
{
closed = 1;
nodes = (
(388,-130,ls),
(393,-130,o),
(397,-127,o),
(398,-122,cs),
(606,782,ls),
(607,787,o),
(605,790,o),
(600,790,cs),
(234,790,ls),
(229,790,o),
(225,787,o),
(224,782,cs),
(16,-122,ls),
(15,-127,o),
(17,-130,o),
(22,-130,cs)
);
},
{
closed = 1;
nodes = (
(251,758,l),
(569,758,l),
(371,-98,l),
(53,-98,l)
);
}
);
width = 600;
}
);
},
{
glyphname = period;
kernLeft = period;
kernRight = period;
lastChange = "2022-08-31 20:12:01 +0000";
layers = (
{
background = {
shapes = (
{
closed = 1;
nodes = (
(129,-9,o),
(159,12,o),
(159,49,cs),
(159,73,o),
(141,92,o),
(119,95,cs),
(86,101,o),
(53,75,o),
(53,38,cs),
(53,11,o),
(73,-9,o),
(101,-9,cs)
);
}
);
};
layerId = m002;
shapes = (
{
closed = 1;
nodes = (
(89,-9,o),
(118,14,o),
(118,49,cs),
(118,76,o),
(98,96,o),
(71,96,cs),
(44,96,o),
(15,73,o),
(15,38,cs),
(15,11,o),
(34,-9,o),
(62,-9,cs)
);
}
);
width = 219;
}
);
unicode = 46;
},
{
glyphname = comma;
kernLeft = period;
kernRight = period;
lastChange = "2022-08-31 20:13:38 +0000";
layers = (
{
background = {
shapes = (
{
ref = period;
}
);
};
layerId = m002;
shapes = (
{
closed = 1;
nodes = (
(52,-109,o),
(116,-21,o),
(116,43,cs),
(116,75,o),
(97,96,o),
(66,96,cs),
(38,96,o),
(16,75,o),
(16,46,cs),
(16,13,o),
(50,8,o),
(50,-24,cs),
(50,-61,o),
(12,-106,o),
(-26,-133,cs),
(-33,-138,o),
(-36,-142,o),
(-36,-147,cs),
(-36,-156,o),
(-24,-157,o),
(-13,-150,cs)
);
}
);
width = 219;
}
);
unicode = 44;
},
{
glyphname = exclam;
lastChange = "2022-09-01 19:18:34 +0000";
layers = (
{
background = {
shapes = (
{
closed = 1;
nodes = (
(126,181,o),
(132,186,o),
(134,196,cs),
(175,369,o),
(267,631,o),
(280,685,cs),
(287,718,o),
(276,743,o),
(247,747,cs),
(219,751,o),
(197,731,o),
(190,698,cs),
(177,644,o),
(148,373,o),
(110,199,cs),
(108,189,o),
(112,183,o),
(119,182,cs)
);
}
);
};
layerId = m002;
shapes = (
{
closed = 1;
nodes = (
(126,181,o),
(132,186,o),
(134,196,cs),
(175,369,o),
(267,631,o),
(280,685,cs),
(289,721,o),
(274,748,o),
(242,748,cs),
(217,748,o),
(197,731,o),
(190,698,cs),
(177,644,o),
(148,373,o),
(110,199,cs),
(108,189,o),
(112,183,o),
(119,182,cs)
);
},
{
pos = (18,0);
ref = period;
}
);
width = 275;
}
);
unicode = 33;
},
{
glyphname = exclamdown;
lastChange = "2022-09-01 19:15:39 +0000";
layers = (
{
layerId = m002;
shapes = (
{
closed = 1;
nodes = (
(68,-215,o),
(88,-198,o),
(95,-165,cs),
(108,-111,o),
(132,138,o),
(170,312,cs),
(172,322,o),
(168,328,o),
(161,329,cs),
(154,330,o),
(148,325,o),
(146,315,cs),
(105,142,o),
(18,-98,o),
(5,-152,cs),
(-4,-188,o),
(11,-215,o),
(43,-215,cs)
);
},
{
angle = 180;
pos = (257,511);
ref = period;
}
);
width = 274;
}
);
metricLeft = "=|exclam";
metricRight = "=|exclam";
unicode = 161;
},
{
glyphname = question;
lastChange = "2022-09-01 19:14:29 +0000";
layers = (
{
background = {
shapes = (
{
closed = 1;
nodes = (
(135,185,o),
(140,189,o),
(143,200,cs),
(170,305,ls),
(175,325,o),
(180,332,o),
(193,343,cs),
(237,381,ls),
(328,459,o),
(365,516,o),
(382,592,cs),
(402,679,o),
(359,737,o),
(270,750,cs),
(240,754,o),
(194,750,o),
(170,736,cs),
(161,731,o),
(157,727,o),
(154,716,cs),
(124,597,ls),
(121,586,o),
(124,579,o),
(130,578,cs),
(137,577,o),
(141,581,o),
(146,590,cs),
(198,683,o),
(235,724,o),
(291,716,cs),
(323,711,o),
(345,684,o),
(330,618,cs),
(315,552,o),
(288,512,o),
(216,448,cs),
(191,426,ls),
(165,403,o),
(155,386,o),
(148,350,cs),
(119,204,ls),
(117,193,o),
(120,187,o),
(127,186,cs)
);
}
);
};
layerId = m002;
shapes = (
{
closed = 1;
nodes = (
(135,186,o),
(140,189,o),
(143,200,cs),
(176,325,ls),
(182,347,o),
(187,360,o),
(201,370,cs),
(250,405,ls),
(335,465,o),
(387,535,o),
(387,630,cs),
(387,715,o),
(317,751,o),
(246,751,cs),
(215,751,o),
(188,747,o),
(170,736,cs),
(161,731,o),
(157,727,o),
(154,716,cs),
(124,597,ls),
(121,586,o),
(124,579,o),
(130,578,cs),
(137,577,o),
(141,581,o),
(146,590,cs),
(198,683,o),
(230,717,o),
(282,717,cs),
(313,717,o),
(335,695,o),
(335,656,cs),
(335,574,o),
(295,519,o),
(225,468,cs),
(195,446,ls),
(167,426,o),
(159,406,o),
(152,370,cs),
(119,204,ls),
(116,191,o),
(122,186,o),
(128,186,cs)
);
},
{
pos = (33,0);
ref = period;
}
);
width = 358;
}
);
unicode = 63;
},
{
glyphname = questiondown;
lastChange = "2022-09-01 19:11:10 +0000";
layers = (
{
layerId = m002;
shapes = (
{
closed = 1;
nodes = (
(150,-210,o),
(177,-206,o),
(195,-195,cs),
(204,-190,o),
(208,-186,o),
(211,-175,cs),
(241,-56,ls),
(244,-45,o),
(241,-38,o),
(235,-37,cs),
(228,-36,o),
(224,-40,o),
(219,-49,cs),
(167,-142,o),
(135,-176,o),
(83,-176,cs),
(52,-176,o),
(30,-154,o),
(30,-115,cs),
(30,-33,o),
(70,22,o),
(140,73,cs),
(170,95,ls),
(198,115,o),
(206,135,o),
(213,171,cs),
(240,307,ls),
(243,320,o),
(237,325,o),
(231,325,cs),
(224,325,o),
(219,322,o),
(216,311,cs),
(189,216,ls),
(183,194,o),
(178,181,o),
(164,171,cs),
(115,136,ls),
(30,76,o),
(-22,6,o),
(-22,-89,cs),
(-22,-174,o),
(48,-210,o),
(119,-210,cs)
);
},
{
angle = 180;
pos = (322,511);
ref = period;
}
);
width = 358;
}
);
metricLeft = "=|question";
metricRight = "=|question";
unicode = 191;
},
{
glyphname = asterisk;
kernLeft = asterisk;
kernRight = asterisk;
lastChange = "2022-08-23 20:03:46 +0000";
layers = (
{
background = {
shapes = (
{
closed = 1;
nodes = (
(287,414,o),
(305,431,o),
(309,451,cs),
(316,482,o),
(297,506,o),
(302,557,cs),
(303,565,o),
(309,566,o),
(314,561,cs),
(346,522,o),
(346,492,o),
(368,473,cs),
(382,461,o),
(405,461,o),
(423,480,cs),
(440,500,o),
(436,523,o),
(421,535,cs),
(398,555,o),
(364,546,o),
(324,573,cs),
(317,578,o),
(318,583,o),
(327,585,cs),
(377,600,o),
(404,583,o),
(435,594,cs),
(454,602,o),
(468,623,o),
(461,646,cs),
(453,669,o),
(431,675,o),
(412,667,cs),
(381,655,o),
(369,624,o),
(322,599,cs),
(315,595,o),
(311,599,o),
(313,607,cs),
(331,656,o),
(360,674,o),
(367,704,cs),
(372,724,o),
(362,745,o),
(338,748,cs),
(313,752,o),
(295,735,o),
(291,715,cs),
(284,684,o),
(303,660,o),
(298,609,cs),
(297,601,o),
(291,599,o),
(287,604,cs),
(254,641,o),
(256,673,o),
(232,693,cs),
(218,705,o),
(195,705,o),
(177,686,cs),
(160,666,o),
(164,643,o),
(179,631,cs),
(202,611,o),
(236,620,o),
(276,593,cs),
(283,588,o),
(282,583,o),
(273,581,cs),
(223,566,o),
(196,583,o),
(165,572,cs),
(146,564,o),
(132,543,o),
(139,520,cs),
(147,497,o),
(169,491,o),
(188,499,cs),
(217,510,o),
(230,539,o),
(277,566,cs),
(284,570,o),
(289,567,o),
(287,559,cs),
(269,510,o),
(240,492,o),
(233,462,cs),
(228,442,o),
(238,421,o),
(262,418,cs)
);
}
);
};
layerId = m002;
shapes = (
{
closed = 1;
nodes = (
(287,414,o),
(305,431,o),
(309,451,cs),
(316,482,o),
(297,506,o),
(302,557,cs),
(303,565,o),
(309,566,o),
(314,561,cs),
(346,522,o),
(346,492,o),
(368,473,cs),
(382,461,o),
(405,461,o),
(423,480,cs),
(440,500,o),
(436,523,o),
(421,535,cs),
(398,555,o),
(364,546,o),
(324,573,cs),
(317,578,o),
(318,583,o),
(327,585,cs),
(377,600,o),
(404,583,o),
(435,594,cs),
(454,602,o),
(468,623,o),
(461,646,cs),
(453,669,o),
(431,675,o),
(412,667,cs),
(381,655,o),
(369,624,o),
(322,599,cs),
(315,595,o),
(311,599,o),
(313,607,cs),
(331,656,o),
(360,674,o),
(367,704,cs),
(372,724,o),
(362,745,o),
(338,748,cs),
(313,752,o),
(295,735,o),
(291,715,cs),
(284,684,o),
(303,660,o),
(298,609,cs),
(297,601,o),
(291,599,o),
(287,604,cs),
(254,641,o),
(256,673,o),
(232,693,cs),
(218,705,o),
(195,705,o),
(177,686,cs),
(160,666,o),
(164,643,o),
(179,631,cs),
(202,611,o),
(236,620,o),
(276,593,cs),
(283,588,o),
(282,583,o),
(273,581,cs),
(223,566,o),
(196,583,o),
(165,572,cs),
(146,564,o),
(132,543,o),
(139,520,cs),
(147,497,o),
(169,491,o),
(188,499,cs),
(217,510,o),
(230,539,o),
(277,566,cs),
(284,570,o),
(289,567,o),
(287,559,cs),
(269,510,o),
(240,492,o),
(233,462,cs),
(228,442,o),
(238,421,o),
(262,418,cs)
);
}
);
width = 449;
}
);
unicode = 42;
},
{
glyphname = numbersign;
lastChange = "2022-08-11 18:45:18 +0000";
layers = (
{
layerId = m002;
shapes = (
{
closed = 1;
nodes = (
(159,0,l),
(208,213,ls),
(211,224,o),
(218,230,o),
(230,230,cs),
(388,230,ls),
(398,230,o),
(403,224,o),
(401,213,cs),
(352,0,l),
(384,0,l),
(433,213,ls),
(436,224,o),
(443,230,o),
(455,230,cs),
(583,230,l),
(583,260,l),
(461,260,ls),
(451,260,o),
(446,266,o),
(448,277,cs),
(486,442,ls),
(489,453,o),
(496,460,o),
(508,460,cs),
(636,460,l),
(636,490,l),
(514,490,ls),
(504,490,o),
(499,496,o),
(501,507,cs),
(550,720,l),
(518,720,l),
(469,507,ls),
(466,496,o),
(459,490,o),
(447,490,cs),
(289,490,ls),
(279,490,o),
(274,496,o),
(276,507,cs),
(325,720,l),
(293,720,l),
(244,507,ls),
(241,496,o),
(234,490,o),
(222,490,cs),
(94,490,l),
(94,460,l),
(216,460,ls),
(226,460,o),
(231,454,o),
(229,443,cs),
(191,278,ls),
(188,267,o),
(181,260,o),
(169,260,cs),
(41,260,l),
(41,230,l),
(163,230,ls),
(173,230,o),
(178,224,o),
(176,213,cs),
(127,0,l)
);
},
{
closed = 1;
nodes = (
(226,260,o),
(221,266,o),
(223,277,cs),
(261,442,ls),
(264,453,o),
(271,460,o),
(283,460,cs),
(441,460,ls),
(451,460,o),
(456,454,o),
(454,443,cs),
(416,278,ls),
(413,267,o),
(406,260,o),
(394,260,cs),
(236,260,ls)
);
}
);
width = 629;
}
);
unicode = 35;
},
{
glyphname = slash;
lastChange = "2022-08-11 18:55:19 +0000";
layers = (
{
layerId = m002;
shapes = (
{
closed = 1;
nodes = (
(-59,-130,ls),
(-53,-130,o),
(-48,-126,o),
(-46,-121,cs),
(369,779,ls),
(371,785,o),
(370,790,o),
(363,790,cs),
(351,790,ls),
(345,790,o),
(340,786,o),
(338,781,cs),
(-76,-119,ls),
(-79,-125,o),
(-78,-130,o),
(-71,-130,cs)
);
}
);
width = 258;
}
);
unicode = 47;
},
{
glyphname = backslash;
lastChange = "2022-08-11 18:57:07 +0000";
layers = (
{
layerId = m002;
shapes = (
{
closed = 1;
nodes = (
(149,-130,ls),
(156,-130,o),
(159,-125,o),
(160,-119,cs),
(160,781,ls),
(160,786,o),
(157,790,o),
(151,790,cs),
(141,790,ls),
(134,790,o),
(131,785,o),
(131,779,cs),
(130,-121,ls),
(130,-126,o),
(133,-130,o),
(139,-130,cs)
);
}
);
width = 256;
}
);
unicode = 92;
},
{
glyphname = hyphen;
kernLeft = hyphen;
kernRight = hyphen;
lastChange = "2022-08-31 19:46:08 +0000";
layers = (
{
background = {
shapes = (
{
closed = 1;
nodes = (
(347,259,ls),
(361,259,o),
(371,265,o),
(371,277,cs),
(371,287,o),
(363,293,o),
(352,293,cs),
(109,293,ls),
(95,293,o),
(85,287,o),
(85,275,cs),
(85,265,o),
(93,259,o),
(104,259,cs)
);
}
);
};
layerId = m002;
shapes = (
{
closed = 1;
nodes = (
(335,259,ls),
(341,259,o),
(346,263,o),
(347,269,cs),
(350,283,ls),
(352,289,o),
(349,293,o),
(343,293,cs),
(101,293,ls),
(95,293,o),
(89,289,o),
(88,283,cs),
(85,269,ls),
(84,263,o),
(87,259,o),
(93,259,cs)
);
}
);
width = 426;
}
);
unicode = 45;
},
{
glyphname = endash;
kernLeft = hyphen;
kernRight = hyphen;
lastChange = "2022-08-23 20:03:55 +0000";
layers = (
{
layerId = m002;
shapes = (
{
closed = 1;
nodes = (
(414,259,ls),
(420,259,o),
(425,263,o),
(426,269,cs),
(429,283,ls),
(430,289,o),
(428,293,o),
(422,293,cs),
(101,293,ls),
(95,293,o),
(89,289,o),
(88,283,cs),
(85,269,ls),
(84,263,o),
(87,259,o),
(93,259,cs)
);
}
);
width = 505;
}
);
unicode = 8211;
},
{
glyphname = emdash;
kernLeft = hyphen;
kernRight = hyphen;
lastChange = "2022-08-23 20:03:55 +0000";
layers = (
{
layerId = m002;
shapes = (
{
closed = 1;
nodes = (
(624,259,ls),
(630,259,o),
(635,263,o),
(636,269,cs),
(639,283,ls),
(640,289,o),
(638,293,o),
(632,293,cs),
(101,293,ls),
(95,293,o),
(89,289,o),
(88,283,cs),
(85,269,ls),
(84,263,o),
(87,259,o),
(93,259,cs)
);
}
);
width = 715;
}
);
unicode = 8212;
},
{
glyphname = underscore;
lastChange = "2022-08-11 19:14:16 +0000";
layers = (
{
layerId = m002;
shapes = (
{
closed = 1;
nodes = (
(263,-109,ls),
(269,-109,o),
(274,-105,o),
(275,-99,cs),
(278,-85,ls),
(279,-79,o),
(277,-75,o),
(271,-75,cs),
(-50,-75,ls),
(-56,-75,o),
(-62,-79,o),
(-63,-85,cs),
(-66,-99,ls),
(-67,-105,o),
(-64,-109,o),
(-58,-109,cs)
);
}
);
width = 372;
}
);
unicode = 95;
},
{
glyphname = parenleft;
lastChange = "2022-09-01 21:01:08 +0000";
layers = (
{
layerId = m002;
shapes = (
{
closed = 1;
nodes = (
(219,-120,o),
(223,-116,o),
(223,-112,cs),
(224,-108,o),
(223,-105,o),
(220,-100,cs),
(164,-25,o),
(139,68,o),
(139,200,cs),
(139,372,o),
(214,592,o),
(406,714,cs),
(411,717,o),
(413,720,o),
(414,724,cs),
(415,728,o),
(413,732,o),
(407,733,cs),
(404,733,o),
(401,733,o),
(398,731,cs),
(201,633,o),
(78,444,o),
(78,220,cs),
(78,69,o),
(143,-51,o),
(205,-114,cs),
(207,-117,o),
(210,-118,o),
(213,-119,cs)
);
}
);
width = 346;
}
);
unicode = 40;
},
{
glyphname = braceleft;
lastChange = "2022-09-01 21:01:41 +0000";
layers = (
{
background = {
shapes = (
{
closed = 1;
nodes = (
(173,-96,o),
(179,-91,o),
(181,-84,cs),
(182,-77,o),
(178,-72,o),
(171,-72,cs),
(124,-72,o),
(111,-38,o),
(128,36,cs),
(161,178,ls),
(182,267,o),
(168,302,o),
(120,322,c),
(177,342,o),
(207,377,o),
(228,466,cs),
(260,608,ls),
(277,682,o),
(306,716,o),
(353,716,cs),
(360,716,o),
(366,721,o),
(368,728,cs),
(370,735,o),
(366,740,o),
(359,740,cs),
(277,740,o),
(223,696,o),
(201,604,cs),
(169,462,ls),
(147,368,o),
(118,334,o),
(71,334,cs),
(64,334,o),
(58,329,o),
(56,322,cs),
(55,315,o),
(59,310,o),
(66,310,cs),
(113,310,o),
(126,276,o),
(104,182,cs),
(71,40,ls),
(50,-52,o),
(84,-96,o),
(166,-96,cs)
);
}
);
};
layerId = m002;
shapes = (
{
closed = 1;
nodes = (
(174,-96,o),
(182,-92,o),
(182,-83,cs),
(182,-77,o),
(178,-72,o),
(169,-72,cs),
(122,-72,o),
(113,-39,o),
(130,35,cs),
(162,175,ls),
(182,263,o),
(168,301,o),
(122,322,c),
(177,341,o),
(207,372,o),
(227,461,cs),
(259,601,ls),
(280,693,o),
(308,717,o),
(350,717,cs),
(360,717,o),
(367,722,o),
(367,729,cs),
(367,736,o),
(362,740,o),
(352,740,cs),
(275,740,o),
(222,696,o),
(201,605,cs),
(169,465,ls),
(148,372,o),
(118,334,o),
(72,334,cs),
(63,334,o),
(56,329,o),
(56,321,cs),
(56,314,o),
(61,310,o),
(71,310,cs),
(114,310,o),
(127,280,o),
(106,187,cs),
(74,47,ls),
(53,-44,o),
(82,-96,o),
(160,-96,cs)
);
}
);
width = 320;
}
);
unicode = 123;
},
{
glyphname = bracketleft;
lastChange = "2022-09-01 21:02:14 +0000";
layers = (
{
background = {
shapes = (
{
closed = 1;
nodes = (
(169,-98,ls),
(178,-98,o),
(185,-93,o),
(186,-86,cs),
(188,-79,o),
(184,-74,o),
(175,-74,cs),
(80,-74,ls),
(73,-74,o),
(69,-69,o),
(71,-62,cs),
(248,704,ls),
(249,711,o),
(255,716,o),
(262,716,cs),
(357,716,ls),
(366,716,o),
(372,721,o),
(374,728,cs),
(376,735,o),
(372,740,o),
(363,740,cs),
(222,740,ls),
(207,740,o),
(196,731,o),
(192,716,cs),
(10,-74,ls),
(6,-89,o),
(13,-98,o),
(28,-98,cs)
);
}
);
};
layerId = m002;
shapes = (
{
closed = 1;
nodes = (
(168,-98,ls),
(179,-98,o),
(186,-92,o),
(186,-85,cs),
(186,-78,o),
(182,-74,o),
(173,-74,cs),
(79,-74,ls),
(72,-74,o),
(69,-69,o),
(71,-62,cs),
(248,704,ls),
(250,711,o),
(255,716,o),
(262,716,cs),
(357,716,ls),
(368,716,o),
(375,722,o),
(375,729,cs),
(375,736,o),
(371,740,o),
(362,740,cs),
(222,740,ls),
(207,740,o),
(195,731,o),
(192,716,cs),
(10,-74,ls),
(7,-89,o),
(13,-98,o),
(28,-98,cs)
);
}
);
width = 326;
}
);
unicode = 91;
},
{
glyphname = quoteleft;
kernLeft = quoteleft;
kernRight = quoteleft;
lastChange = "2023-02-22 10:42:32 +0000";
layers = (
{
background = {
shapes = (
{
closed = 1;
nodes = (
(154,562,o),
(172,582,o),
(172,606,cs),
(172,653,o),
(120,644,o),
(120,692,cs),
(120,715,o),
(128,730,o),
(173,769,cs),
(182,776,o),
(181,784,o),
(176,788,cs),
(171,792,o),
(165,790,o),
(157,784,cs),
(95,740,o),
(70,690,o),
(70,629,cs),
(70,588,o),
(91,562,o),
(124,562,cs)
);
}
);
};
layerId = m002;
shapes = (
{
closed = 1;
nodes = (
(190,562,o),
(210,583,o),
(210,609,cs),
(210,646,o),
(175,649,o),
(175,681,cs),
(175,705,o),
(193,737,o),
(246,769,cs),
(253,773,o),
(255,777,o),
(255,781,cs),
(255,790,o),
(246,793,o),
(234,786,cs),
(161,750,o),
(111,682,o),
(111,617,cs),
(111,585,o),
(130,562,o),
(161,562,cs)
);
}
);
width = 166;
}
);
metricLeft = "=|quoteright";
metricRight = "=|quoteright";
unicode = 8216;
},
{
glyphname = quoteright;
kernLeft = quoteright;
kernRight = quoteright;
lastChange = "2022-09-19 13:28:36 +0000";
layers = (
{
background = {
shapes = (
{
closed = 1;
nodes = (
(198,552,o),
(223,602,o),
(223,663,cs),
(223,704,o),
(202,730,o),
(169,730,cs),
(139,730,o),
(121,710,o),
(121,686,cs),
(121,639,o),
(173,648,o),
(173,600,cs),
(173,583,o),
(165,562,o),
(120,523,cs),
(111,516,o),
(112,508,o),
(117,504,cs),
(122,500,o),
(128,502,o),
(136,508,cs)
);
}
);
};
layerId = m002;
shapes = (
{
closed = 1;
nodes = (
(185,542,o),
(235,610,o),
(235,675,cs),
(235,707,o),
(216,730,o),
(185,730,cs),
(156,730,o),
(136,709,o),
(136,683,cs),
(136,646,o),
(171,643,o),
(171,611,cs),
(171,587,o),
(153,555,o),
(100,523,cs),
(93,519,o),
(91,515,o),
(91,511,cs),
(91,502,o),
(100,499,o),
(112,506,cs)
);
}
);
width = 166;
}
);
unicode = 8217;
},
{
glyphname = guilsinglleft;
kernLeft = guilleft;
kernRight = guilleft;
lastChange = "2022-08-23 20:04:35 +0000";
layers = (
{
background = {
shapes = (
{
closed = 1;
nodes = (
(134,83,o),
(138,79,o),
(145,79,cs),
(153,79,o),
(157,86,o),
(156,92,cs),
(121,250,ls),
(119,259,o),
(120,266,o),
(125,272,cs),
(226,408,ls),
(230,414,o),
(229,424,o),
(219,424,cs),
(214,424,o),
(210,423,o),
(199,412,cs),
(68,280,ls),
(57,269,o),
(54,260,o),
(60,247,cs),
(128,96,ls)
);
}
);
};
layerId = m002;
shapes = (
{
closed = 1;
nodes = (
(134,83,o),
(138,79,o),
(145,79,cs),
(153,79,o),
(157,86,o),
(156,92,cs),
(119,245,ls),
(117,254,o),
(118,261,o),
(123,267,cs),
(226,408,ls),
(230,414,o),
(229,424,o),
(219,424,cs),
(214,424,o),
(210,423,o),
(199,412,cs),
(68,280,ls),
(57,269,o),
(54,260,o),
(60,247,cs),
(128,96,ls)
);
}
);
width = 267;
}
);
unicode = 8249;
},
{
glyphname = quotesingle;
kernLeft = quotesingle;
kernRight = quotesingle;
lastChange = "2022-09-01 20:16:30 +0000";
layers = (
{
background = {
shapes = (
{
closed = 1;
nodes = (
(180,490,o),
(185,496,o),
(187,505,cs),
(214,609,o),
(261,638,o),
(261,687,cs),
(261,713,o),
(249,731,o),
(222,731,cs),
(186,731,o),
(169,701,o),
(169,663,cs),
(169,641,o),
(172,619,o),
(172,591,cs),
(172,568,o),
(170,541,o),
(164,509,cs),
(161,497,o),
(166,490,o),
(174,490,cs)
);
}
);
};
layerId = m002;
shapes = (
{
closed = 1;
nodes = (
(180,490,o),
(185,496,o),
(187,505,cs),
(214,609,o),
(261,638,o),
(261,687,cs),
(261,713,o),
(249,731,o),
(222,731,cs),
(186,731,o),
(169,701,o),
(169,663,cs),
(169,596,o),
(177,574,o),
(164,509,cs),
(161,497,o),
(166,490,o),
(174,490,cs)
);
}
);
width = 235;
}
);
unicode = 39;
},
{
glyphname = at;
kernLeft = o;
kernRight = o;
lastChange = "2022-08-23 20:05:05 +0000";
layers = (
{
background = {
shapes = (
{
closed = 1;
nodes = (
(423,-81,o),
(485,-62,o),
(531,-26,cs),
(540,-19,o),
(541,-12,o),
(536,-4,cs),
(531,3,o),
(522,3,o),
(511,-6,cs),
(470,-36,o),
(415,-52,o),
(350,-52,cs),
(194,-52,o),
(110,42,o),
(110,215,cs),
(110,414,o),
(223,553,o),
(384,553,cs),
(508,553,o),
(585,464,o),
(585,322,cs),
(585,206,o),
(522,94,o),
(456,94,cs),
(428,94,o),
(420,122,o),
(433,177,cs),
(488,413,ls),
(491,425,o),
(487,433,o),
(478,433,cs),
(471,433,o),
(464,427,o),
(460,416,cs),
(458,411,o),
(455,409,o),
(452,409,cs),
(448,409,o),
(446,411,o),
(443,416,cs),
(434,430,o),
(417,438,o),
(397,438,cs),
(305,438,o),
(200,285,o),
(200,151,cs),
(200,94,o),
(219,63,o),
(254,63,cs),
(295,63,o),
(338,105,o),
(386,192,cs),
(389,198,o),
(395,197,o),
(393,190,cs),
(390,178,ls),
(372,107,o),
(394,63,o),
(446,63,cs),
(539,63,o),
(624,185,o),
(624,319,cs),
(624,475,o),
(529,580,o),
(388,580,cs),
(205,580,o),
(44,411,o),
(44,218,cs),
(44,45,o),
(156,-81,o),
(352,-81,cs)
);
},
{
closed = 1;
nodes = (
(258,100,o),
(252,112,o),
(252,143,cs),
(252,258,o),
(332,411,o),
(393,411,cs),
(412,411,o),
(423,396,o),
(423,369,cs),
(423,278,o),
(323,100,o),
(272,100,cs)
);
}
);
};
layerId = m002;
shapes = (
{
closed = 1;
nodes = (
(379,-81,o),
(425,-70,o),
(465,-48,cs),
(473,-43,o),
(478,-36,o),
(475,-27,cs),
(470,-17,o),
(460,-20,o),
(450,-25,cs),
(416,-43,o),
(376,-52,o),
(332,-52,cs),
(199,-52,o),
(96,15,o),
(96,171,cs),
(96,330,o),
(206,554,o),
(415,554,cs),
(537,554,o),
(605,489,o),
(605,359,cs),
(605,257,o),
(527,93,o),
(433,93,cs),
(394,93,o),
(392,123,o),
(415,172,cs),
(522,398,ls),
(527,408,o),
(526,419,o),
(515,419,cs),
(509,419,o),
(501,415,o),
(495,405,cs),
(492,400,o),
(490,399,o),
(487,399,cs),
(483,399,o),
(481,402,o),
(478,407,cs),
(470,422,o),
(449,436,o),
(427,436,cs),
(319,436,o),
(176,236,o),
(176,119,cs),
(176,82,o),
(194,63,o),
(222,63,cs),
(269,63,o),
(327,120,o),
(377,193,cs),
(381,199,o),
(388,197,o),
(384,190,cs),
(365,155,o),
(361,138,o),
(361,120,cs),
(361,84,o),
(387,63,o),
(425,63,cs),
(549,63,o),
(643,247,o),
(643,363,cs),
(643,497,o),
(554,580,o),
(420,580,cs),
(228,580,o),
(34,409,o),
(34,185,cs),
(34,17,o),
(167,-81,o),
(329,-81,cs)
);
},
{
closed = 1;
nodes = (
(232,98,o),
(226,104,o),
(226,117,cs),
(226,192,o),
(342,410,o),
(418,410,cs),
(445,410,o),
(448,390,o),
(442,363,cs),
(423,275,o),
(296,98,o),
(243,98,cs)
);
}
);
width = 665;
}
);
metricLeft = O;
metricRight = O;
unicode = 64;
},
{
glyphname = ampersand;
lastChange = "2022-08-27 16:49:40 +0000";
layers = (
{
background = {
shapes = (
{
closed = 1;
nodes = (
(19,208,ls),
(19,113,o),
(73,-16,o),
(208,-16,cs),
(276,-16,o),
(335,13,o),
(378,57,cs),
(421,100,o),
(447,157,o),
(447,214,cs),
(447,238,o),
(444,258,o),
(441,271,c),
(444,270,o),
(450,269,o),
(455,269,cs),
(499,269,o),
(539,316,o),
(539,369,cs),
(539,392,o),
(538,393,o),
(533,393,cs),
(527,393,o),
(525,381,o),
(520,367,cs),
(508,334,o),
(488,331,o),
(409,331,cs),
(341,331,o),
(297,307,o),
(271,278,cs),
(251,255,o),
(242,230,o),
(242,213,cs),
(242,205,o),
(243,202,o),
(247,202,cs),
(257,202,o),
(284,286,o),
(356,286,cs),
(399,286,o),
(419,256,o),
(419,213,cs),
(419,120,o),
(334,23,o),
(242,23,cs),
(156,23,o),
(91,109,o),
(91,222,cs),
(91,306,o),
(137,398,o),
(216,425,c),
(233,413,o),
(257,406,o),
(278,406,cs),
(303,406,o),
(313,415,o),
(313,427,cs),
(313,447,o),
(295,456,o),
(255,456,cs),
(245,456,o),
(233,454,o),
(222,453,c),
(204,477,o),
(197,505,o),
(197,530,cs),
(197,615,o),
(262,673,o),
(316,673,cs),
(352,673,o),
(387,652,o),
(394,608,cs),
(400,569,o),
(394,534,o),
(412,534,cs),
(427,534,o),
(431,568,o),
(436,592,cs),
(440,612,o),
(447,648,o),
(447,670,cs),
(447,679,o),
(419,730,o),
(344,730,cs),
(247,730,o),
(169,647,o),
(169,545,cs),
(169,510,o),
(178,474,o),
(197,447,c),
(97,423,o),
(19,335,o),
(19,210,cs)
);
}
);
};
layerId = m002;
shapes = (
{
closed = 1;
nodes = (
(354,-9,o),
(450,86,o),
(450,214,cs),
(450,250,o),
(443,278,o),
(429,297,c),
(408,276,l),
(482,251,o),
(539,292,o),
(539,361,cs),
(539,406,o),
(516,436,o),
(478,436,cs),
(449,436,o),
(432,419,o),
(432,397,cs),
(432,348,o),
(504,363,o),
(504,331,cs),
(504,313,o),
(483,308,o),
(439,315,cs),
(408,320,ls),
(317,335,o),
(244,287,o),
(244,213,cs),
(244,169,o),
(267,140,o),
(303,140,cs),
(331,140,o),
(350,155,o),
(350,179,cs),
(350,231,o),
(284,206,o),
(284,245,cs),
(284,267,o),
(307,285,o),
(346,285,cs),
(396,285,o),
(420,260,o),
(420,207,cs),
(420,105,o),
(340,23,o),
(241,23,cs),
(147,23,o),
(91,95,o),
(91,218,cs),
(91,343,o),
(146,417,o),
(250,433,c),
(245,444,l),
(216,457,o),
(198,495,o),
(198,541,cs),
(198,624,o),
(253,687,o),
(325,687,cs),
(382,687,o),
(405,646,o),
(410,535,cs),
(411,514,ls),
(412,502,o),
(416,497,o),
(424,497,cs),
(431,497,o),
(436,502,o),
(438,512,cs),
(466,658,ls),
(469,674,o),
(467,681,o),
(456,691,cs),
(430,715,o),
(388,730,o),
(346,730,cs),
(246,730,o),
(168,649,o),
(168,545,cs),
(168,466,o),
(214,406,o),
(275,406,cs),
(299,406,o),
(313,415,o),
(313,430,cs),
(313,447,o),
(294,456,o),
(260,456,cs),
(130,456,o),
(19,336,o),
(19,196,cs),
(19,74,o),
(101,-9,o),
(223,-9,cs)
);
}
);
width = 525;
}
);
unicode = 38;
},
{
glyphname = paragraph;
lastChange = "2022-08-13 19:12:03 +0000";
layers = (
{
layerId = m002;
shapes = (
{
closed = 1;
nodes = (
(205,-130,ls),
(213,-130,o),
(219,-127,o),
(221,-118,cs),
(402,666,ls),
(405,681,o),
(416,690,o),
(431,690,cs),
(454,690,ls),
(470,690,o),
(476,679,o),
(473,666,cs),
(293,-115,ls),
(291,-124,o),
(296,-130,o),
(305,-130,cs),
(331,-130,ls),
(339,-130,o),
(345,-127,o),
(347,-118,cs),
(525,654,ls),
(531,682,o),
(539,688,o),
(568,693,cs),
(592,697,ls),
(602,699,o),
(608,703,o),
(608,711,cs),
(608,717,o),
(604,720,o),
(595,720,cs),
(356,720,ls),
(186,720,o),
(85,611,o),
(85,490,cs),
(85,393,o),
(147,326,o),
(242,326,cs),
(254,326,ls),
(265,326,o),
(267,321,o),
(265,312,cs),
(167,-115,ls),
(165,-124,o),
(170,-130,o),
(179,-130,cs)
);
}
);
width = 523;
}
);
metricLeft = "=|P";
metricRight = "=|P";
unicode = 182;
},
{
glyphname = section;
lastChange = "2022-08-14 16:25:16 +0000";
layers = (
{
background = {
shapes = (
{
closed = 1;
nodes = (
(264,-129,o),
(322,-81,o),
(322,-8,cs),
(322,40,o),
(296,84,o),
(248,135,cs),
(242,142,o),
(244,148,o),
(253,150,cs),
(314,165,o),
(358,215,o),
(358,286,cs),
(358,351,o),
(320,408,o),
(245,479,cs),
(166,553,o),
(144,592,o),
(144,639,cs),
(144,675,o),
(173,702,o),
(211,702,cs),
(251,702,o),
(277,673,o),
(306,586,cs),
(309,577,o),
(312,570,o),
(322,570,cs),
(329,570,o),
(335,575,o),
(335,585,cs),
(333,695,ls),
(333,703,o),
(329,707,o),
(323,711,cs),
(302,724,o),
(274,730,o),
(245,730,cs),
(147,730,o),
(89,682,o),
(89,609,cs),
(89,561,o),
(115,517,o),
(163,466,cs),
(169,459,o),
(167,453,o),
(158,451,cs),
(97,436,o),
(53,386,o),
(53,315,cs),
(53,250,o),
(91,193,o),
(166,122,cs),
(245,48,o),
(267,9,o),
(267,-38,cs),
(267,-74,o),
(238,-101,o),
(200,-101,cs),
(160,-101,o),
(134,-72,o),
(105,15,cs),
(102,24,o),
(99,31,o),
(89,31,cs),
(82,31,o),
(76,26,o),
(76,16,cs),
(78,-94,ls),
(78,-102,o),
(82,-106,o),
(88,-110,cs),
(109,-123,o),
(137,-129,o),
(166,-129,cs)
);
},
{
closed = 1;
nodes = (
(218,170,o),
(209,174,o),
(200,184,cs),
(134,251,o),
(108,295,o),
(108,345,cs),
(108,392,o),
(135,422,o),
(180,429,cs),
(193,431,o),
(202,427,o),
(211,417,cs),
(277,350,o),
(303,306,o),
(303,256,cs),
(303,209,o),
(275,178,o),
(231,172,cs)
);
}
);
};
layerId = m002;
shapes = (
{
closed = 1;
nodes = (
(193,-122,o),
(253,-69,o),
(253,9,cs),
(253,47,o),
(238,86,o),
(210,131,cs),
(205,138,o),
(209,144,o),
(218,145,cs),
(299,153,o),
(355,221,o),
(355,302,cs),
(355,354,o),
(331,407,o),
(284,472,cs),
(237,538,o),
(218,579,o),
(218,615,cs),
(218,656,o),
(240,698,o),
(290,698,cs),
(337,698,o),
(359,668,o),
(368,569,cs),
(369,559,o),
(371,551,o),
(382,551,cs),
(388,551,o),
(394,555,o),
(396,564,cs),
(419,673,ls),
(421,681,o),
(418,686,o),
(413,691,cs),
(385,716,o),
(337,723,o),
(304,723,cs),
(218,723,o),
(158,670,o),
(158,592,cs),
(158,554,o),
(173,515,o),
(201,470,cs),
(206,463,o),
(202,457,o),
(193,456,cs),
(112,448,o),
(56,380,o),
(56,299,cs),
(56,247,o),
(80,194,o),
(127,129,cs),
(174,63,o),
(193,22,o),
(193,-14,cs),
(193,-55,o),
(171,-97,o),
(121,-97,cs),
(74,-97,o),
(52,-67,o),
(43,32,cs),
(42,42,o),
(40,50,o),
(29,50,cs),
(23,50,o),
(17,46,o),
(15,37,cs),
(-8,-72,ls),
(-10,-80,o),
(-7,-85,o),
(-2,-90,cs),
(26,-115,o),
(74,-122,o),
(107,-122,cs)
);
},
{
closed = 1;
nodes = (
(188,170,o),
(180,175,o),
(174,186,cs),
(134,246,o),
(117,288,o),
(117,328,cs),
(117,376,o),
(142,430,o),
(210,431,cs),
(223,431,o),
(231,426,o),
(237,415,cs),
(277,355,o),
(294,313,o),
(294,273,cs),
(294,226,o),
(268,169,o),
(201,170,cs)
);
}
);
width = 379;
}
);
metricLeft = S;
metricRight = S;
unicode = 167;
},
{
glyphname = copyright;
lastChange = "2022-08-14 16:28:39 +0000";
layers = (
{
layerId = m002;
shapes = (
{
closed = 1;
nodes = (
(656,-15,o),
(824,153,o),
(824,360,cs),
(824,567,o),
(656,735,o),
(449,735,cs),
(242,735,o),
(74,567,o),
(74,360,cs),
(74,153,o),
(242,-15,o),
(449,-15,cs)
);
},
{
closed = 1;
nodes = (
(264,23,o),
(114,175,o),
(114,360,cs),
(114,545,o),
(264,697,o),
(449,697,cs),
(634,697,o),
(784,545,o),
(784,360,cs),
(784,175,o),
(634,23,o),
(449,23,cs)
);
},
{
closed = 1;
nodes = (
(507,142,o),
(540,149,o),
(567,160,cs),
(574,164,o),
(577,167,o),
(577,174,cs),
(580,278,ls),
(580,291,o),
(575,297,o),
(567,297,cs),
(559,297,o),
(555,292,o),
(551,277,cs),
(544,253,ls),
(523,181,o),
(496,162,o),
(453,162,cs),
(389,162,o),
(324,242,o),
(324,363,cs),
(324,480,o),
(381,560,o),
(452,560,cs),
(490,560,o),
(517,540,o),
(538,468,cs),
(545,444,ls),
(549,429,o),
(553,424,o),
(561,424,cs),
(569,424,o),
(574,430,o),
(574,443,cs),
(571,547,ls),
(571,554,o),
(568,557,o),
(561,560,cs),
(534,572,o),
(501,579,o),
(458,579,cs),
(346,579,o),
(257,481,o),
(257,363,cs),
(257,240,o),
(336,142,o),
(455,142,cs)
);
}
);
width = 850;
}
);
metricLeft = O;
metricRight = O;
unicode = 169;
},
{
glyphname = registered;
lastChange = "2022-08-14 16:32:48 +0000";
layers = (
{
layerId = m002;
shapes = (
{
closed = 1;
nodes = (
(656,-15,o),
(824,153,o),
(824,360,cs),
(824,567,o),
(656,735,o),
(449,735,cs),
(242,735,o),
(74,567,o),
(74,360,cs),
(74,153,o),
(242,-15,o),
(449,-15,cs)
);
},
{
closed = 1;
nodes = (
(264,23,o),
(114,175,o),
(114,360,cs),
(114,545,o),
(264,697,o),
(449,697,cs),
(634,697,o),
(784,545,o),
(784,360,cs),
(784,175,o),
(634,23,o),
(449,23,cs)
);
},
{
closed = 1;
nodes = (
(616,144,o),
(639,155,o),
(639,172,cs),
(639,180,o),
(632,184,o),
(624,179,cs),
(616,174,o),
(609,171,o),
(602,171,cs),
(581,171,o),
(569,182,o),
(558,224,cs),
(542,284,ls),
(532,320,o),
(518,341,o),
(489,352,cs),
(482,355,o),
(482,358,o),
(489,360,cs),
(548,377,o),
(588,420,o),
(588,471,cs),
(588,533,o),
(530,578,o),
(448,578,cs),
(303,578,ls),
(295,578,o),
(290,573,o),
(290,568,cs),
(290,563,o),
(293,559,o),
(302,558,cs),
(314,556,ls),
(334,553,o),
(339,549,o),
(339,532,cs),
(339,194,ls),
(339,178,o),
(334,174,o),
(314,171,cs),
(299,169,ls),
(293,168,o),
(290,163,o),
(290,159,cs),
(290,154,o),
(293,149,o),
(300,149,cs),
(441,149,ls),
(448,149,o),
(452,154,o),
(452,159,cs),
(452,163,o),
(449,169,o),
(439,170,cs),
(418,173,ls),
(402,175,o),
(398,180,o),
(398,197,cs),
(398,340,ls),
(398,349,o),
(406,355,o),
(419,355,cs),
(456,355,o),
(469,340,o),
(485,278,cs),
(502,212,ls),
(514,167,o),
(538,144,o),
(588,144,cs)
);
},
{
closed = 1;
nodes = (
(413,374,o),
(398,384,o),
(398,407,cs),
(398,533,ls),
(398,550,o),
(411,556,o),
(442,556,cs),
(487,556,o),
(527,522,o),
(527,463,cs),
(527,409,o),
(486,374,o),
(444,374,cs)
);
}
);
width = 850;
}
);
unicode = 174;
},
